<svg width="491" height="386" viewBox="0 0 491 386" fill="none" xmlns="http://www.w3.org/2000/svg">
<path fill-rule="evenodd" clip-rule="evenodd" d="M11.4018 112.627C66.9486 133.92 116.495 161.668 173.346 178.828C260.696 205.194 371.518 171.486 434.08 240.211C495.632 307.828 503.648 422.237 475.389 510.629C448.013 596.257 349.13 626.544 289.595 692.139C233.557 753.879 207.559 842.724 136.344 884.18C56.53 930.643 -43.9427 972.852 -127.928 935.192C-212.266 897.374 -239.178 787.635 -275.136 699.667C-302.456 632.831 -314.358 561.819 -310.186 489.313C-306.596 426.904 -260.793 377.447 -253.029 315.45C-240.385 214.486 -329.676 76.5813 -250.938 16.188C-174.732 -42.2637 -77.4237 78.578 11.4018 112.627Z" fill="#F3F3F3"/>
</svg>
