<svg width="838" height="889" viewBox="0 0 838 889" fill="none" xmlns="http://www.w3.org/2000/svg">
<path fill-rule="evenodd" clip-rule="evenodd" d="M460.861 29.5991C542.427 3.93266 647.138 -23.8814 711.231 34.6602C777.382 95.0821 734.671 211.242 756.878 299.978C774.089 368.752 818.759 425.214 826.637 495.816C836.414 583.425 853.497 680.23 807.576 754.294C760.552 830.137 670.939 868.414 585.707 884.406C504.998 899.548 424.034 873.473 348.391 840.448C278.992 810.149 226.307 756.031 170.676 703.208C107.376 643.102 7.31421 599.003 0.393977 510.015C-6.59688 420.118 81.0191 354.889 138.337 287.353C181.684 236.277 239.903 208.126 291.816 166.638C349.636 120.429 391.122 51.5439 460.861 29.5991Z" fill="#222222"/>
</svg>
