<?xml version="1.0" encoding="utf-8"?>
<!-- Generator: Adobe Illustrator 27.9.0, SVG Export Plug-In . SVG Version: 6.00 Build 0)  -->
<svg version="1.1" id="Layer_1" xmlns="http://www.w3.org/2000/svg" xmlns:xlink="http://www.w3.org/1999/xlink" x="0px" y="0px"
	 viewBox="0 0 50 146" style="enable-background:new 0 0 50 146;" xml:space="preserve">
<style type="text/css">
	.st0{fill:#FFFFFF;}
</style>
<path class="st0" d="M39.35,130.56c-0.18-0.57-0.39-1.03-0.65-1.38c-0.26-0.35-0.54-0.6-0.84-0.76c-0.3-0.17-0.62-0.25-0.96-0.26
	c-0.34-0.01-0.68,0.03-1.02,0.14c-0.36,0.11-0.66,0.27-0.91,0.47c-0.26,0.2-0.45,0.46-0.57,0.76c-0.13,0.31-0.19,0.67-0.18,1.1
	c0.01,0.42,0.1,0.9,0.26,1.44l0.95,3.11l4.86-1.49L39.35,130.56z M28.51,137.3l4.8-1.47l-0.75-2.46c-0.32-1.06-0.76-1.79-1.31-2.21
	c-0.55-0.43-1.24-0.51-2.07-0.26c-0.86,0.26-1.4,0.7-1.62,1.3s-0.17,1.42,0.15,2.46L28.51,137.3z M25.32,135.4
	c-0.33-1.09-0.51-2.05-0.54-2.88c-0.03-0.84,0.07-1.56,0.3-2.16c0.23-0.61,0.58-1.12,1.05-1.51c0.47-0.4,1.05-0.7,1.73-0.91
	c0.39-0.12,0.78-0.18,1.18-0.17c0.39,0.01,0.77,0.08,1.16,0.23c0.38,0.14,0.75,0.36,1.12,0.66c0.36,0.29,0.71,0.66,1.05,1.12
	c-0.19-2.44,0.7-3.95,2.65-4.55c0.7-0.22,1.39-0.28,2.07-0.2c0.68,0.08,1.31,0.32,1.91,0.69c0.59,0.38,1.12,0.91,1.59,1.58
	c0.47,0.67,0.86,1.49,1.15,2.46l1.92,6.26l-16.59,5.09L25.32,135.4z"/>
<path class="st0" d="M27.5,116.17c-0.8-0.2-1.47-0.51-2-0.93c-0.53-0.42-0.89-0.97-1.05-1.67c-0.13-0.55-0.12-1.03,0.04-1.42
	l2.2-0.33c0.15,0.01,0.26,0.04,0.35,0.1c0.07,0.06,0.12,0.15,0.15,0.27c0.03,0.12,0.05,0.3,0.07,0.54c0.01,0.23,0.05,0.46,0.1,0.68
	c0.08,0.32,0.19,0.59,0.34,0.82c0.15,0.23,0.34,0.42,0.57,0.58c0.22,0.15,0.47,0.28,0.76,0.38c0.28,0.09,0.6,0.16,0.95,0.22
	l7.38-1.76l0.69,2.88l-11.98,2.86l-0.4-1.69c-0.07-0.3-0.07-0.51,0.02-0.66c0.07-0.14,0.24-0.26,0.5-0.37L27.5,116.17z"/>
<path class="st0" d="M28.7,97.6c0.19,0.84,0.39,1.53,0.6,2.09c0.2,0.56,0.42,0.99,0.65,1.31c0.23,0.32,0.46,0.53,0.71,0.64
	c0.25,0.11,0.5,0.14,0.76,0.1c0.51-0.09,0.85-0.31,1.02-0.65c0.17-0.35,0.2-0.76,0.12-1.25c-0.11-0.6-0.31-1.1-0.59-1.49
	c-0.3-0.4-0.71-0.77-1.22-1.11L28.7,97.6z M24.63,105.22c-1.52-1.17-2.46-2.73-2.81-4.69c-0.13-0.71-0.12-1.36,0.01-1.97
	c0.13-0.6,0.37-1.13,0.72-1.59c0.34-0.46,0.78-0.84,1.32-1.14c0.54-0.31,1.15-0.52,1.84-0.64l7.66-1.37l0.24,1.32
	c0.05,0.28,0.05,0.5,0,0.66c-0.06,0.17-0.21,0.31-0.44,0.44l-0.83,0.42c0.33,0.26,0.63,0.51,0.89,0.77
	c0.26,0.25,0.48,0.53,0.68,0.82c0.2,0.29,0.36,0.61,0.5,0.96c0.14,0.34,0.25,0.73,0.33,1.16c0.09,0.51,0.11,1,0.05,1.45
	c-0.06,0.46-0.21,0.87-0.43,1.23c-0.22,0.36-0.52,0.67-0.9,0.92c-0.38,0.25-0.84,0.42-1.38,0.52c-0.31,0.06-0.62,0.06-0.94,0.01
	c-0.33-0.05-0.65-0.16-0.96-0.34c-0.32-0.19-0.63-0.44-0.94-0.77c-0.31-0.33-0.6-0.74-0.88-1.24c-0.28-0.51-0.54-1.12-0.77-1.81
	c-0.25-0.7-0.46-1.5-0.65-2.42l-0.71,0.13c-0.81,0.14-1.38,0.42-1.7,0.84c-0.33,0.42-0.44,0.95-0.32,1.61
	c0.08,0.47,0.21,0.86,0.38,1.15c0.16,0.29,0.34,0.54,0.52,0.75c0.18,0.21,0.34,0.41,0.48,0.58c0.14,0.17,0.24,0.37,0.28,0.61
	c0.04,0.21,0.02,0.39-0.06,0.55c-0.09,0.16-0.19,0.3-0.32,0.41L24.63,105.22z"/>
<path class="st0" d="M21.09,83.99c-0.27-0.22-0.53-0.45-0.77-0.7c-0.25-0.25-0.46-0.53-0.63-0.81c-0.19-0.29-0.34-0.61-0.45-0.95
	c-0.13-0.34-0.21-0.72-0.26-1.13c-0.07-0.67-0.02-1.27,0.15-1.82c0.17-0.54,0.44-1.01,0.81-1.39c0.37-0.39,0.83-0.71,1.38-0.95
	c0.54-0.25,1.16-0.41,1.84-0.48l7.79-0.86l0.32,2.95l-7.79,0.86c-0.75,0.08-1.31,0.32-1.67,0.7c-0.38,0.39-0.53,0.93-0.45,1.63
	c0.06,0.51,0.22,0.97,0.5,1.39c0.28,0.42,0.64,0.81,1.08,1.16l8.85-0.98l0.32,2.95l-12.24,1.35l-0.2-1.8
	c-0.04-0.38,0.11-0.65,0.45-0.81L21.09,83.99z"/>
<path class="st0" d="M20.86,59.56c-0.39,0.35-0.67,0.73-0.82,1.14c-0.15,0.4-0.22,0.83-0.2,1.28c0.02,0.45,0.12,0.85,0.3,1.2
	c0.18,0.35,0.45,0.65,0.81,0.89c0.35,0.24,0.79,0.42,1.32,0.53c0.53,0.11,1.14,0.16,1.85,0.13c0.72-0.03,1.33-0.11,1.83-0.24
	c0.49-0.14,0.89-0.33,1.2-0.55c0.3-0.23,0.52-0.5,0.65-0.82c0.12-0.32,0.18-0.67,0.16-1.05c-0.03-0.62-0.17-1.13-0.45-1.55
	c-0.27-0.42-0.65-0.81-1.14-1.18L20.86,59.56z M12.08,56.95l17.82-0.74l0.07,1.81c0.02,0.39-0.15,0.65-0.51,0.77l-1.18,0.3
	c0.59,0.47,1.07,1.02,1.45,1.66c0.38,0.62,0.58,1.37,0.62,2.22c0.03,0.67-0.09,1.29-0.34,1.86c-0.26,0.57-0.64,1.07-1.15,1.5
	c-0.52,0.42-1.17,0.76-1.94,1.02c-0.77,0.25-1.67,0.39-2.67,0.43c-0.91,0.04-1.76-0.05-2.56-0.27c-0.79-0.22-1.49-0.54-2.08-0.98
	c-0.59-0.44-1.07-0.98-1.41-1.61c-0.35-0.63-0.55-1.35-0.58-2.16c-0.03-0.69,0.06-1.28,0.25-1.78c0.2-0.5,0.47-0.94,0.82-1.34
	l-6.49,0.27L12.08,56.95z"/>
<path class="st0" d="M17.61,44.86l12.31,0.18l-0.04,2.98l-12.31-0.18L17.61,44.86z M14.03,44.4c0.26,0,0.5,0.06,0.72,0.17
	c0.22,0.11,0.42,0.25,0.58,0.43c0.17,0.17,0.3,0.37,0.4,0.61c0.09,0.23,0.14,0.48,0.13,0.75c0,0.26-0.06,0.5-0.15,0.73
	c-0.11,0.22-0.25,0.42-0.42,0.58c-0.17,0.17-0.37,0.3-0.59,0.4c-0.23,0.09-0.47,0.14-0.72,0.13c-0.26,0-0.51-0.06-0.74-0.15
	c-0.23-0.11-0.43-0.25-0.59-0.42c-0.17-0.17-0.29-0.37-0.39-0.59c-0.1-0.23-0.15-0.48-0.15-0.73c0-0.26,0.06-0.51,0.17-0.74
	c0.1-0.23,0.23-0.43,0.4-0.59c0.17-0.17,0.37-0.31,0.61-0.41C13.52,44.45,13.77,44.4,14.03,44.4z"/>
<path class="st0" d="M19.59,32.8c-0.23-0.26-0.44-0.54-0.63-0.83c-0.2-0.29-0.35-0.6-0.48-0.91c-0.13-0.32-0.22-0.66-0.28-1.02
	c-0.06-0.36-0.08-0.74-0.05-1.16c0.05-0.67,0.21-1.26,0.47-1.76c0.26-0.5,0.61-0.91,1.05-1.23c0.43-0.32,0.94-0.55,1.53-0.69
	c0.58-0.14,1.21-0.19,1.9-0.14l7.82,0.55l-0.21,2.96l-7.82-0.55c-0.75-0.05-1.34,0.08-1.77,0.39c-0.44,0.31-0.68,0.82-0.73,1.52
	c-0.04,0.51,0.05,1,0.25,1.46c0.2,0.46,0.49,0.91,0.86,1.34l8.88,0.63l-0.21,2.96l-12.28-0.87l0.13-1.81
	c0.03-0.38,0.22-0.62,0.59-0.72L19.59,32.8z"/>
<path class="st0" d="M25.98,12.3c0.05-0.36,0.05-0.69-0.01-0.97c-0.07-0.28-0.17-0.52-0.32-0.72c-0.15-0.21-0.34-0.37-0.57-0.49
	c-0.23-0.13-0.5-0.21-0.79-0.25c-0.6-0.08-1.1,0.03-1.5,0.35c-0.41,0.31-0.66,0.82-0.76,1.54c-0.1,0.72,0,1.29,0.31,1.7
	c0.3,0.4,0.75,0.65,1.35,0.73c0.29,0.04,0.56,0.03,0.81-0.02c0.26-0.06,0.49-0.17,0.7-0.32c0.2-0.16,0.37-0.36,0.51-0.62
	C25.84,12.97,25.94,12.65,25.98,12.3z M33.38,9.94c-0.24-0.03-0.44,0.01-0.61,0.13c-0.17,0.12-0.31,0.3-0.43,0.53
	c-0.12,0.23-0.22,0.51-0.31,0.84c-0.08,0.32-0.16,0.66-0.23,1.03c-0.07,0.36-0.15,0.74-0.22,1.13c-0.07,0.39-0.15,0.76-0.25,1.13
	c0.14,0.35,0.31,0.65,0.53,0.89c0.22,0.23,0.49,0.37,0.81,0.42c0.21,0.03,0.42,0.01,0.62-0.07c0.21-0.08,0.39-0.23,0.56-0.44
	c0.17-0.22,0.31-0.51,0.44-0.87c0.13-0.36,0.23-0.81,0.31-1.35c0.08-0.55,0.1-1.02,0.06-1.43c-0.02-0.41-0.09-0.75-0.21-1.02
	c-0.11-0.28-0.25-0.5-0.44-0.64C33.83,10.06,33.62,9.97,33.38,9.94z M21.46,5.31l1.09,0.15c0.35,0.05,0.53,0.29,0.55,0.72l0.05,1.12
	c0.44-0.11,0.91-0.13,1.41-0.06c0.6,0.08,1.13,0.28,1.59,0.6c0.45,0.3,0.82,0.69,1.1,1.17c0.28,0.48,0.48,1.02,0.59,1.63
	c0.1,0.6,0.11,1.24,0.01,1.92c-0.03,0.24-0.08,0.47-0.13,0.68c-0.05,0.22-0.12,0.43-0.19,0.64c0.18,0.41,0.41,0.64,0.69,0.68
	c0.25,0.03,0.44-0.05,0.59-0.26c0.14-0.21,0.26-0.5,0.36-0.87c0.1-0.37,0.19-0.79,0.27-1.26c0.07-0.47,0.16-0.96,0.27-1.45
	c0.11-0.49,0.25-0.97,0.42-1.43c0.16-0.46,0.37-0.86,0.64-1.21c0.27-0.34,0.6-0.6,1-0.77c0.4-0.18,0.88-0.23,1.46-0.15
	c0.54,0.07,1.04,0.28,1.51,0.62c0.47,0.33,0.87,0.78,1.2,1.34c0.33,0.55,0.56,1.22,0.69,1.99c0.14,0.76,0.15,1.61,0.02,2.55
	c-0.13,0.92-0.33,1.71-0.61,2.36c-0.27,0.66-0.58,1.19-0.95,1.6c-0.36,0.41-0.74,0.7-1.16,0.87c-0.42,0.17-0.84,0.22-1.26,0.17
	c-0.57-0.08-1.02-0.32-1.36-0.71c-0.34-0.4-0.58-0.92-0.73-1.55c-0.21,0.3-0.47,0.53-0.77,0.68c-0.3,0.15-0.68,0.2-1.13,0.13
	c-0.18-0.03-0.36-0.08-0.55-0.17c-0.19-0.1-0.37-0.22-0.54-0.38c-0.17-0.16-0.33-0.35-0.47-0.57c-0.15-0.22-0.27-0.48-0.37-0.77
	c-0.42,0.57-0.93,1-1.53,1.28c-0.6,0.27-1.28,0.36-2.02,0.25c-0.6-0.08-1.13-0.28-1.58-0.58c-0.46-0.31-0.83-0.71-1.11-1.18
	c-0.29-0.48-0.48-1.03-0.58-1.64c-0.1-0.62-0.1-1.28-0.01-1.98c0.07-0.52,0.2-1.01,0.37-1.45c0.17-0.45,0.38-0.84,0.64-1.2
	L21.46,5.31z"/>
</svg>
