<svg width="718" height="717" viewBox="0 0 718 717" fill="none" xmlns="http://www.w3.org/2000/svg">
<path d="M718 358C718 556.27 557.27 717 359 717C160.73 717 0 556.27 0 358C0 159.73 160.73 -1 359 -1C557.27 -1 718 159.73 718 358ZM137.05 358C137.05 480.579 236.421 579.95 359 579.95C481.579 579.95 580.95 480.579 580.95 358C580.95 235.421 481.579 136.05 359 136.05C236.421 136.05 137.05 235.421 137.05 358Z" fill="#272727"/>
<path d="M718 358C718 433.813 693.999 507.681 649.437 569.015C604.875 630.349 542.04 676.002 469.937 699.429L427.586 569.087C472.163 554.603 511.011 526.378 538.561 488.459C566.111 450.539 580.95 404.871 580.95 358H718Z" fill="#5050FF"/>
</svg>
