<svg width="718" height="717" viewBox="0 0 718 717" fill="none" xmlns="http://www.w3.org/2000/svg">
<g clip-path="url(#clip0_450_4443)">
<path d="M718 359C718 557.27 557.27 718 359 718C160.73 718 0 557.27 0 359C0 160.73 160.73 0 359 0C557.27 0 718 160.73 718 359ZM137.05 359C137.05 481.579 236.421 580.95 359 580.95C481.579 580.95 580.95 481.579 580.95 359C580.95 236.421 481.579 137.05 359 137.05C236.421 137.05 137.05 236.421 137.05 359Z" fill="#272727"/>
<path d="M718 359C718 434.813 693.999 508.681 649.437 570.015C604.875 631.349 542.04 677.002 469.937 700.429C397.834 723.857 320.166 723.857 248.063 700.429C175.96 677.002 113.125 631.349 68.5629 570.015C24.0009 508.681 -6.62781e-06 434.813 0 359C6.62782e-06 283.187 24.0009 209.319 68.5629 147.985C113.125 86.6508 175.96 40.9983 248.063 17.5707C320.166 -5.85691 397.834 -5.8569 469.937 17.5707L427.586 147.913C383.009 133.429 334.991 133.429 290.414 147.913C245.837 162.397 206.989 190.622 179.439 228.541C151.889 266.461 137.05 312.129 137.05 359C137.05 405.871 151.889 451.539 179.439 489.459C206.989 527.378 245.837 555.603 290.414 570.087C334.991 584.571 383.009 584.571 427.586 570.087C472.163 555.603 511.011 527.378 538.561 489.459C566.111 451.539 580.95 405.871 580.95 359H718Z" fill="#5050FF"/>
<rect x="280" y="608" width="150" height="64" fill="#5050FF"/>
</g>
<defs>
<clipPath id="clip0_450_4443">
<rect width="718" height="717" fill="white"/>
</clipPath>
</defs>
</svg>
