<svg width="718" height="717" viewBox="0 0 718 717" fill="none" xmlns="http://www.w3.org/2000/svg">
<path d="M718 359C718 557.27 557.27 718 359 718C160.73 718 0 557.27 0 359C0 160.73 160.73 0 359 0C557.27 0 718 160.73 718 359ZM137.05 359C137.05 481.579 236.421 580.95 359 580.95C481.579 580.95 580.95 481.579 580.95 359C580.95 236.421 481.579 137.05 359 137.05C236.421 137.05 137.05 236.421 137.05 359Z" fill="#272727"/>
<path d="M718 359C718 557.27 557.27 718 359 718C160.73 718 0 557.27 0 359C0 160.73 160.73 0 359 0C557.27 0 718 160.73 718 359ZM137.05 359C137.05 481.579 236.421 580.95 359 580.95C481.579 580.95 580.95 481.579 580.95 359C580.95 236.421 481.579 137.05 359 137.05C236.421 137.05 137.05 236.421 137.05 359Z" fill="#5050FF"/>
<rect x="280" y="608" width="150" height="64" fill="#5050FF"/>
</svg>
