<svg width="718" height="717" viewBox="0 0 718 717" fill="none" xmlns="http://www.w3.org/2000/svg">
<path d="M718 359C718 557.27 557.27 718 359 718C160.73 718 0 557.27 0 359C0 160.73 160.73 0 359 0C557.27 0 718 160.73 718 359ZM137.05 359C137.05 481.579 236.421 580.95 359 580.95C481.579 580.95 580.95 481.579 580.95 359C580.95 236.421 481.579 137.05 359 137.05C236.421 137.05 137.05 236.421 137.05 359Z" fill="#272727"/>
<path d="M718 359C718 415.654 704.592 471.504 678.871 521.983C653.151 572.462 615.849 616.137 570.015 649.437C524.181 682.737 471.116 704.717 415.16 713.58C359.204 722.443 301.944 717.936 248.063 700.429C194.182 682.922 145.209 652.912 105.149 612.851C65.0883 572.791 35.0777 523.818 17.5707 469.937C0.0636774 416.056 -4.44274 358.796 4.41989 302.84C13.2825 246.884 35.2626 193.819 68.5629 147.985L179.439 228.541C158.851 256.878 145.262 289.685 139.783 324.279C134.304 358.874 137.09 394.275 147.913 427.586C158.737 460.898 177.291 491.175 202.058 515.942C226.825 540.709 257.102 559.263 290.414 570.087C323.725 580.91 359.126 583.696 393.721 578.217C428.315 572.738 461.122 559.149 489.459 538.561C517.795 517.973 540.857 490.971 556.759 459.763C572.66 428.555 580.95 394.026 580.95 359H718Z" fill="#5050FF"/>
<rect x="280" y="608" width="150" height="64" fill="#5050FF"/>
</svg>
