<?xml version="1.0" encoding="utf-8"?>
<!-- Generator: Adobe Illustrator 27.9.0, SVG Export Plug-In . SVG Version: 6.00 Build 0)  -->
<svg version="1.1" id="Layer_1" xmlns="http://www.w3.org/2000/svg" xmlns:xlink="http://www.w3.org/1999/xlink" x="0px" y="0px"
	 viewBox="0 0 166 202" style="enable-background:new 0 0 166 202;" xml:space="preserve">
<style type="text/css">
	.st0{fill:#FFFFFF;}
</style>
<path class="st0" d="M32.16,174.54c1.17,0.51,2.16,1.16,2.96,1.98c0.81,0.81,1.41,1.72,1.81,2.73c0.4,1.01,0.58,2.09,0.54,3.25
	c-0.04,1.16-0.32,2.35-0.85,3.56L34,192.13l-15.92-6.89l2.63-6.07c0.52-1.21,1.2-2.23,2.02-3.05c0.82-0.82,1.73-1.43,2.74-1.83
	c1-0.4,2.08-0.59,3.22-0.56C29.83,173.77,30.99,174.04,32.16,174.54z M30.84,177.58c-0.87-0.38-1.71-0.6-2.5-0.66
	c-0.8-0.07-1.53,0.01-2.2,0.24c-0.67,0.22-1.27,0.59-1.8,1.1c-0.52,0.51-0.95,1.15-1.29,1.93l-1.34,3.09l11.21,4.85l1.34-3.1
	c0.34-0.78,0.51-1.53,0.52-2.26c0.01-0.74-0.13-1.42-0.41-2.06c-0.29-0.65-0.74-1.24-1.33-1.76
	C32.45,178.42,31.72,177.96,30.84,177.58z"/>
<path class="st0" d="M41.69,162.66c-0.34,0.78-0.59,1.46-0.75,2.04c-0.17,0.57-0.25,1.05-0.26,1.44c-0.01,0.39,0.06,0.7,0.19,0.94
	c0.13,0.24,0.32,0.41,0.56,0.53c0.47,0.23,0.87,0.26,1.2,0.09c0.34-0.18,0.62-0.49,0.84-0.94c0.27-0.54,0.4-1.06,0.41-1.55
	c0-0.5-0.11-1.04-0.32-1.62L41.69,162.66z M33.9,166.38c-0.53-1.84-0.36-3.66,0.52-5.44c0.32-0.65,0.71-1.17,1.18-1.57
	c0.46-0.41,0.97-0.69,1.52-0.85c0.55-0.17,1.13-0.21,1.74-0.13c0.62,0.07,1.24,0.26,1.86,0.57l6.97,3.45l-0.6,1.21
	c-0.12,0.25-0.26,0.43-0.39,0.53c-0.15,0.1-0.35,0.13-0.62,0.09l-0.91-0.16c0.11,0.4,0.2,0.79,0.26,1.15
	c0.06,0.36,0.08,0.71,0.06,1.06c-0.01,0.35-0.07,0.71-0.17,1.07c-0.09,0.36-0.23,0.73-0.42,1.13c-0.23,0.47-0.5,0.87-0.82,1.2
	c-0.32,0.33-0.68,0.58-1.08,0.74c-0.39,0.16-0.81,0.23-1.27,0.2c-0.45-0.03-0.92-0.16-1.42-0.41c-0.28-0.14-0.53-0.32-0.76-0.55
	c-0.23-0.23-0.42-0.51-0.57-0.85c-0.14-0.34-0.24-0.73-0.3-1.18c-0.06-0.45-0.05-0.96,0.03-1.52c0.08-0.58,0.23-1.21,0.45-1.92
	c0.22-0.71,0.52-1.48,0.91-2.33l-0.65-0.32c-0.74-0.37-1.36-0.48-1.87-0.34c-0.51,0.14-0.92,0.51-1.21,1.1
	c-0.21,0.43-0.34,0.81-0.38,1.15c-0.04,0.33-0.05,0.63-0.02,0.91c0.02,0.27,0.03,0.53,0.04,0.76c0.02,0.22-0.03,0.44-0.14,0.66
	c-0.09,0.19-0.22,0.32-0.37,0.4c-0.16,0.08-0.33,0.13-0.5,0.14L33.9,166.38z"/>
<path class="st0" d="M53.73,151.38c-0.51,0.94-1.17,1.52-1.97,1.74c-0.81,0.21-1.68,0.06-2.61-0.45l-6.04-3.28l-0.6,1.11
	c-0.08,0.14-0.19,0.24-0.33,0.28c-0.14,0.05-0.31,0.02-0.49-0.07l-1.03-0.56l0.66-1.89l-2.65-2.15c-0.12-0.11-0.19-0.24-0.22-0.38
	c-0.02-0.14,0.01-0.29,0.09-0.44l0.73-1.35l3.41,1.85l1.57-2.89l1.86,1.01l-1.57,2.89l5.86,3.19c0.34,0.18,0.65,0.25,0.92,0.19
	c0.28-0.07,0.5-0.24,0.66-0.53c0.09-0.16,0.14-0.3,0.16-0.43c0.02-0.13,0.03-0.25,0.03-0.35c0-0.11,0.01-0.2,0-0.29
	c-0.01-0.09,0.01-0.16,0.04-0.22c0.04-0.08,0.1-0.13,0.17-0.15c0.06-0.03,0.15-0.05,0.25-0.07l1.69-0.09
	c0.11,0.55,0.11,1.12,0.01,1.7C54.22,150.3,54.02,150.85,53.73,151.38z"/>
<path class="st0" d="M57.12,134.49c-0.4,0.76-0.71,1.41-0.91,1.97c-0.21,0.55-0.33,1.03-0.37,1.41c-0.04,0.39,0,0.71,0.12,0.95
	c0.11,0.24,0.29,0.43,0.51,0.57c0.45,0.26,0.84,0.32,1.19,0.18c0.35-0.15,0.65-0.44,0.91-0.87c0.31-0.52,0.49-1.03,0.52-1.52
	c0.04-0.5-0.03-1.05-0.2-1.64L57.12,134.49z M49.06,137.6c-0.39-1.88-0.08-3.68,0.94-5.39c0.37-0.62,0.8-1.11,1.3-1.48
	c0.49-0.37,1.02-0.62,1.58-0.74c0.56-0.12,1.14-0.12,1.74,0c0.61,0.12,1.21,0.36,1.81,0.71l6.68,3.97l-0.69,1.15
	c-0.14,0.24-0.29,0.41-0.43,0.5c-0.15,0.09-0.36,0.1-0.63,0.05l-0.9-0.23c0.08,0.41,0.14,0.8,0.17,1.16
	c0.03,0.36,0.02,0.72-0.02,1.06c-0.04,0.35-0.12,0.7-0.25,1.05c-0.12,0.35-0.29,0.71-0.51,1.09c-0.27,0.45-0.57,0.83-0.91,1.13
	c-0.35,0.31-0.72,0.52-1.13,0.65c-0.4,0.13-0.83,0.17-1.28,0.11c-0.45-0.06-0.91-0.23-1.38-0.51c-0.27-0.16-0.51-0.36-0.71-0.61
	c-0.22-0.25-0.38-0.54-0.51-0.89c-0.12-0.35-0.19-0.75-0.21-1.2c-0.02-0.45,0.03-0.96,0.15-1.52c0.12-0.57,0.32-1.19,0.6-1.88
	c0.27-0.69,0.63-1.44,1.09-2.26l-0.62-0.37c-0.71-0.42-1.32-0.58-1.84-0.48c-0.52,0.1-0.96,0.43-1.29,1
	c-0.25,0.41-0.4,0.79-0.47,1.12c-0.06,0.33-0.09,0.63-0.09,0.91c-0.01,0.28-0.01,0.53-0.02,0.76c0,0.22-0.06,0.44-0.19,0.64
	c-0.11,0.18-0.24,0.3-0.4,0.37c-0.17,0.07-0.34,0.1-0.51,0.1L49.06,137.6z"/>
<path class="st0" d="M73.69,106.76l-5.94-1.58c-0.27-0.06-0.58-0.15-0.93-0.26c-0.35-0.11-0.73-0.24-1.13-0.38
	c0.27,0.32,0.53,0.63,0.76,0.93c0.22,0.29,0.41,0.56,0.57,0.8l3.5,5.02L73.69,106.76z M82.33,105.85l-1.43,2.04
	c-0.16,0.23-0.35,0.38-0.56,0.44c-0.22,0.06-0.44,0.07-0.66,0.02l-3.64-0.97l-4.12,5.89l2.16,3.09c0.11,0.16,0.18,0.36,0.2,0.59
	s-0.05,0.47-0.21,0.69l-1.45,2.06l-10.29-15.55l1.89-2.69L82.33,105.85z"/>
<path class="st0" d="M79.41,91.86c-0.04-0.35-0.06-0.69-0.06-1.04c0-0.35,0.04-0.69,0.11-1.02c0.07-0.34,0.18-0.67,0.34-1
	c0.15-0.33,0.35-0.66,0.6-0.99c0.41-0.53,0.87-0.93,1.37-1.2c0.5-0.27,1.01-0.42,1.55-0.43c0.54-0.03,1.09,0.07,1.65,0.28
	c0.56,0.2,1.11,0.52,1.66,0.94l6.19,4.81L91,94.54l-6.19-4.81c-0.59-0.46-1.16-0.68-1.69-0.66c-0.54,0.02-1.03,0.3-1.46,0.86
	c-0.31,0.4-0.52,0.85-0.61,1.35c-0.09,0.5-0.1,1.02-0.03,1.59l7.03,5.46l-1.82,2.34l-9.72-7.56l1.11-1.43
	c0.24-0.3,0.53-0.39,0.89-0.27L79.41,91.86z"/>
<path class="st0" d="M98.16,77.56c-0.52,0.68-0.93,1.28-1.23,1.79c-0.3,0.51-0.5,0.96-0.6,1.33c-0.1,0.38-0.11,0.7-0.04,0.96
	c0.07,0.26,0.21,0.48,0.41,0.65c0.4,0.34,0.78,0.46,1.15,0.38c0.37-0.09,0.72-0.33,1.04-0.71c0.39-0.46,0.65-0.93,0.77-1.41
	c0.12-0.49,0.15-1.04,0.08-1.65L98.16,77.56z M89.69,79.27c-0.07-1.92,0.54-3.64,1.83-5.15c0.47-0.55,0.98-0.96,1.53-1.24
	c0.54-0.28,1.11-0.43,1.68-0.46c0.57-0.03,1.14,0.07,1.72,0.3c0.58,0.22,1.13,0.56,1.66,1.01l5.92,5.04l-0.87,1.02
	c-0.18,0.21-0.35,0.35-0.51,0.42c-0.17,0.06-0.38,0.04-0.63-0.06l-0.85-0.37c0.01,0.42,0,0.81-0.03,1.18
	c-0.03,0.36-0.1,0.71-0.2,1.05c-0.1,0.34-0.24,0.67-0.42,1c-0.17,0.33-0.4,0.66-0.69,0.99c-0.34,0.4-0.7,0.72-1.09,0.96
	c-0.39,0.24-0.8,0.39-1.22,0.46c-0.42,0.06-0.85,0.03-1.28-0.11c-0.43-0.14-0.86-0.38-1.28-0.74c-0.24-0.2-0.44-0.44-0.6-0.72
	c-0.17-0.28-0.29-0.6-0.35-0.96c-0.06-0.36-0.06-0.77,0-1.22c0.06-0.45,0.19-0.94,0.4-1.47c0.22-0.54,0.52-1.12,0.91-1.75
	c0.38-0.63,0.87-1.31,1.45-2.04l-0.55-0.47c-0.63-0.53-1.2-0.79-1.73-0.78c-0.53,0.01-1.01,0.27-1.44,0.77
	c-0.31,0.37-0.53,0.71-0.65,1.02c-0.12,0.31-0.2,0.6-0.24,0.88c-0.05,0.27-0.1,0.52-0.14,0.74c-0.04,0.22-0.14,0.42-0.29,0.6
	c-0.13,0.16-0.29,0.26-0.46,0.3c-0.18,0.04-0.35,0.04-0.52,0.02L89.69,79.27z"/>
<path class="st0" d="M98.54,58.2l13.16,12.03l-2,2.19L96.54,60.39L98.54,58.2z"/>
<path class="st0" d="M116.1,47.86l6.51,15.78c0.09,0.21,0.12,0.4,0.09,0.58c-0.02,0.18-0.12,0.37-0.33,0.57l-1.54,1.58l-1.92-5.11
	l-11.62-4.41l1.82-1.86c0.16-0.17,0.33-0.26,0.5-0.27c0.18-0.02,0.34,0,0.48,0.05l6.39,2.6c0.22,0.09,0.42,0.19,0.61,0.3
	c0.2,0.11,0.4,0.22,0.6,0.33c-0.11-0.21-0.22-0.41-0.32-0.62c-0.11-0.21-0.21-0.42-0.3-0.63l-2.82-6.23
	c-0.07-0.16-0.09-0.32-0.07-0.5c0.03-0.18,0.11-0.34,0.24-0.47L116.1,47.86z"/>
<path class="st0" d="M128.37,39.48c0.03,0.15,0.03,0.27,0.01,0.37c-0.03,0.1-0.1,0.19-0.2,0.28c-0.1,0.1-0.25,0.18-0.42,0.23
	c-0.17,0.05-0.37,0.12-0.59,0.19c-0.23,0.07-0.47,0.17-0.73,0.31c-0.25,0.13-0.52,0.32-0.79,0.58c-0.43,0.4-0.68,0.81-0.75,1.22
	c-0.07,0.41,0.03,0.75,0.31,1.05c0.18,0.19,0.4,0.3,0.64,0.32c0.25,0.01,0.52-0.03,0.82-0.13c0.3-0.1,0.62-0.23,0.96-0.39
	c0.33-0.17,0.68-0.34,1.03-0.49c0.36-0.16,0.73-0.31,1.11-0.43c0.37-0.13,0.75-0.2,1.13-0.2c0.38-0.02,0.75,0.05,1.11,0.19
	c0.37,0.14,0.72,0.38,1.06,0.75c0.4,0.43,0.7,0.9,0.89,1.42c0.19,0.5,0.26,1.03,0.21,1.59c-0.06,0.55-0.24,1.11-0.55,1.68
	c-0.31,0.56-0.75,1.12-1.33,1.67c-0.31,0.29-0.64,0.55-0.99,0.77c-0.34,0.22-0.69,0.41-1.06,0.57c-0.36,0.15-0.72,0.27-1.08,0.36
	c-0.35,0.08-0.69,0.12-1.01,0.13l-0.27-1.29c-0.03-0.16-0.02-0.31,0.01-0.44c0.04-0.13,0.12-0.26,0.26-0.39s0.29-0.21,0.48-0.24
	c0.19-0.04,0.41-0.09,0.65-0.15c0.24-0.06,0.5-0.15,0.78-0.27c0.29-0.13,0.59-0.34,0.92-0.65c0.26-0.24,0.45-0.48,0.57-0.7
	c0.13-0.24,0.2-0.46,0.22-0.67c0.03-0.21,0.01-0.41-0.06-0.59c-0.07-0.19-0.17-0.35-0.3-0.49c-0.2-0.21-0.42-0.32-0.68-0.34
	c-0.25-0.02-0.52,0.02-0.83,0.12c-0.3,0.09-0.62,0.23-0.96,0.4c-0.34,0.17-0.69,0.33-1.06,0.5c-0.36,0.16-0.73,0.31-1.12,0.44
	c-0.38,0.12-0.77,0.18-1.16,0.18c-0.39,0-0.77-0.08-1.16-0.24c-0.39-0.16-0.76-0.45-1.14-0.84c-0.35-0.37-0.6-0.79-0.77-1.25
	c-0.17-0.47-0.23-0.96-0.18-1.47c0.05-0.52,0.22-1.05,0.5-1.59c0.28-0.55,0.7-1.09,1.25-1.61c0.62-0.58,1.28-1.01,1.98-1.28
	c0.7-0.27,1.37-0.4,2.02-0.39L128.37,39.48z"/>
<path class="st0" d="M135.55,29.82l8.12,9.25l-2.24,1.96l-8.12-9.25L135.55,29.82z M133.49,26.85c0.17,0.19,0.29,0.41,0.36,0.64
	c0.07,0.24,0.09,0.48,0.07,0.72c-0.02,0.24-0.08,0.47-0.18,0.7c-0.11,0.23-0.27,0.42-0.46,0.6c-0.19,0.17-0.41,0.29-0.65,0.37
	c-0.24,0.07-0.47,0.1-0.71,0.08s-0.47-0.07-0.7-0.17c-0.22-0.1-0.41-0.25-0.58-0.45c-0.17-0.2-0.3-0.42-0.38-0.65
	c-0.08-0.24-0.1-0.48-0.09-0.72c0.01-0.24,0.08-0.47,0.18-0.69c0.1-0.23,0.25-0.43,0.45-0.6c0.2-0.17,0.42-0.3,0.66-0.37
	c0.24-0.08,0.48-0.11,0.71-0.1c0.24,0.01,0.48,0.07,0.71,0.17S133.31,26.66,133.49,26.85z"/>
<path class="st0" d="M149.88,20.91c0.02,0.15,0.01,0.27-0.02,0.37c-0.04,0.09-0.11,0.18-0.21,0.27c-0.11,0.09-0.26,0.16-0.44,0.2
	c-0.17,0.04-0.38,0.09-0.6,0.15c-0.23,0.06-0.48,0.14-0.75,0.26c-0.26,0.11-0.54,0.29-0.83,0.52c-0.45,0.37-0.73,0.76-0.83,1.16
	c-0.1,0.4-0.02,0.75,0.24,1.06c0.17,0.2,0.37,0.32,0.62,0.36c0.25,0.02,0.52,0,0.82-0.07c0.31-0.08,0.64-0.19,0.99-0.33
	c0.34-0.15,0.7-0.29,1.07-0.42c0.37-0.14,0.75-0.26,1.14-0.36c0.38-0.1,0.76-0.15,1.14-0.13c0.38,0.01,0.75,0.1,1.1,0.26
	c0.36,0.16,0.7,0.43,1.01,0.82c0.38,0.46,0.64,0.95,0.79,1.48c0.15,0.52,0.19,1.05,0.1,1.6c-0.09,0.54-0.31,1.09-0.66,1.64
	c-0.34,0.54-0.82,1.06-1.44,1.57c-0.33,0.27-0.67,0.5-1.04,0.7c-0.35,0.2-0.72,0.36-1.1,0.5c-0.37,0.13-0.74,0.22-1.1,0.28
	c-0.36,0.06-0.7,0.08-1.02,0.06l-0.19-1.31c-0.02-0.16,0-0.31,0.04-0.44c0.05-0.13,0.14-0.26,0.29-0.37
	c0.14-0.12,0.31-0.19,0.5-0.21c0.19-0.03,0.41-0.06,0.66-0.11c0.24-0.04,0.51-0.12,0.8-0.22c0.29-0.11,0.62-0.3,0.96-0.59
	c0.27-0.22,0.48-0.44,0.62-0.66c0.14-0.23,0.23-0.45,0.27-0.66c0.04-0.21,0.04-0.41-0.02-0.59c-0.05-0.19-0.14-0.36-0.26-0.51
	c-0.18-0.22-0.4-0.35-0.65-0.38c-0.25-0.04-0.53-0.01-0.83,0.06c-0.3,0.07-0.63,0.18-0.98,0.34c-0.35,0.14-0.71,0.28-1.09,0.43
	c-0.37,0.14-0.75,0.26-1.14,0.36c-0.39,0.09-0.78,0.13-1.17,0.11c-0.38-0.03-0.77-0.13-1.15-0.32c-0.37-0.19-0.73-0.5-1.08-0.92
	c-0.32-0.39-0.55-0.82-0.68-1.3c-0.14-0.48-0.16-0.97-0.08-1.47c0.08-0.51,0.29-1.03,0.6-1.55c0.32-0.53,0.77-1.04,1.36-1.52
	c0.66-0.54,1.34-0.92,2.06-1.14c0.71-0.22,1.4-0.31,2.04-0.25L149.88,20.91z"/>
</svg>
