<?xml version="1.0" encoding="utf-8"?>
<!-- Generator: Adobe Illustrator 27.9.0, SVG Export Plug-In . SVG Version: 6.00 Build 0)  -->
<svg version="1.1" id="Layer_1" xmlns="http://www.w3.org/2000/svg" xmlns:xlink="http://www.w3.org/1999/xlink" x="0px" y="0px"
	 viewBox="0 0 155 178" style="enable-background:new 0 0 155 178;" xml:space="preserve">
<style type="text/css">
	.st0{fill:#FFFFFF;}
</style>
<path class="st0" d="M27.15,32.2c-0.78,1-1.67,1.79-2.66,2.37c-0.99,0.58-2.02,0.93-3.1,1.06c-1.08,0.13-2.17,0.03-3.28-0.3
	c-1.11-0.33-2.19-0.9-3.23-1.72l-5.21-4.07l10.69-13.67l5.21,4.07c1.04,0.81,1.85,1.72,2.44,2.73c0.59,1,0.95,2.04,1.08,3.12
	c0.14,1.07,0.04,2.16-0.28,3.26C28.49,30.15,27.94,31.2,27.15,32.2z M24.55,30.16c0.59-0.75,1.01-1.5,1.27-2.25
	c0.27-0.75,0.38-1.48,0.32-2.18c-0.05-0.71-0.25-1.38-0.61-2.02c-0.36-0.63-0.87-1.21-1.54-1.74l-2.66-2.08l-7.53,9.62l2.66,2.08
	c0.67,0.52,1.35,0.88,2.05,1.07c0.71,0.2,1.41,0.24,2.1,0.12c0.7-0.12,1.38-0.4,2.04-0.84C23.33,31.5,23.96,30.91,24.55,30.16z"/>
<path class="st0" d="M38.84,43.61c0.25-0.29,0.45-0.6,0.58-0.93c0.15-0.33,0.22-0.66,0.23-0.99c0-0.34-0.07-0.67-0.23-1
	c-0.15-0.33-0.39-0.64-0.72-0.93c-0.65-0.56-1.32-0.82-2.01-0.78c-0.69,0.05-1.38,0.37-2.07,0.95L38.84,43.61z M33.4,41.26
	c-0.38,0.51-0.65,1-0.82,1.46c-0.17,0.46-0.24,0.9-0.22,1.32c0.02,0.41,0.13,0.8,0.33,1.18c0.21,0.37,0.49,0.71,0.86,1.03
	c0.36,0.31,0.71,0.54,1.04,0.68c0.34,0.15,0.65,0.25,0.93,0.32c0.29,0.07,0.54,0.13,0.76,0.17c0.22,0.05,0.41,0.13,0.55,0.25
	c0.19,0.16,0.27,0.35,0.24,0.57L37,49.6c-0.5,0.08-0.99,0.08-1.47,0.01c-0.48-0.07-0.94-0.2-1.38-0.37
	c-0.43-0.17-0.84-0.39-1.24-0.64c-0.39-0.25-0.74-0.52-1.07-0.8c-0.65-0.56-1.16-1.19-1.53-1.88c-0.37-0.7-0.58-1.44-0.62-2.21
	c-0.04-0.78,0.08-1.58,0.38-2.4c0.3-0.83,0.81-1.65,1.52-2.46c0.55-0.63,1.17-1.14,1.86-1.52c0.69-0.38,1.41-0.62,2.15-0.7
	c0.75-0.08,1.5,0,2.26,0.23c0.77,0.24,1.5,0.66,2.19,1.27c0.59,0.51,1.05,1.07,1.38,1.69s0.52,1.26,0.56,1.93
	c0.05,0.67-0.06,1.35-0.31,2.05c-0.25,0.7-0.66,1.38-1.24,2.05c-0.29,0.34-0.53,0.54-0.71,0.59c-0.17,0.05-0.36-0.01-0.57-0.19
	L33.4,41.26z"/>
<path class="st0" d="M57.47,52.61l-11.98,5.64l-1.96-1.84l4.86-12.32l1.79,1.67c0.16,0.15,0.26,0.32,0.3,0.49
	c0.04,0.18,0.02,0.34-0.05,0.49l-2.76,6.42c-0.17,0.37-0.34,0.72-0.53,1.05c-0.18,0.33-0.37,0.66-0.57,0.98
	c0.31-0.21,0.63-0.42,0.95-0.62c0.32-0.2,0.66-0.4,1.03-0.58l6.27-3.14c0.15-0.08,0.31-0.11,0.49-0.08c0.18,0.02,0.34,0.1,0.48,0.24
	L57.47,52.61z"/>
<path class="st0" d="M62.24,65.86c0.27-0.27,0.49-0.56,0.65-0.88c0.17-0.32,0.27-0.64,0.3-0.97c0.03-0.33-0.02-0.67-0.15-1.01
	c-0.12-0.34-0.34-0.67-0.65-0.98c-0.6-0.61-1.25-0.92-1.95-0.93c-0.69,0-1.4,0.26-2.13,0.79L62.24,65.86z M57,63.1
	c-0.42,0.48-0.73,0.94-0.93,1.39c-0.2,0.45-0.31,0.88-0.32,1.3c-0.01,0.41,0.07,0.81,0.24,1.2c0.18,0.39,0.44,0.75,0.77,1.09
	c0.34,0.34,0.67,0.6,0.99,0.76c0.33,0.17,0.63,0.3,0.91,0.39c0.28,0.09,0.53,0.17,0.75,0.23c0.22,0.06,0.39,0.16,0.52,0.29
	c0.17,0.18,0.24,0.37,0.19,0.59l-0.17,1.36c-0.5,0.04-0.99,0-1.47-0.1c-0.47-0.11-0.92-0.27-1.35-0.48
	c-0.42-0.21-0.81-0.45-1.18-0.74c-0.37-0.28-0.7-0.57-1-0.88c-0.6-0.61-1.06-1.27-1.38-1.99c-0.31-0.73-0.46-1.48-0.45-2.25
	c0.02-0.78,0.21-1.57,0.57-2.36c0.37-0.8,0.94-1.58,1.7-2.34c0.6-0.59,1.25-1.05,1.97-1.37c0.72-0.33,1.45-0.51,2.19-0.53
	c0.75-0.02,1.5,0.11,2.24,0.4c0.74,0.3,1.44,0.78,2.09,1.43c0.55,0.55,0.96,1.15,1.24,1.79c0.28,0.64,0.42,1.3,0.41,1.97
	c0,0.67-0.16,1.34-0.47,2.02c-0.3,0.68-0.76,1.33-1.4,1.95c-0.32,0.31-0.57,0.49-0.75,0.54c-0.18,0.04-0.36-0.04-0.55-0.23L57,63.1z
	"/>
<path class="st0" d="M78.85,68.52L65.73,80.6l-2.01-2.18l13.12-12.08L78.85,68.52z"/>
<path class="st0" d="M84.07,82.47c0.59,0.7,1.01,1.42,1.27,2.18c0.26,0.76,0.36,1.52,0.28,2.28c-0.07,0.76-0.31,1.5-0.72,2.23
	c-0.41,0.73-0.99,1.4-1.72,2.03c-0.74,0.63-1.51,1.09-2.29,1.38c-0.78,0.29-1.56,0.41-2.33,0.36c-0.76-0.05-1.5-0.26-2.21-0.64
	c-0.71-0.38-1.36-0.91-1.95-1.61c-0.6-0.7-1.02-1.43-1.29-2.2s-0.36-1.53-0.28-2.3c0.08-0.76,0.32-1.51,0.73-2.24
	c0.41-0.73,0.99-1.41,1.73-2.04c0.74-0.63,1.5-1.08,2.28-1.37c0.79-0.28,1.56-0.4,2.32-0.35c0.76,0.06,1.5,0.28,2.21,0.66
	C82.82,81.22,83.47,81.77,84.07,82.47z M76.14,89.2c0.66,0.78,1.41,1.13,2.25,1.06c0.85-0.07,1.77-0.53,2.79-1.39
	c1.01-0.86,1.62-1.7,1.83-2.53c0.21-0.82-0.01-1.62-0.67-2.4c-0.67-0.79-1.44-1.15-2.3-1.08c-0.85,0.07-1.78,0.54-2.79,1.39
	c-1.01,0.85-1.61,1.7-1.82,2.52C75.23,87.6,75.47,88.41,76.14,89.2z"/>
<path class="st0" d="M87.76,100.72c-0.12,0.51-0.13,0.98-0.02,1.39c0.11,0.42,0.31,0.81,0.59,1.18c0.27,0.35,0.59,0.62,0.94,0.81
	s0.74,0.27,1.16,0.26c0.43-0.01,0.89-0.11,1.39-0.32c0.5-0.21,1.03-0.54,1.6-0.97c0.57-0.44,1.02-0.86,1.34-1.25
	c0.33-0.4,0.56-0.77,0.67-1.14c0.12-0.36,0.14-0.71,0.06-1.04c-0.07-0.33-0.23-0.65-0.46-0.96c-0.38-0.49-0.8-0.82-1.27-1.01
	c-0.47-0.19-1-0.29-1.61-0.31L87.76,100.72z M93.57,96.07c0.76,0.05,1.47,0.23,2.14,0.52c0.67,0.29,1.27,0.78,1.79,1.47
	c0.41,0.53,0.67,1.1,0.78,1.71c0.12,0.61,0.09,1.24-0.09,1.89c-0.17,0.64-0.5,1.29-0.99,1.94c-0.48,0.65-1.12,1.28-1.92,1.9
	c-0.73,0.56-1.48,0.98-2.25,1.26c-0.77,0.28-1.53,0.41-2.27,0.39c-0.73-0.01-1.43-0.18-2.09-0.5c-0.65-0.32-1.22-0.8-1.71-1.44
	c-0.42-0.55-0.69-1.07-0.83-1.59c-0.13-0.52-0.16-1.04-0.09-1.58l-4,3.07l-1.8-2.35l12.96-9.94l1.1,1.44
	c0.23,0.3,0.24,0.61,0.03,0.93L93.57,96.07z"/>
<path class="st0" d="M93.64,114.02l10.09-7.05l1.04,1.49c0.22,0.31,0.22,0.62-0.01,0.93l-0.64,0.68c0.32,0.04,0.63,0.1,0.93,0.17
	c0.3,0.08,0.59,0.19,0.86,0.32c0.27,0.14,0.53,0.31,0.77,0.51c0.25,0.21,0.48,0.46,0.69,0.76c0.44,0.64,0.64,1.28,0.57,1.93
	c-0.05,0.65-0.29,1.28-0.72,1.88c0.44-0.08,0.87-0.08,1.27-0.01c0.41,0.07,0.79,0.19,1.13,0.36c0.35,0.18,0.67,0.4,0.96,0.66
	c0.3,0.27,0.56,0.57,0.78,0.89c0.39,0.56,0.65,1.11,0.78,1.66c0.13,0.55,0.14,1.09,0.02,1.62c-0.12,0.52-0.37,1.03-0.73,1.51
	c-0.36,0.49-0.85,0.94-1.46,1.37l-6.42,4.49l-1.7-2.43l6.42-4.49c0.64-0.45,1.03-0.93,1.15-1.43c0.13-0.51,0.01-1.04-0.38-1.58
	c-0.17-0.25-0.38-0.45-0.62-0.61c-0.23-0.15-0.49-0.25-0.76-0.3c-0.27-0.05-0.56-0.03-0.86,0.05c-0.31,0.08-0.62,0.23-0.93,0.45
	l-6.42,4.49l-1.7-2.44l6.42-4.49c0.68-0.47,1.07-0.95,1.19-1.44c0.12-0.49,0-0.99-0.37-1.51c-0.25-0.35-0.57-0.62-0.96-0.81
	c-0.38-0.18-0.82-0.3-1.3-0.35l-7.39,5.16L93.64,114.02z"/>
<path class="st0" d="M117.03,135.54c0.32-0.21,0.59-0.45,0.81-0.73c0.23-0.27,0.4-0.57,0.49-0.89c0.1-0.32,0.11-0.66,0.05-1.02
	c-0.05-0.36-0.2-0.72-0.43-1.09c-0.47-0.72-1.04-1.15-1.72-1.3c-0.68-0.14-1.43-0.03-2.25,0.34L117.03,135.54z M112.45,131.76
	c-0.5,0.38-0.9,0.78-1.2,1.18c-0.29,0.4-0.48,0.8-0.58,1.2c-0.09,0.4-0.1,0.81-0.01,1.22c0.1,0.41,0.28,0.82,0.54,1.23
	c0.26,0.4,0.53,0.72,0.81,0.95c0.29,0.24,0.56,0.42,0.81,0.56c0.26,0.15,0.49,0.27,0.68,0.37c0.2,0.11,0.35,0.24,0.45,0.39
	c0.14,0.21,0.16,0.41,0.07,0.61l-0.44,1.3c-0.5-0.07-0.97-0.2-1.42-0.4c-0.44-0.2-0.84-0.45-1.22-0.74
	c-0.37-0.29-0.7-0.61-1.01-0.96c-0.3-0.35-0.57-0.7-0.81-1.07c-0.47-0.72-0.78-1.46-0.95-2.23c-0.16-0.77-0.15-1.54,0.01-2.3
	c0.17-0.76,0.52-1.49,1.03-2.2c0.52-0.71,1.24-1.36,2.14-1.95c0.71-0.46,1.44-0.77,2.21-0.94c0.77-0.18,1.52-0.2,2.25-0.07
	c0.74,0.13,1.44,0.41,2.11,0.85c0.67,0.44,1.25,1.05,1.75,1.82c0.42,0.65,0.71,1.32,0.86,2.01c0.15,0.69,0.15,1.36,0,2.01
	c-0.14,0.65-0.43,1.28-0.87,1.88c-0.43,0.6-1.02,1.15-1.76,1.63c-0.38,0.24-0.66,0.37-0.84,0.38c-0.18,0-0.34-0.11-0.49-0.34
	L112.45,131.76z"/>
<path class="st0" d="M123.49,142.94c0.34,0.08,0.67,0.19,0.99,0.32c0.33,0.13,0.63,0.29,0.91,0.47c0.29,0.19,0.56,0.41,0.81,0.68
	c0.26,0.26,0.49,0.56,0.71,0.92c0.35,0.58,0.55,1.15,0.62,1.71c0.08,0.56,0.02,1.1-0.16,1.6c-0.17,0.51-0.46,0.99-0.86,1.44
	c-0.39,0.45-0.88,0.85-1.47,1.21l-6.72,4.03l-1.52-2.54l6.72-4.03c0.65-0.39,1.05-0.83,1.23-1.34c0.18-0.51,0.09-1.07-0.27-1.67
	c-0.26-0.44-0.61-0.79-1.04-1.06c-0.43-0.26-0.92-0.47-1.47-0.6l-7.64,4.58l-1.52-2.54l10.56-6.33l0.93,1.55
	c0.2,0.33,0.17,0.64-0.07,0.93L123.49,142.94z"/>
<path class="st0" d="M123.62,165.21c-0.51-0.94-0.64-1.81-0.39-2.6c0.26-0.79,0.86-1.44,1.8-1.95l6.04-3.29l-0.6-1.11
	c-0.08-0.14-0.1-0.29-0.06-0.43c0.04-0.15,0.15-0.27,0.33-0.37l1.03-0.56l1.23,1.58l3.25-1.06c0.16-0.04,0.3-0.03,0.43,0.02
	s0.24,0.16,0.32,0.32l0.74,1.35l-3.4,1.85l1.57,2.89l-1.85,1.01l-1.57-2.89l-5.86,3.19c-0.34,0.18-0.56,0.41-0.66,0.67
	c-0.1,0.27-0.07,0.55,0.09,0.84c0.09,0.16,0.18,0.29,0.27,0.37c0.1,0.09,0.2,0.16,0.28,0.22c0.09,0.06,0.17,0.11,0.24,0.16
	c0.08,0.04,0.13,0.09,0.17,0.15c0.04,0.08,0.06,0.15,0.04,0.23c-0.01,0.07-0.03,0.15-0.08,0.25l-0.84,1.47
	c-0.52-0.21-1-0.51-1.43-0.92C124.27,166.2,123.91,165.74,123.62,165.21z"/>
</svg>
