<?xml version="1.0" encoding="utf-8"?>
<!-- Generator: Adobe Illustrator 27.9.0, SVG Export Plug-In . SVG Version: 6.00 Build 0)  -->
<svg version="1.1" id="Layer_1" xmlns="http://www.w3.org/2000/svg" xmlns:xlink="http://www.w3.org/1999/xlink" x="0px" y="0px"
	 viewBox="0 0 56 239" style="enable-background:new 0 0 56 239;" xml:space="preserve">
<style type="text/css">
	.st0{fill:#FFFFFF;}
</style>
<path class="st0" d="M26.2,20.86c-1.23,0.32-2.42,0.4-3.55,0.25c-1.14-0.15-2.17-0.5-3.11-1.05c-0.93-0.55-1.74-1.3-2.42-2.24
	c-0.68-0.94-1.18-2.05-1.51-3.33l-1.64-6.41l16.81-4.31l1.64,6.41c0.33,1.28,0.42,2.49,0.27,3.65c-0.14,1.15-0.49,2.19-1.04,3.13
	c-0.55,0.93-1.28,1.74-2.21,2.41C28.51,20.04,27.43,20.54,26.2,20.86z M25.38,17.65c0.92-0.24,1.72-0.57,2.38-1.01
	c0.67-0.43,1.2-0.94,1.59-1.53c0.39-0.59,0.64-1.25,0.75-1.97c0.1-0.72,0.05-1.49-0.16-2.31L29.1,7.55l-11.83,3.03l0.84,3.27
	c0.21,0.82,0.53,1.52,0.97,2.1c0.44,0.59,0.97,1.05,1.59,1.38c0.63,0.33,1.34,0.53,2.13,0.58C23.59,17.97,24.46,17.88,25.38,17.65z"
	/>
<path class="st0" d="M31.67,29.04L19.6,31.49l-0.59-2.92l12.07-2.45L31.67,29.04z M35.27,28.73c-0.25,0.05-0.5,0.05-0.74-0.01
	c-0.24-0.06-0.46-0.16-0.66-0.29c-0.2-0.13-0.37-0.3-0.52-0.51c-0.14-0.21-0.24-0.44-0.29-0.7c-0.05-0.25-0.05-0.5,0-0.75
	c0.06-0.24,0.15-0.46,0.28-0.66c0.13-0.2,0.3-0.37,0.5-0.52c0.2-0.14,0.43-0.23,0.68-0.28c0.26-0.05,0.51-0.05,0.76-0.01
	c0.25,0.06,0.47,0.15,0.67,0.28c0.2,0.13,0.37,0.3,0.5,0.5c0.15,0.21,0.25,0.44,0.3,0.69c0.05,0.26,0.05,0.51-0.01,0.76
	c-0.05,0.25-0.14,0.47-0.27,0.67c-0.13,0.21-0.3,0.38-0.5,0.53C35.76,28.58,35.53,28.68,35.27,28.73z"/>
<path class="st0" d="M29.47,41.92c0.06,0.36,0.16,0.67,0.3,0.92c0.15,0.25,0.32,0.45,0.52,0.6c0.2,0.15,0.43,0.25,0.69,0.3
	c0.26,0.05,0.54,0.06,0.83,0.01c0.6-0.1,1.04-0.36,1.33-0.78c0.3-0.41,0.39-0.98,0.27-1.7c-0.12-0.72-0.38-1.23-0.8-1.54
	c-0.41-0.3-0.91-0.4-1.51-0.3c-0.28,0.05-0.54,0.13-0.77,0.26c-0.23,0.13-0.42,0.3-0.57,0.51c-0.14,0.21-0.25,0.46-0.3,0.74
	C29.41,41.24,29.41,41.56,29.47,41.92z M23.09,46.35c0.24-0.04,0.42-0.14,0.55-0.31c0.13-0.17,0.21-0.38,0.25-0.64
	c0.05-0.26,0.06-0.56,0.05-0.9c-0.01-0.33-0.04-0.68-0.09-1.06c-0.04-0.37-0.08-0.75-0.13-1.15c-0.05-0.39-0.08-0.77-0.09-1.15
	c-0.23-0.29-0.49-0.52-0.77-0.69c-0.28-0.16-0.58-0.21-0.9-0.16c-0.21,0.03-0.4,0.12-0.57,0.25c-0.17,0.14-0.31,0.34-0.4,0.59
	c-0.1,0.26-0.15,0.58-0.16,0.96c-0.02,0.38,0.02,0.84,0.1,1.38c0.09,0.54,0.21,1.01,0.36,1.39c0.14,0.38,0.31,0.69,0.5,0.92
	c0.18,0.24,0.39,0.4,0.61,0.48C22.63,46.36,22.85,46.39,23.09,46.35z M35.85,47.26l-1.09,0.18c-0.35,0.06-0.59-0.12-0.74-0.52
	l-0.38-1.06c-0.39,0.23-0.84,0.39-1.33,0.47c-0.6,0.1-1.16,0.06-1.69-0.1c-0.52-0.16-0.98-0.42-1.39-0.79
	c-0.41-0.37-0.76-0.83-1.04-1.39c-0.28-0.55-0.47-1.16-0.58-1.83c-0.04-0.24-0.06-0.47-0.08-0.69c-0.01-0.23-0.02-0.45-0.01-0.67
	c-0.29-0.34-0.58-0.49-0.86-0.44c-0.24,0.04-0.41,0.18-0.49,0.42c-0.07,0.25-0.1,0.56-0.09,0.94c0.01,0.38,0.05,0.81,0.11,1.28
	c0.07,0.47,0.12,0.96,0.17,1.47s0.05,1,0.02,1.49c-0.02,0.49-0.1,0.94-0.26,1.34c-0.15,0.41-0.4,0.75-0.73,1.03
	c-0.33,0.29-0.78,0.48-1.35,0.57c-0.54,0.09-1.08,0.04-1.63-0.15c-0.55-0.18-1.06-0.49-1.54-0.93c-0.48-0.43-0.89-1-1.25-1.69
	c-0.36-0.69-0.62-1.5-0.77-2.43c-0.15-0.92-0.19-1.73-0.12-2.44c0.06-0.71,0.21-1.31,0.43-1.81c0.22-0.5,0.5-0.89,0.85-1.17
	c0.35-0.28,0.74-0.46,1.15-0.53c0.57-0.09,1.07,0,1.5,0.28c0.44,0.28,0.83,0.71,1.16,1.27c0.11-0.35,0.29-0.64,0.54-0.88
	c0.25-0.23,0.59-0.39,1.04-0.46c0.18-0.03,0.37-0.03,0.57,0c0.21,0.04,0.42,0.11,0.63,0.2c0.21,0.1,0.42,0.24,0.61,0.41
	c0.21,0.17,0.4,0.38,0.58,0.62c0.23-0.67,0.59-1.23,1.09-1.67c0.5-0.44,1.12-0.72,1.86-0.84c0.6-0.1,1.16-0.07,1.68,0.09
	c0.53,0.17,1,0.43,1.41,0.8c0.42,0.38,0.77,0.84,1.04,1.4c0.28,0.56,0.47,1.19,0.59,1.89c0.08,0.52,0.11,1.02,0.07,1.5
	c-0.03,0.47-0.11,0.92-0.26,1.33L35.85,47.26z"/>
<path class="st0" d="M37.23,57.11l-12.22,1.51l-0.36-2.95l12.22-1.51L37.23,57.11z M40.84,57.07c-0.25,0.03-0.5,0.01-0.73-0.07
	c-0.24-0.08-0.45-0.19-0.64-0.34c-0.19-0.15-0.35-0.33-0.48-0.55c-0.12-0.22-0.2-0.46-0.23-0.72c-0.03-0.25-0.01-0.5,0.05-0.74
	c0.08-0.23,0.19-0.45,0.33-0.63c0.15-0.19,0.32-0.35,0.53-0.48c0.21-0.12,0.44-0.2,0.7-0.23c0.26-0.03,0.51-0.02,0.76,0.05
	c0.24,0.07,0.46,0.19,0.65,0.33c0.19,0.15,0.34,0.32,0.47,0.54c0.13,0.22,0.21,0.45,0.24,0.71c0.03,0.26,0.01,0.51-0.06,0.76
	c-0.07,0.24-0.17,0.46-0.32,0.64c-0.15,0.2-0.33,0.36-0.54,0.49C41.34,56.96,41.1,57.04,40.84,57.07z"/>
<path class="st0" d="M26.96,69.8c-0.09-1.07,0.13-1.92,0.68-2.54c0.56-0.62,1.36-0.98,2.42-1.07l6.85-0.6l-0.11-1.26
	c-0.01-0.16,0.03-0.3,0.12-0.42c0.09-0.12,0.24-0.19,0.45-0.21l1.17-0.1l0.5,1.94l3.4,0.33c0.16,0.03,0.29,0.09,0.39,0.19
	c0.1,0.1,0.15,0.24,0.17,0.42l0.13,1.53l-3.86,0.34l0.29,3.28l-2.1,0.19l-0.29-3.28l-6.65,0.59c-0.38,0.03-0.67,0.15-0.87,0.35
	c-0.2,0.21-0.28,0.48-0.25,0.81c0.02,0.18,0.05,0.33,0.1,0.45c0.06,0.12,0.12,0.23,0.17,0.31c0.06,0.09,0.11,0.17,0.15,0.24
	c0.05,0.07,0.08,0.14,0.09,0.21c0.01,0.09-0.01,0.16-0.05,0.22c-0.03,0.06-0.09,0.12-0.18,0.2l-1.36,1.01
	c-0.4-0.4-0.71-0.87-0.94-1.41C27.16,70.97,27.01,70.4,26.96,69.8z"/>
<path class="st0" d="M33.74,85.97c-0.08-0.85-0.19-1.57-0.33-2.15c-0.13-0.58-0.29-1.04-0.47-1.38c-0.18-0.34-0.39-0.59-0.62-0.73
	c-0.23-0.14-0.48-0.21-0.74-0.19c-0.52,0.02-0.88,0.19-1.09,0.51c-0.21,0.32-0.3,0.73-0.28,1.23c0.03,0.61,0.16,1.13,0.4,1.55
	c0.25,0.44,0.6,0.86,1.07,1.26L33.74,85.97z M38.74,78.93c1.36,1.35,2.09,3.02,2.19,5.01c0.03,0.72-0.05,1.37-0.27,1.95
	c-0.2,0.58-0.51,1.07-0.91,1.49c-0.4,0.41-0.88,0.73-1.46,0.96c-0.57,0.24-1.21,0.37-1.9,0.4l-7.77,0.37l-0.06-1.34
	c-0.01-0.28,0.02-0.5,0.09-0.65c0.08-0.16,0.25-0.28,0.5-0.38l0.87-0.31c-0.29-0.3-0.56-0.59-0.79-0.88
	c-0.22-0.29-0.41-0.58-0.57-0.9c-0.16-0.31-0.28-0.65-0.37-1.02c-0.1-0.36-0.16-0.75-0.18-1.19c-0.03-0.52,0.02-1,0.13-1.45
	c0.12-0.45,0.32-0.84,0.58-1.17c0.26-0.33,0.6-0.6,1.01-0.79c0.41-0.2,0.89-0.31,1.44-0.33c0.31-0.01,0.62,0.02,0.93,0.11
	c0.32,0.09,0.62,0.24,0.91,0.46c0.29,0.23,0.57,0.52,0.84,0.88c0.27,0.36,0.5,0.81,0.71,1.35c0.21,0.54,0.39,1.17,0.54,1.9
	c0.15,0.72,0.27,1.55,0.34,2.48l0.72-0.03c0.82-0.04,1.42-0.24,1.8-0.61c0.38-0.37,0.56-0.89,0.53-1.55
	c-0.02-0.48-0.1-0.88-0.23-1.19c-0.13-0.31-0.27-0.58-0.42-0.81c-0.15-0.23-0.28-0.45-0.4-0.64c-0.12-0.19-0.19-0.4-0.2-0.64
	c-0.01-0.21,0.03-0.39,0.13-0.53c0.1-0.15,0.23-0.27,0.37-0.37L38.74,78.93z"/>
<path class="st0" d="M46.62,100.11l-17.83-0.03l0-2.96l17.83,0.03L46.62,100.11z"/>
<path class="st0" d="M44.51,133.39l-17.33-0.8l0.13-2.84l11.2,0.52c0.45,0.02,0.93,0.07,1.45,0.14l-9.6-5.69
	c-0.46-0.27-0.68-0.66-0.65-1.17l0.02-0.46c0.02-0.51,0.28-0.88,0.76-1.11l10.12-4.84c-0.26,0.01-0.53,0.02-0.78,0.02
	c-0.26,0-0.49,0-0.71-0.01l-11.2-0.52l0.13-2.84l17.33,0.8l-0.11,2.43c-0.01,0.14-0.02,0.27-0.03,0.37
	c-0.01,0.1-0.04,0.19-0.07,0.27c-0.04,0.09-0.09,0.16-0.17,0.22c-0.08,0.07-0.17,0.13-0.3,0.19l-9.87,4.75
	c-0.26,0.12-0.53,0.24-0.81,0.34c-0.28,0.11-0.56,0.21-0.86,0.31c0.29,0.12,0.57,0.25,0.84,0.39c0.27,0.13,0.54,0.27,0.79,0.42
	l9.37,5.56c0.12,0.07,0.21,0.14,0.28,0.22c0.07,0.08,0.12,0.15,0.15,0.24c0.03,0.09,0.04,0.19,0.05,0.29c0,0.1,0,0.23-0.01,0.37
	L44.51,133.39z"/>
<path class="st0" d="M32.26,146.41c0.03-0.86,0.01-1.58-0.05-2.17c-0.06-0.59-0.15-1.07-0.29-1.43c-0.14-0.36-0.31-0.63-0.52-0.8
	c-0.21-0.17-0.45-0.26-0.71-0.29c-0.52-0.04-0.9,0.08-1.15,0.36c-0.25,0.29-0.39,0.69-0.43,1.18c-0.05,0.61,0.02,1.14,0.2,1.59
	c0.19,0.46,0.49,0.93,0.9,1.39L32.26,146.41z M38.13,140.08c1.18,1.52,1.68,3.27,1.52,5.25c-0.06,0.72-0.23,1.35-0.52,1.9
	c-0.28,0.55-0.64,1-1.1,1.35c-0.45,0.36-0.97,0.61-1.57,0.76c-0.6,0.16-1.25,0.21-1.94,0.16l-7.75-0.63l0.11-1.34
	c0.02-0.28,0.08-0.49,0.17-0.64c0.1-0.14,0.28-0.25,0.54-0.32l0.91-0.19c-0.25-0.33-0.48-0.66-0.67-0.97
	c-0.18-0.31-0.33-0.63-0.45-0.96c-0.12-0.33-0.2-0.68-0.24-1.05c-0.05-0.37-0.06-0.77-0.02-1.21c0.04-0.52,0.15-0.99,0.32-1.42
	c0.18-0.43,0.42-0.79,0.73-1.08c0.31-0.3,0.67-0.52,1.1-0.66c0.43-0.14,0.92-0.19,1.47-0.15c0.31,0.03,0.61,0.1,0.91,0.23
	c0.3,0.13,0.58,0.32,0.84,0.57c0.26,0.26,0.5,0.59,0.71,0.99c0.22,0.4,0.39,0.87,0.53,1.43c0.14,0.57,0.23,1.22,0.29,1.95
	c0.06,0.74,0.06,1.57,0.01,2.51l0.72,0.06c0.82,0.07,1.44-0.06,1.86-0.38c0.43-0.32,0.67-0.81,0.72-1.47
	c0.04-0.48,0.02-0.88-0.07-1.21c-0.09-0.32-0.19-0.6-0.32-0.86c-0.12-0.25-0.22-0.48-0.32-0.69c-0.1-0.2-0.13-0.42-0.11-0.66
	c0.02-0.21,0.08-0.38,0.2-0.51c0.12-0.14,0.26-0.24,0.41-0.32L38.13,140.08z"/>
<path class="st0" d="M36.2,158.83c0.69,0.47,1.21,0.99,1.56,1.56c0.36,0.57,0.5,1.22,0.41,1.93c-0.07,0.56-0.24,1-0.53,1.32
	l-2.18-0.45c-0.14-0.06-0.23-0.13-0.29-0.21c-0.05-0.08-0.06-0.18-0.05-0.31c0.01-0.12,0.05-0.3,0.12-0.53
	c0.07-0.23,0.11-0.45,0.14-0.67c0.04-0.33,0.02-0.62-0.04-0.89c-0.07-0.26-0.18-0.51-0.34-0.74c-0.15-0.22-0.35-0.42-0.58-0.61
	c-0.24-0.18-0.51-0.36-0.82-0.53l-7.53-0.88l0.34-2.94l12.23,1.43l-0.2,1.73c-0.04,0.3-0.12,0.51-0.24,0.61
	c-0.12,0.11-0.32,0.16-0.6,0.17L36.2,158.83z"/>
<path class="st0" d="M41.23,173.3l-10.09-1.6l-0.09,0.54c-0.03,0.2-0.03,0.35,0,0.47c0.04,0.13,0.12,0.26,0.26,0.41l3.25,3.61
	c0.15,0.15,0.25,0.31,0.31,0.47c0.06,0.17,0.07,0.38,0.03,0.62l-0.42,2.68l-3.92-4.5c-0.31-0.32-0.54-0.66-0.68-1.01
	c-0.14,0.15-0.31,0.27-0.48,0.37c-0.18,0.11-0.37,0.21-0.57,0.3l-6.54,3.12l0.42-2.64c0.04-0.23,0.1-0.42,0.2-0.57
	c0.11-0.15,0.27-0.27,0.48-0.35l5.1-2.37c0.2-0.08,0.34-0.18,0.41-0.29c0.07-0.11,0.13-0.28,0.17-0.52l0.11-0.66l-5.57-0.88
	l0.46-2.93l17.61,2.79L41.23,173.3z"/>
<path class="st0" d="M20.5,189.22c0.2-1.05,0.65-1.81,1.35-2.26c0.7-0.44,1.58-0.56,2.62-0.36l6.75,1.31l0.24-1.24
	c0.03-0.16,0.11-0.28,0.23-0.37c0.12-0.09,0.29-0.12,0.49-0.08l1.15,0.22l-0.06,2l3.18,1.25c0.15,0.07,0.26,0.17,0.32,0.29
	c0.07,0.13,0.08,0.28,0.05,0.45l-0.29,1.51l-3.81-0.73l-0.62,3.23l-2.07-0.4l0.62-3.23l-6.55-1.27c-0.38-0.07-0.69-0.04-0.94,0.1
	c-0.25,0.15-0.4,0.38-0.47,0.71c-0.03,0.18-0.04,0.33-0.03,0.46c0.02,0.13,0.05,0.25,0.08,0.35c0.03,0.1,0.06,0.19,0.08,0.27
	c0.03,0.08,0.04,0.15,0.03,0.23c-0.02,0.09-0.05,0.15-0.11,0.2c-0.05,0.05-0.12,0.09-0.22,0.14l-1.58,0.6
	c-0.27-0.49-0.44-1.03-0.52-1.62C20.37,190.4,20.39,189.81,20.5,189.22z"/>
<path class="st0" d="M30.43,202.61l-12-2.74l0.66-2.9l12,2.74L30.43,202.61z M33.84,203.81c-0.25-0.06-0.47-0.16-0.67-0.31
	c-0.2-0.15-0.35-0.33-0.48-0.54c-0.13-0.2-0.21-0.43-0.26-0.68c-0.04-0.25-0.03-0.5,0.03-0.76c0.06-0.25,0.16-0.48,0.3-0.68
	c0.15-0.2,0.33-0.36,0.53-0.48c0.2-0.13,0.42-0.22,0.66-0.27c0.24-0.04,0.48-0.04,0.73,0.02c0.26,0.06,0.49,0.16,0.69,0.31
	c0.2,0.15,0.37,0.33,0.49,0.53s0.21,0.42,0.26,0.66c0.05,0.25,0.05,0.5-0.01,0.75c-0.06,0.26-0.16,0.49-0.32,0.69
	c-0.15,0.21-0.32,0.37-0.52,0.5c-0.2,0.13-0.43,0.23-0.68,0.28C34.35,203.87,34.1,203.87,33.84,203.81z"/>
<path class="st0" d="M26.19,211.03c0.19,0.3,0.35,0.6,0.49,0.91c0.15,0.32,0.26,0.65,0.33,0.98c0.08,0.34,0.12,0.69,0.12,1.05
	c0.01,0.36-0.04,0.75-0.13,1.15c-0.15,0.65-0.4,1.21-0.74,1.67c-0.33,0.46-0.74,0.81-1.22,1.05c-0.48,0.25-1.01,0.4-1.62,0.44
	c-0.59,0.05-1.23,0-1.9-0.15l-7.64-1.75l0.66-2.89l7.64,1.75c0.73,0.17,1.34,0.13,1.81-0.12c0.48-0.24,0.8-0.71,0.96-1.39
	c0.11-0.5,0.11-0.99-0.02-1.48c-0.13-0.49-0.34-0.97-0.64-1.45l-8.68-1.99l0.66-2.89l12,2.74l-0.4,1.77
	c-0.09,0.37-0.32,0.58-0.69,0.62L26.19,211.03z"/>
<path class="st0" d="M16.84,226.84c-0.08,0.36-0.11,0.68-0.07,0.97c0.04,0.29,0.13,0.54,0.26,0.75c0.13,0.22,0.31,0.4,0.53,0.54
	c0.22,0.15,0.47,0.26,0.76,0.32c0.59,0.14,1.1,0.06,1.53-0.22c0.43-0.27,0.73-0.76,0.89-1.47c0.16-0.71,0.11-1.28-0.16-1.72
	c-0.26-0.43-0.69-0.71-1.28-0.85c-0.28-0.06-0.55-0.08-0.81-0.05c-0.26,0.04-0.5,0.12-0.72,0.25c-0.21,0.14-0.4,0.33-0.56,0.57
	C17.03,226.18,16.92,226.48,16.84,226.84z M9.26,228.54c0.23,0.05,0.44,0.03,0.62-0.08c0.18-0.11,0.34-0.27,0.47-0.5
	c0.14-0.22,0.27-0.49,0.38-0.81c0.11-0.31,0.22-0.65,0.32-1.01c0.11-0.35,0.21-0.72,0.32-1.11c0.1-0.38,0.22-0.75,0.35-1.1
	c-0.11-0.36-0.26-0.67-0.45-0.93c-0.2-0.25-0.46-0.41-0.78-0.49c-0.21-0.05-0.42-0.04-0.62,0.02c-0.21,0.07-0.41,0.2-0.59,0.39
	c-0.19,0.2-0.36,0.48-0.51,0.83c-0.16,0.35-0.3,0.79-0.42,1.32c-0.12,0.54-0.19,1.01-0.19,1.42c-0.01,0.41,0.03,0.75,0.12,1.04
	c0.08,0.29,0.21,0.51,0.39,0.68C8.82,228.38,9.02,228.48,9.26,228.54z M20.73,234.19l-1.08-0.25c-0.34-0.08-0.51-0.33-0.49-0.76
	l0.05-1.12c-0.45,0.07-0.92,0.05-1.41-0.07c-0.59-0.14-1.1-0.38-1.53-0.73c-0.42-0.34-0.75-0.76-0.99-1.26
	c-0.24-0.5-0.39-1.06-0.44-1.68c-0.05-0.61,0-1.25,0.15-1.91c0.05-0.23,0.12-0.46,0.19-0.67c0.07-0.21,0.15-0.42,0.24-0.62
	c-0.14-0.43-0.35-0.67-0.63-0.74c-0.24-0.06-0.45,0.01-0.61,0.21c-0.16,0.2-0.31,0.48-0.44,0.83s-0.26,0.77-0.38,1.23
	c-0.11,0.47-0.25,0.94-0.4,1.42c-0.15,0.48-0.33,0.95-0.54,1.39c-0.2,0.45-0.45,0.83-0.74,1.15c-0.29,0.32-0.65,0.54-1.07,0.68
	c-0.41,0.14-0.9,0.15-1.47,0.02c-0.53-0.12-1.01-0.37-1.45-0.75c-0.44-0.37-0.8-0.85-1.07-1.44c-0.28-0.58-0.45-1.26-0.52-2.04
	c-0.08-0.77-0.01-1.62,0.2-2.54c0.21-0.9,0.48-1.67,0.81-2.3c0.32-0.63,0.69-1.14,1.08-1.51c0.39-0.38,0.8-0.63,1.23-0.76
	c0.43-0.13,0.85-0.15,1.27-0.05c0.56,0.13,0.99,0.4,1.29,0.82c0.3,0.43,0.5,0.97,0.59,1.61c0.24-0.28,0.51-0.49,0.83-0.61
	c0.32-0.12,0.7-0.14,1.14-0.04c0.18,0.04,0.36,0.11,0.53,0.22c0.18,0.11,0.35,0.25,0.51,0.42c0.16,0.17,0.29,0.38,0.41,0.61
	c0.13,0.23,0.23,0.5,0.3,0.79c0.47-0.53,1.01-0.91,1.64-1.14c0.62-0.22,1.3-0.24,2.04-0.08c0.59,0.13,1.1,0.38,1.52,0.72
	c0.43,0.35,0.76,0.78,1,1.28c0.25,0.51,0.39,1.07,0.44,1.69c0.05,0.63-0.01,1.28-0.17,1.97c-0.12,0.51-0.28,0.99-0.5,1.41
	c-0.2,0.43-0.45,0.81-0.74,1.14L20.73,234.19z"/>
</svg>
