<svg width="72" height="72" viewBox="0 0 72 72" fill="none" xmlns="http://www.w3.org/2000/svg">
<rect x="0.5" y="0.5" width="71" height="71" rx="35.5" fill="#666666"/>
<rect x="0.5" y="0.5" width="71" height="71" rx="35.5" stroke="#666666"/>
<path d="M38.1596 36.0003L31.1396 43.0203C30.8096 43.3503 30.6446 43.7703 30.6446 44.2803C30.6446 44.7903 30.8096 45.2103 31.1396 45.5403C31.4696 45.8703 31.8896 46.0353 32.3996 46.0353C32.9096 46.0353 33.3296 45.8703 33.6596 45.5403L41.9396 37.2603C42.1196 37.0803 42.2468 36.8853 42.3212 36.6753C42.3956 36.4653 42.4334 36.2403 42.4346 36.0003C42.4346 35.7603 42.3968 35.5353 42.3212 35.3253C42.2456 35.1153 42.1184 34.9203 41.9396 34.7403L33.6596 26.4603C33.3296 26.1303 32.9096 25.9653 32.3996 25.9653C31.8896 25.9653 31.4696 26.1303 31.1396 26.4603C30.8096 26.7903 30.6446 27.2103 30.6446 27.7203C30.6446 28.2303 30.8096 28.6503 31.1396 28.9803L38.1596 36.0003Z" fill="#C5C5C5"/>
</svg>
