<?xml version="1.0" encoding="utf-8"?>
<!-- Generator: Adobe Illustrator 27.9.0, SVG Export Plug-In . SVG Version: 6.00 Build 0)  -->
<svg version="1.1" id="Layer_1" xmlns="http://www.w3.org/2000/svg" xmlns:xlink="http://www.w3.org/1999/xlink" x="0px" y="0px"
	 viewBox="0 0 940 940" style="enable-background:new 0 0 940 940;" xml:space="preserve">
<style type="text/css">
	.st0{fill:#FFFFFF;}
</style>
<g id="Digital_Marketing">
	<path class="st0" d="M921.17,398.52c-1.08,0.28-2.11,0.35-3.1,0.22c-0.99-0.13-1.89-0.43-2.71-0.92c-0.82-0.48-1.52-1.14-2.11-1.96
		c-0.59-0.82-1.03-1.79-1.32-2.91l-1.43-5.59l14.67-3.76l1.43,5.59c0.29,1.12,0.36,2.18,0.23,3.18c-0.12,1-0.43,1.92-0.91,2.73
		c-0.48,0.81-1.12,1.52-1.93,2.1C923.19,397.81,922.25,398.24,921.17,398.52z M920.45,395.72c0.8-0.21,1.5-0.5,2.08-0.88
		c0.59-0.37,1.05-0.82,1.39-1.34c0.34-0.51,0.56-1.09,0.65-1.72c0.09-0.63,0.05-1.3-0.14-2.02l-0.73-2.85l-10.33,2.65l0.73,2.85
		c0.18,0.72,0.47,1.33,0.85,1.84c0.38,0.51,0.85,0.91,1.39,1.2c0.55,0.29,1.17,0.46,1.86,0.51
		C918.9,396,919.65,395.92,920.45,395.72z"/>
	<path class="st0" d="M925.94,405.66l-10.53,2.14l-0.52-2.55l10.53-2.14L925.94,405.66z M929.08,405.39
		c-0.22,0.04-0.43,0.04-0.64-0.01c-0.21-0.05-0.4-0.14-0.58-0.26c-0.17-0.11-0.32-0.26-0.45-0.44c-0.12-0.18-0.21-0.39-0.25-0.61
		c-0.04-0.22-0.05-0.44,0-0.65c0.05-0.21,0.13-0.4,0.25-0.57c0.11-0.17,0.26-0.32,0.43-0.45c0.17-0.12,0.37-0.2,0.59-0.25
		c0.23-0.05,0.45-0.05,0.66-0.01c0.22,0.05,0.41,0.13,0.58,0.24c0.17,0.11,0.32,0.26,0.44,0.43c0.13,0.18,0.22,0.38,0.26,0.6
		c0.05,0.23,0.04,0.45,0,0.66c-0.04,0.22-0.12,0.41-0.23,0.58c-0.11,0.18-0.26,0.33-0.44,0.46
		C929.51,405.25,929.31,405.34,929.08,405.39z"/>
	<path class="st0" d="M924.02,416.9c0.05,0.32,0.14,0.59,0.26,0.81c0.13,0.22,0.28,0.39,0.46,0.52c0.18,0.13,0.38,0.22,0.61,0.26
		c0.23,0.05,0.47,0.05,0.72,0.01c0.52-0.09,0.91-0.31,1.16-0.68c0.26-0.36,0.34-0.85,0.24-1.48c-0.1-0.63-0.33-1.07-0.7-1.34
		c-0.35-0.26-0.79-0.35-1.32-0.26c-0.25,0.04-0.47,0.12-0.67,0.23c-0.2,0.12-0.37,0.26-0.5,0.44c-0.13,0.18-0.21,0.4-0.27,0.65
		C923.97,416.31,923.97,416.59,924.02,416.9z M918.46,420.77c0.21-0.03,0.37-0.12,0.48-0.27c0.11-0.15,0.18-0.33,0.22-0.56
		c0.04-0.23,0.06-0.49,0.04-0.78c-0.01-0.29-0.04-0.6-0.08-0.92c-0.03-0.32-0.07-0.65-0.11-1c-0.04-0.34-0.07-0.68-0.08-1.01
		c-0.2-0.26-0.43-0.46-0.67-0.6c-0.24-0.14-0.5-0.18-0.79-0.14c-0.19,0.03-0.35,0.1-0.49,0.22c-0.15,0.12-0.27,0.29-0.35,0.51
		c-0.08,0.23-0.13,0.51-0.14,0.84c-0.02,0.34,0.01,0.74,0.09,1.21c0.08,0.48,0.18,0.88,0.31,1.21c0.13,0.33,0.27,0.6,0.44,0.8
		c0.16,0.21,0.34,0.35,0.54,0.42C918.05,420.78,918.25,420.8,918.46,420.77z M929.59,421.56l-0.95,0.15
		c-0.3,0.05-0.52-0.1-0.65-0.46l-0.33-0.92c-0.34,0.2-0.73,0.34-1.16,0.41c-0.52,0.09-1.02,0.06-1.48-0.09
		c-0.45-0.14-0.86-0.37-1.22-0.69c-0.36-0.32-0.66-0.73-0.91-1.21c-0.24-0.48-0.41-1.01-0.5-1.59c-0.03-0.21-0.06-0.41-0.07-0.6
		c-0.01-0.2-0.01-0.39-0.01-0.58c-0.25-0.3-0.5-0.43-0.75-0.39c-0.21,0.03-0.36,0.16-0.43,0.37c-0.06,0.22-0.09,0.49-0.08,0.82
		c0.01,0.33,0.04,0.7,0.1,1.12c0.06,0.41,0.11,0.84,0.14,1.28c0.04,0.44,0.04,0.87,0.02,1.3c-0.02,0.43-0.09,0.82-0.22,1.17
		c-0.13,0.35-0.35,0.65-0.64,0.9c-0.28,0.25-0.68,0.42-1.18,0.5c-0.47,0.08-0.94,0.03-1.42-0.13c-0.48-0.16-0.93-0.43-1.34-0.81
		c-0.42-0.38-0.78-0.87-1.09-1.48c-0.32-0.6-0.54-1.31-0.67-2.12c-0.13-0.8-0.16-1.51-0.1-2.13c0.06-0.62,0.18-1.14,0.38-1.58
		c0.19-0.43,0.44-0.78,0.75-1.02c0.31-0.25,0.64-0.4,1.01-0.46c0.5-0.08,0.93,0,1.31,0.24c0.39,0.25,0.72,0.62,1.01,1.11
		c0.1-0.31,0.26-0.56,0.47-0.77c0.21-0.2,0.52-0.34,0.91-0.4c0.16-0.03,0.32-0.02,0.5,0c0.18,0.03,0.37,0.09,0.55,0.18
		c0.18,0.09,0.36,0.21,0.54,0.36c0.18,0.15,0.35,0.33,0.5,0.54c0.2-0.58,0.52-1.07,0.95-1.46c0.43-0.38,0.97-0.63,1.62-0.73
		c0.52-0.09,1.01-0.06,1.47,0.08c0.46,0.14,0.87,0.38,1.23,0.7c0.36,0.33,0.67,0.74,0.91,1.22c0.24,0.49,0.41,1.04,0.51,1.65
		c0.07,0.45,0.1,0.89,0.06,1.31c-0.02,0.41-0.1,0.8-0.22,1.16L929.59,421.56z"/>
	<path class="st0" d="M930.8,430.15l-10.66,1.32l-0.32-2.58l10.66-1.32L930.8,430.15z M933.95,430.12
		c-0.22,0.03-0.44,0.01-0.64-0.06c-0.21-0.07-0.39-0.17-0.55-0.3c-0.16-0.13-0.3-0.29-0.42-0.48c-0.11-0.19-0.18-0.4-0.2-0.63
		c-0.03-0.22-0.01-0.44,0.05-0.65c0.07-0.21,0.16-0.39,0.29-0.55c0.13-0.16,0.28-0.3,0.47-0.42c0.18-0.11,0.39-0.17,0.61-0.2
		c0.23-0.03,0.45-0.01,0.66,0.05c0.21,0.07,0.4,0.16,0.56,0.29c0.16,0.13,0.3,0.28,0.41,0.47c0.11,0.19,0.19,0.4,0.21,0.62
		c0.03,0.23,0.01,0.45-0.06,0.66c-0.06,0.21-0.15,0.4-0.28,0.56c-0.13,0.17-0.29,0.31-0.47,0.43
		C934.39,430.02,934.18,430.09,933.95,430.12z"/>
	<path class="st0" d="M921.84,441.23c-0.08-0.93,0.12-1.67,0.59-2.22c0.49-0.54,1.19-0.85,2.12-0.93l5.98-0.53l-0.1-1.1
		c-0.01-0.14,0.02-0.26,0.1-0.37c0.08-0.11,0.21-0.17,0.39-0.18l1.02-0.09l0.43,1.7l2.97,0.29c0.14,0.02,0.26,0.08,0.34,0.17
		c0.09,0.09,0.13,0.21,0.15,0.37l0.12,1.34l-3.37,0.3l0.25,2.86l-1.84,0.16l-0.25-2.86l-5.8,0.51c-0.33,0.03-0.59,0.13-0.76,0.31
		c-0.17,0.18-0.25,0.42-0.22,0.7c0.01,0.16,0.04,0.29,0.09,0.39c0.05,0.11,0.1,0.2,0.15,0.27c0.05,0.08,0.09,0.15,0.13,0.21
		c0.05,0.06,0.07,0.12,0.08,0.18c0.01,0.08-0.01,0.14-0.05,0.19c-0.03,0.05-0.08,0.11-0.15,0.17l-1.18,0.88
		c-0.35-0.35-0.62-0.76-0.82-1.23C922.01,442.25,921.88,441.75,921.84,441.23z"/>
	<path class="st0" d="M927.75,455.34c-0.07-0.74-0.17-1.37-0.29-1.87c-0.12-0.5-0.25-0.91-0.41-1.21c-0.16-0.3-0.34-0.51-0.54-0.63
		c-0.2-0.12-0.42-0.18-0.65-0.17c-0.45,0.02-0.77,0.17-0.95,0.44c-0.18,0.28-0.26,0.64-0.24,1.07c0.03,0.53,0.14,0.98,0.35,1.36
		c0.21,0.38,0.53,0.75,0.93,1.1L927.75,455.34z M932.12,449.2c1.19,1.18,1.83,2.64,1.91,4.37c0.03,0.63-0.05,1.19-0.23,1.7
		c-0.18,0.5-0.44,0.94-0.8,1.3c-0.35,0.36-0.77,0.64-1.27,0.84c-0.5,0.21-1.05,0.32-1.66,0.35l-6.78,0.33l-0.06-1.17
		c-0.01-0.24,0.01-0.43,0.08-0.57c0.07-0.14,0.22-0.25,0.43-0.34l0.76-0.27c-0.26-0.26-0.49-0.51-0.69-0.76
		c-0.19-0.25-0.36-0.51-0.5-0.78c-0.14-0.27-0.25-0.57-0.33-0.89c-0.08-0.31-0.14-0.66-0.15-1.04c-0.02-0.45,0.02-0.87,0.12-1.26
		c0.11-0.39,0.28-0.73,0.51-1.02c0.23-0.29,0.52-0.52,0.88-0.69c0.36-0.17,0.77-0.27,1.25-0.29c0.27-0.01,0.54,0.02,0.81,0.1
		c0.28,0.08,0.54,0.21,0.8,0.4c0.25,0.2,0.5,0.45,0.73,0.77c0.23,0.32,0.44,0.71,0.62,1.18c0.18,0.47,0.34,1.03,0.47,1.66
		c0.14,0.63,0.23,1.35,0.29,2.17l0.63-0.03c0.72-0.03,1.24-0.21,1.57-0.54c0.33-0.32,0.49-0.77,0.46-1.35
		c-0.02-0.42-0.09-0.76-0.2-1.04c-0.11-0.27-0.23-0.5-0.37-0.71c-0.13-0.2-0.25-0.39-0.35-0.56c-0.11-0.16-0.16-0.35-0.17-0.56
		c-0.01-0.18,0.03-0.34,0.11-0.47c0.09-0.13,0.2-0.24,0.32-0.32L932.12,449.2z"/>
	<path class="st0" d="M939,467.69l-15.56-0.02l0-2.59L939,465.1L939,467.69z"/>
	<path class="st0" d="M937.15,496.73l-15.13-0.7l0.11-2.48l9.77,0.45c0.39,0.02,0.81,0.06,1.26,0.12l-8.38-4.97
		c-0.4-0.24-0.59-0.58-0.57-1.02l0.02-0.4c0.02-0.45,0.24-0.77,0.66-0.97l8.83-4.23c-0.23,0.01-0.46,0.02-0.68,0.02
		c-0.22,0-0.43,0-0.62-0.01l-9.77-0.45l0.11-2.48l15.13,0.7l-0.1,2.12c-0.01,0.13-0.01,0.23-0.03,0.32
		c-0.01,0.09-0.03,0.17-0.06,0.24c-0.03,0.08-0.08,0.14-0.15,0.19c-0.07,0.06-0.15,0.12-0.26,0.17l-8.61,4.14
		c-0.23,0.11-0.46,0.21-0.71,0.29c-0.24,0.09-0.49,0.18-0.75,0.27c0.25,0.11,0.5,0.22,0.73,0.34c0.24,0.12,0.47,0.24,0.69,0.37
		l8.17,4.85c0.1,0.06,0.18,0.12,0.24,0.19c0.06,0.07,0.1,0.13,0.13,0.21c0.02,0.08,0.04,0.16,0.04,0.25c0,0.09,0,0.2,0,0.32
		L937.15,496.73z"/>
	<path class="st0" d="M926.46,508.1c0.03-0.75,0.01-1.38-0.05-1.89c-0.05-0.52-0.13-0.93-0.26-1.25c-0.12-0.32-0.27-0.55-0.46-0.7
		c-0.18-0.15-0.39-0.23-0.62-0.25c-0.45-0.04-0.79,0.07-1,0.32c-0.22,0.26-0.34,0.6-0.38,1.03c-0.04,0.53,0.01,0.99,0.17,1.39
		c0.16,0.4,0.42,0.81,0.78,1.21L926.46,508.1z M931.59,502.57c1.03,1.32,1.47,2.85,1.33,4.58c-0.05,0.63-0.2,1.18-0.45,1.66
		c-0.24,0.48-0.56,0.87-0.96,1.18c-0.39,0.31-0.85,0.53-1.37,0.67c-0.52,0.14-1.09,0.19-1.69,0.14l-6.76-0.55l0.1-1.17
		c0.02-0.24,0.07-0.43,0.15-0.56c0.09-0.13,0.25-0.22,0.47-0.28l0.79-0.17c-0.22-0.29-0.42-0.57-0.58-0.85
		c-0.16-0.27-0.29-0.55-0.39-0.84c-0.1-0.29-0.17-0.6-0.21-0.92c-0.04-0.32-0.05-0.67-0.02-1.05c0.04-0.45,0.13-0.86,0.28-1.24
		c0.16-0.37,0.37-0.69,0.63-0.95c0.27-0.26,0.59-0.45,0.96-0.57c0.37-0.12,0.8-0.17,1.28-0.13c0.27,0.02,0.54,0.09,0.79,0.2
		c0.26,0.11,0.51,0.28,0.74,0.5c0.23,0.23,0.43,0.51,0.62,0.86c0.19,0.34,0.34,0.76,0.47,1.25c0.12,0.49,0.2,1.06,0.25,1.7
		c0.05,0.64,0.06,1.37,0.01,2.19l0.63,0.05c0.72,0.06,1.26-0.05,1.62-0.33c0.37-0.28,0.58-0.71,0.63-1.28
		c0.03-0.42,0.01-0.77-0.06-1.06c-0.08-0.28-0.17-0.53-0.28-0.75c-0.1-0.22-0.19-0.42-0.28-0.6c-0.08-0.18-0.12-0.37-0.1-0.58
		c0.01-0.18,0.07-0.33,0.17-0.45c0.11-0.12,0.23-0.21,0.36-0.28L931.59,502.57z"/>
	<path class="st0" d="M929.9,518.93c0.6,0.41,1.05,0.86,1.36,1.36c0.31,0.5,0.43,1.06,0.36,1.69c-0.06,0.49-0.21,0.88-0.46,1.15
		l-1.91-0.39c-0.12-0.05-0.2-0.11-0.25-0.19c-0.04-0.07-0.06-0.16-0.04-0.27c0.01-0.1,0.05-0.26,0.11-0.46
		c0.06-0.2,0.1-0.39,0.12-0.59c0.03-0.28,0.02-0.54-0.04-0.77c-0.06-0.23-0.16-0.45-0.29-0.65c-0.13-0.19-0.3-0.37-0.51-0.53
		c-0.21-0.16-0.45-0.31-0.72-0.46l-6.57-0.77l0.3-2.57l10.67,1.25l-0.18,1.51c-0.03,0.26-0.1,0.44-0.21,0.53
		c-0.1,0.09-0.28,0.14-0.52,0.15L929.9,518.93z"/>
	<path class="st0" d="M934.29,531.56l-8.8-1.39l-0.08,0.48c-0.03,0.17-0.03,0.31,0,0.41c0.03,0.11,0.11,0.23,0.23,0.36l2.84,3.15
		c0.13,0.13,0.22,0.27,0.27,0.41c0.05,0.15,0.06,0.33,0.03,0.55l-0.37,2.34l-3.42-3.92c-0.27-0.28-0.47-0.58-0.59-0.88
		c-0.13,0.13-0.27,0.24-0.42,0.33c-0.16,0.1-0.32,0.18-0.5,0.26l-5.71,2.72l0.37-2.31c0.03-0.2,0.09-0.37,0.18-0.5
		c0.09-0.13,0.23-0.24,0.42-0.31l4.45-2.07c0.17-0.07,0.29-0.16,0.36-0.25c0.06-0.1,0.11-0.25,0.15-0.45l0.09-0.58l-4.86-0.77
		l0.4-2.56l15.37,2.44L934.29,531.56z"/>
	<path class="st0" d="M916.2,545.46c0.18-0.92,0.57-1.58,1.18-1.97c0.62-0.39,1.38-0.49,2.29-0.32l5.89,1.14l0.21-1.08
		c0.03-0.14,0.09-0.25,0.2-0.32c0.11-0.08,0.25-0.1,0.43-0.07l1.01,0.2l-0.05,1.75l2.78,1.09c0.13,0.06,0.22,0.15,0.28,0.26
		c0.06,0.11,0.07,0.24,0.04,0.39l-0.25,1.32l-3.32-0.64l-0.54,2.82l-1.81-0.35l0.54-2.82l-5.72-1.11c-0.33-0.06-0.6-0.03-0.82,0.09
		c-0.22,0.13-0.35,0.33-0.41,0.62c-0.03,0.16-0.04,0.29-0.02,0.4c0.02,0.12,0.04,0.22,0.07,0.3c0.03,0.09,0.05,0.17,0.07,0.24
		c0.03,0.07,0.04,0.14,0.03,0.2c-0.01,0.08-0.05,0.13-0.1,0.17c-0.04,0.04-0.11,0.08-0.19,0.12l-1.38,0.52
		c-0.24-0.43-0.39-0.9-0.45-1.41C916.08,546.49,916.1,545.97,916.2,545.46z"/>
	<path class="st0" d="M924.87,557.14l-10.48-2.39l0.58-2.53l10.48,2.39L924.87,557.14z M927.84,558.19
		c-0.22-0.05-0.41-0.14-0.58-0.27s-0.31-0.29-0.42-0.47c-0.11-0.18-0.19-0.37-0.23-0.59c-0.04-0.22-0.03-0.44,0.02-0.66
		c0.05-0.22,0.14-0.42,0.26-0.59c0.13-0.17,0.29-0.31,0.46-0.42c0.18-0.11,0.37-0.19,0.58-0.23c0.21-0.04,0.42-0.03,0.64,0.02
		c0.22,0.05,0.43,0.14,0.6,0.27c0.18,0.13,0.32,0.29,0.43,0.46s0.18,0.37,0.22,0.58c0.04,0.22,0.04,0.44-0.01,0.65
		c-0.05,0.22-0.14,0.43-0.28,0.6c-0.13,0.18-0.28,0.32-0.45,0.43c-0.18,0.12-0.37,0.2-0.59,0.24
		C928.29,558.24,928.06,558.24,927.84,558.19z"/>
	<path class="st0" d="M921.16,564.49c0.16,0.26,0.31,0.53,0.43,0.8c0.13,0.28,0.23,0.56,0.29,0.85c0.07,0.29,0.1,0.6,0.1,0.91
		c0.01,0.32-0.03,0.65-0.11,1.01c-0.13,0.57-0.35,1.06-0.64,1.45c-0.29,0.4-0.65,0.7-1.07,0.92c-0.42,0.22-0.89,0.35-1.41,0.39
		c-0.52,0.05-1.07,0-1.66-0.13l-6.67-1.52l0.58-2.52l6.67,1.52c0.64,0.15,1.17,0.11,1.58-0.1c0.42-0.21,0.7-0.62,0.84-1.22
		c0.1-0.44,0.09-0.87-0.02-1.29c-0.11-0.43-0.3-0.85-0.56-1.27l-7.58-1.73l0.58-2.52l10.48,2.39l-0.35,1.54
		c-0.07,0.33-0.28,0.51-0.61,0.54L921.16,564.49z"/>
	<path class="st0" d="M913,578.29c-0.07,0.31-0.09,0.59-0.06,0.84c0.04,0.25,0.11,0.47,0.23,0.65c0.11,0.19,0.27,0.35,0.46,0.47
		c0.19,0.13,0.41,0.22,0.67,0.28c0.52,0.12,0.96,0.05,1.33-0.19c0.38-0.24,0.64-0.66,0.78-1.28c0.14-0.62,0.1-1.12-0.14-1.5
		c-0.23-0.37-0.6-0.62-1.12-0.74c-0.25-0.06-0.48-0.07-0.71-0.04c-0.23,0.03-0.44,0.11-0.63,0.22c-0.19,0.12-0.35,0.29-0.49,0.5
		C913.17,577.72,913.07,577.98,913,578.29z M906.38,579.77c0.2,0.05,0.38,0.02,0.54-0.07c0.16-0.09,0.29-0.24,0.41-0.43
		c0.12-0.19,0.23-0.43,0.33-0.71c0.1-0.27,0.19-0.57,0.28-0.88c0.09-0.31,0.18-0.63,0.28-0.97c0.09-0.33,0.19-0.65,0.31-0.96
		c-0.09-0.32-0.22-0.58-0.39-0.81c-0.17-0.22-0.4-0.36-0.68-0.42c-0.18-0.04-0.36-0.04-0.54,0.02c-0.19,0.06-0.36,0.17-0.52,0.34
		c-0.16,0.18-0.31,0.42-0.45,0.73c-0.14,0.3-0.26,0.69-0.37,1.15c-0.11,0.47-0.16,0.88-0.17,1.24c-0.01,0.36,0.03,0.66,0.1,0.91
		c0.07,0.25,0.18,0.45,0.34,0.59C906,579.63,906.18,579.73,906.38,579.77z M916.4,584.7l-0.94-0.21c-0.3-0.07-0.44-0.29-0.43-0.67
		l0.04-0.98c-0.39,0.06-0.8,0.04-1.23-0.06c-0.52-0.12-0.96-0.33-1.34-0.64c-0.37-0.3-0.66-0.67-0.87-1.1
		c-0.21-0.43-0.34-0.92-0.39-1.46c-0.04-0.53,0-1.09,0.13-1.67c0.05-0.2,0.1-0.4,0.17-0.58s0.13-0.37,0.21-0.54
		c-0.12-0.37-0.31-0.59-0.55-0.64c-0.21-0.05-0.39,0.01-0.53,0.18c-0.14,0.18-0.27,0.42-0.38,0.73c-0.11,0.31-0.22,0.67-0.33,1.07
		c-0.1,0.41-0.22,0.82-0.35,1.24c-0.13,0.42-0.29,0.83-0.47,1.21c-0.18,0.39-0.39,0.72-0.65,1c-0.26,0.28-0.57,0.48-0.93,0.59
		c-0.36,0.13-0.79,0.13-1.28,0.02c-0.46-0.11-0.89-0.32-1.27-0.66c-0.38-0.32-0.7-0.74-0.94-1.26c-0.24-0.51-0.39-1.1-0.45-1.78
		c-0.07-0.67-0.01-1.41,0.17-2.22c0.18-0.79,0.42-1.46,0.71-2.01c0.28-0.55,0.6-0.99,0.95-1.32c0.34-0.33,0.7-0.55,1.08-0.67
		c0.38-0.11,0.75-0.13,1.11-0.05c0.49,0.11,0.86,0.35,1.12,0.72c0.27,0.38,0.44,0.84,0.52,1.41c0.21-0.25,0.45-0.42,0.72-0.53
		c0.28-0.11,0.61-0.12,1-0.03c0.16,0.04,0.31,0.1,0.46,0.19c0.16,0.1,0.3,0.22,0.44,0.37c0.14,0.15,0.26,0.33,0.36,0.53
		c0.11,0.2,0.2,0.44,0.26,0.69c0.41-0.47,0.88-0.8,1.43-0.99c0.54-0.19,1.14-0.21,1.78-0.07c0.52,0.12,0.96,0.33,1.33,0.63
		c0.37,0.31,0.66,0.68,0.87,1.11c0.21,0.44,0.34,0.93,0.38,1.47c0.04,0.55-0.01,1.12-0.15,1.72c-0.1,0.45-0.25,0.86-0.43,1.23
		c-0.18,0.37-0.39,0.71-0.65,0.99L916.4,584.7z"/>
</g>
</svg>
