<?xml version="1.0" encoding="utf-8"?>
<!-- Generator: Adobe Illustrator 27.9.0, SVG Export Plug-In . SVG Version: 6.00 Build 0)  -->
<svg version="1.1" id="Layer_1" xmlns="http://www.w3.org/2000/svg" xmlns:xlink="http://www.w3.org/1999/xlink" x="0px" y="0px"
	 viewBox="0 0 940 940" style="enable-background:new 0 0 940 940;" xml:space="preserve">
<style type="text/css">
	.st0{fill:#F3F3F3;}
</style>
<g id="branding">
	<path class="st0" d="M25.2,564.3c-0.1-0.5-0.3-0.9-0.6-1.2c-0.2-0.3-0.5-0.5-0.7-0.7c-0.3-0.2-0.5-0.2-0.8-0.2s-0.6,0-0.9,0.1
		c-0.3,0.1-0.6,0.2-0.8,0.4s-0.4,0.4-0.5,0.7c-0.1,0.3-0.2,0.6-0.2,1c0,0.4,0.1,0.8,0.2,1.3l0.8,2.7l4.2-1.3L25.2,564.3z
		 M15.7,570.2l4.2-1.3l-0.7-2.1c-0.3-0.9-0.7-1.6-1.1-1.9s-1.1-0.5-1.8-0.2c-0.8,0.2-1.2,0.6-1.4,1.1s-0.1,1.2,0.1,2.2L15.7,570.2z
		 M12.9,568.6c-0.3-1-0.4-1.8-0.5-2.5c0-0.7,0.1-1.4,0.3-1.9c0.2-0.5,0.5-1,0.9-1.3c0.4-0.3,0.9-0.6,1.5-0.8c0.3-0.1,0.7-0.2,1-0.2
		c0.3,0,0.7,0.1,1,0.2c0.3,0.1,0.7,0.3,1,0.6c0.3,0.2,0.6,0.6,0.9,1c-0.2-2.1,0.6-3.5,2.3-4c0.6-0.2,1.2-0.2,1.8-0.2
		c0.6,0.1,1.1,0.3,1.7,0.6c0.5,0.3,1,0.8,1.4,1.4c0.4,0.6,0.8,1.3,1,2.1l1.7,5.5l-14.5,4.4L12.9,568.6z"/>
	<path class="st0" d="M14.9,551.8c-0.7-0.2-1.3-0.5-1.7-0.8c-0.5-0.4-0.8-0.8-0.9-1.5c-0.1-0.5-0.1-0.9,0-1.2l1.9-0.3
		c0.1,0,0.2,0,0.3,0.1c0.1,0,0.1,0.1,0.1,0.2c0,0.1,0,0.3,0.1,0.5c0,0.2,0,0.4,0.1,0.6c0.1,0.3,0.2,0.5,0.3,0.7
		c0.1,0.2,0.3,0.4,0.5,0.5c0.2,0.1,0.4,0.2,0.7,0.3c0.2,0.1,0.5,0.1,0.8,0.2l6.4-1.5l0.6,2.5l-10.4,2.5l-0.4-1.5
		c-0.1-0.3-0.1-0.5,0-0.6c0.1-0.1,0.2-0.2,0.4-0.3L14.9,551.8z"/>
	<path class="st0" d="M15.9,535.6c0.2,0.7,0.3,1.3,0.5,1.8c0.2,0.5,0.4,0.9,0.6,1.1c0.2,0.3,0.4,0.5,0.6,0.6
		c0.2,0.1,0.4,0.1,0.7,0.1c0.5-0.1,0.7-0.3,0.9-0.6c0.1-0.3,0.2-0.7,0.1-1.1c-0.1-0.5-0.3-1-0.5-1.3c-0.3-0.3-0.6-0.7-1.1-1
		L15.9,535.6z M12.3,542.2c-1.3-1-2.1-2.4-2.4-4.1c-0.1-0.6-0.1-1.2,0-1.7c0.1-0.5,0.3-1,0.6-1.4s0.7-0.7,1.1-1
		c0.5-0.3,1-0.5,1.6-0.6l6.7-1.2l0.2,1.2c0,0.2,0,0.4,0,0.6c0,0.1-0.2,0.3-0.4,0.4l-0.7,0.4c0.3,0.2,0.5,0.5,0.8,0.7
		c0.2,0.2,0.4,0.5,0.6,0.7c0.2,0.2,0.3,0.5,0.4,0.8c0.1,0.3,0.2,0.6,0.3,1c0.1,0.5,0.1,0.9,0,1.3c-0.1,0.4-0.2,0.8-0.4,1.1
		s-0.5,0.6-0.8,0.8c-0.3,0.2-0.7,0.4-1.2,0.5c-0.3,0-0.5,0-0.8,0c-0.3,0-0.6-0.1-0.8-0.3s-0.5-0.4-0.8-0.7s-0.5-0.7-0.8-1.1
		c-0.2-0.5-0.5-1-0.7-1.6c-0.2-0.6-0.4-1.3-0.6-2.1l-0.6,0.1c-0.7,0.1-1.2,0.4-1.5,0.7s-0.4,0.8-0.3,1.4c0.1,0.4,0.2,0.8,0.3,1
		c0.1,0.2,0.3,0.5,0.5,0.7c0.1,0.2,0.3,0.4,0.4,0.5s0.2,0.3,0.2,0.5c0,0.2,0,0.3-0.1,0.5c-0.1,0.1-0.2,0.3-0.3,0.4L12.3,542.2z"/>
	<path class="st0" d="M9.2,523.7c-0.2-0.2-0.5-0.4-0.7-0.6c-0.2-0.2-0.4-0.5-0.6-0.7c-0.2-0.3-0.3-0.5-0.4-0.8s-0.2-0.6-0.2-1
		c-0.1-0.6,0-1.1,0.1-1.6c0.1-0.5,0.4-0.9,0.7-1.2c0.3-0.3,0.7-0.6,1.2-0.8s1-0.3,1.6-0.4l6.8-0.8l0.3,2.6l-6.8,0.8
		c-0.6,0.1-1.1,0.3-1.5,0.6c-0.3,0.3-0.5,0.8-0.4,1.4c0.1,0.4,0.2,0.8,0.4,1.2s0.6,0.7,0.9,1l7.7-0.8l0.3,2.6l-10.7,1.2L8,524.7
		c0-0.3,0.1-0.6,0.4-0.7L9.2,523.7z"/>
	<path class="st0" d="M9.1,502.4c-0.3,0.3-0.6,0.6-0.7,1c-0.1,0.4-0.2,0.7-0.2,1.1c0,0.4,0.1,0.7,0.3,1s0.4,0.6,0.7,0.8
		c0.3,0.2,0.7,0.4,1.1,0.5s1,0.1,1.6,0.1c0.6,0,1.2-0.1,1.6-0.2c0.4-0.1,0.8-0.3,1.1-0.5c0.3-0.2,0.4-0.4,0.6-0.7
		c0.1-0.3,0.1-0.6,0.1-0.9c0-0.5-0.1-1-0.4-1.4s-0.6-0.7-1-1L9.1,502.4z M1.4,500.1l15.6-0.6L17,501c0,0.3-0.1,0.6-0.4,0.7l-1,0.3
		c0.5,0.4,0.9,0.9,1.3,1.5c0.3,0.5,0.5,1.2,0.5,1.9c0,0.6-0.1,1.1-0.3,1.6s-0.6,0.9-1,1.3c-0.4,0.4-1,0.7-1.7,0.9
		c-0.7,0.2-1.4,0.3-2.3,0.4c-0.8,0-1.5,0-2.2-0.2s-1.3-0.5-1.8-0.9c-0.5-0.4-0.9-0.9-1.2-1.4c-0.3-0.5-0.5-1.2-0.5-1.9
		c0-0.6,0.1-1.1,0.2-1.5c0.2-0.4,0.4-0.8,0.7-1.2l-5.7,0.2L1.4,500.1z"/>
	<path class="st0" d="M6.2,489.5l10.7,0.2l0,2.6l-10.7-0.2L6.2,489.5z M3.1,489.1c0.2,0,0.4,0,0.6,0.1c0.2,0.1,0.4,0.2,0.5,0.4
		c0.1,0.1,0.3,0.3,0.3,0.5c0.1,0.2,0.1,0.4,0.1,0.6c0,0.2-0.1,0.4-0.1,0.6c-0.1,0.2-0.2,0.4-0.4,0.5c-0.2,0.1-0.3,0.3-0.5,0.4
		c-0.2,0.1-0.4,0.1-0.6,0.1c-0.2,0-0.5,0-0.7-0.1c-0.2-0.1-0.4-0.2-0.5-0.4c-0.1-0.1-0.3-0.3-0.3-0.5c-0.1-0.2-0.1-0.4-0.1-0.6
		c0-0.2,0-0.5,0.1-0.6c0.1-0.2,0.2-0.4,0.4-0.5s0.3-0.3,0.5-0.4C2.6,489.2,2.9,489.1,3.1,489.1z"/>
	<path class="st0" d="M7.9,479c-0.2-0.2-0.4-0.5-0.6-0.7c-0.2-0.3-0.3-0.5-0.4-0.8s-0.2-0.6-0.2-0.9c-0.1-0.3-0.1-0.6,0-1
		c0-0.6,0.2-1.1,0.4-1.5s0.5-0.8,0.9-1.1c0.4-0.3,0.8-0.5,1.3-0.6c0.5-0.1,1.1-0.2,1.7-0.1l6.8,0.5l-0.2,2.6l-6.8-0.5
		c-0.6,0-1.2,0.1-1.6,0.3s-0.6,0.7-0.6,1.3c0,0.5,0,0.9,0.2,1.3c0.2,0.4,0.4,0.8,0.8,1.2l7.7,0.5l-0.2,2.6l-10.7-0.8l0.1-1.6
		c0-0.3,0.2-0.5,0.5-0.6L7.9,479z"/>
	<path class="st0" d="M13.5,461.1c0-0.3,0-0.6,0-0.9c-0.1-0.2-0.1-0.5-0.3-0.6c-0.1-0.2-0.3-0.3-0.5-0.4S12.3,459,12,459
		c-0.5-0.1-1,0-1.3,0.3c-0.4,0.3-0.6,0.7-0.7,1.4s0,1.1,0.3,1.5c0.3,0.4,0.6,0.6,1.2,0.6c0.2,0,0.5,0,0.7,0c0.2,0,0.4-0.1,0.6-0.3
		c0.2-0.1,0.3-0.3,0.4-0.5C13.4,461.7,13.5,461.4,13.5,461.1z M20,459.1c-0.2,0-0.4,0-0.5,0.1c-0.1,0.1-0.3,0.3-0.4,0.5
		c-0.1,0.2-0.2,0.5-0.3,0.7s-0.1,0.6-0.2,0.9c-0.1,0.3-0.1,0.6-0.2,1c-0.1,0.3-0.1,0.7-0.2,1c0.1,0.3,0.3,0.6,0.5,0.8
		c0.2,0.2,0.4,0.3,0.7,0.4c0.2,0,0.4,0,0.5-0.1c0.2-0.1,0.3-0.2,0.5-0.4s0.3-0.5,0.4-0.8c0.1-0.3,0.2-0.7,0.3-1.2
		c0.1-0.5,0.1-0.9,0.1-1.2s-0.1-0.6-0.2-0.9c-0.1-0.2-0.2-0.4-0.4-0.6C20.4,459.2,20.2,459.1,20,459.1z M9.6,455l0.9,0.1
		c0.3,0,0.5,0.2,0.5,0.6l0,1c0.4-0.1,0.8-0.1,1.2,0c0.5,0.1,1,0.2,1.4,0.5c0.4,0.3,0.7,0.6,1,1s0.4,0.9,0.5,1.4s0.1,1.1,0,1.7
		c0,0.2-0.1,0.4-0.1,0.6c-0.1,0.2-0.1,0.4-0.2,0.6c0.1,0.4,0.4,0.6,0.6,0.6c0.2,0,0.4,0,0.5-0.2c0.1-0.2,0.2-0.4,0.3-0.8
		s0.2-0.7,0.2-1.1c0.1-0.4,0.1-0.8,0.2-1.3c0.1-0.4,0.2-0.9,0.4-1.2c0.1-0.4,0.3-0.8,0.6-1s0.5-0.5,0.9-0.7c0.4-0.2,0.8-0.2,1.3-0.1
		c0.5,0.1,0.9,0.2,1.3,0.5s0.8,0.7,1,1.2c0.3,0.5,0.5,1.1,0.6,1.7c0.1,0.7,0.1,1.4,0,2.2c-0.1,0.8-0.3,1.5-0.5,2.1
		c-0.2,0.6-0.5,1-0.8,1.4c-0.3,0.4-0.6,0.6-1,0.8c-0.4,0.1-0.7,0.2-1.1,0.1c-0.5-0.1-0.9-0.3-1.2-0.6c-0.3-0.4-0.5-0.8-0.6-1.4
		c-0.2,0.3-0.4,0.5-0.7,0.6c-0.3,0.1-0.6,0.2-1,0.1c-0.2,0-0.3-0.1-0.5-0.1c-0.2-0.1-0.3-0.2-0.5-0.3c-0.1-0.1-0.3-0.3-0.4-0.5
		c-0.1-0.2-0.2-0.4-0.3-0.7c-0.4,0.5-0.8,0.9-1.3,1.1c-0.5,0.2-1.1,0.3-1.8,0.2c-0.5-0.1-1-0.2-1.4-0.5c-0.4-0.3-0.7-0.6-1-1
		c-0.2-0.4-0.4-0.9-0.5-1.4c-0.1-0.5-0.1-1.1,0-1.7c0.1-0.5,0.2-0.9,0.3-1.3c0.1-0.4,0.3-0.7,0.6-1L9.6,455z"/>
</g>
</svg>
