<?xml version="1.0" encoding="utf-8"?>
<!-- Generator: Adobe Illustrator 27.9.0, SVG Export Plug-In . SVG Version: 6.00 Build 0)  -->
<svg version="1.1" id="Layer_1" xmlns="http://www.w3.org/2000/svg" xmlns:xlink="http://www.w3.org/1999/xlink" x="0px" y="0px"
	 viewBox="0 0 940 940" style="enable-background:new 0 0 940 940;" xml:space="preserve">
<style type="text/css">
	.st0{fill:#F3F3F3;}
</style>
<g id="branding">
	<path class="st0" d="M45.5,602.5c-0.2-0.9-0.5-1.6-1.1-2.2c-0.4-0.5-0.9-0.9-1.3-1.3c-0.5-0.4-0.9-0.4-1.5-0.4
		c-0.5,0-1.1,0-1.6,0.2c-0.5,0.2-1.1,0.4-1.5,0.7c-0.4,0.4-0.7,0.7-0.9,1.3c-0.2,0.5-0.4,1.1-0.4,1.8c0,0.7,0.2,1.5,0.4,2.4l1.5,4.9
		l7.6-2.4L45.5,602.5z M28.2,613.3l7.6-2.4l-1.3-3.8c-0.5-1.6-1.3-2.9-2-3.5s-2-0.9-3.3-0.4c-1.5,0.4-2.2,1.1-2.5,2
		c-0.4,0.9-0.2,2.2,0.2,4L28.2,613.3z M23.1,610.4c-0.5-1.8-0.7-3.3-0.9-4.5c0-1.3,0.2-2.5,0.5-3.5c0.4-0.9,0.9-1.8,1.6-2.4
		c0.7-0.5,1.6-1.1,2.7-1.5c0.5-0.2,1.3-0.4,1.8-0.4c0.5,0,1.3,0.2,1.8,0.4c0.5,0.2,1.3,0.5,1.8,1.1c0.5,0.4,1.1,1.1,1.6,1.8
		c-0.4-3.8,1.1-6.4,4.2-7.3c1.1-0.4,2.2-0.4,3.3-0.4c1.1,0.2,2,0.5,3.1,1.1c0.9,0.5,1.8,1.5,2.5,2.5c0.7,1.1,1.5,2.4,1.8,3.8l3.1,10
		l-26.4,8L23.1,610.4z"/>
	<path class="st0" d="M26.7,579.8c-1.3-0.4-2.4-0.9-3.1-1.5c-0.9-0.7-1.5-1.5-1.6-2.7c-0.2-0.9-0.2-1.6,0-2.2l3.5-0.5
		c0.2,0,0.4,0,0.5,0.2c0.2,0,0.2,0.2,0.2,0.4c0,0.2,0,0.5,0.2,0.9c0,0.4,0,0.7,0.2,1.1c0.2,0.5,0.4,0.9,0.5,1.3
		c0.2,0.4,0.5,0.7,0.9,0.9s0.7,0.4,1.3,0.5c0.4,0.2,0.9,0.2,1.5,0.4l11.6-2.7l1.1,4.5l-18.9,4.5l-0.7-2.7c-0.2-0.5-0.2-0.9,0-1.1
		c0.2-0.2,0.4-0.4,0.7-0.5L26.7,579.8z"/>
	<path class="st0" d="M28.6,550.4c0.4,1.3,0.5,2.4,0.9,3.3c0.4,0.9,0.7,1.6,1.1,2c0.4,0.5,0.7,0.9,1.1,1.1c0.4,0.2,0.7,0.2,1.3,0.2
		c0.9-0.2,1.3-0.5,1.6-1.1c0.2-0.5,0.4-1.3,0.2-2c-0.2-0.9-0.5-1.8-0.9-2.4c-0.5-0.5-1.1-1.3-2-1.8L28.6,550.4z M22,562.4
		c-2.4-1.8-3.8-4.4-4.4-7.5c-0.2-1.1-0.2-2.2,0-3.1c0.2-0.9,0.5-1.8,1.1-2.5c0.5-0.7,1.3-1.3,2-1.8c0.9-0.5,1.8-0.9,2.9-1.1
		l12.2-2.2l0.4,2.2c0,0.4,0,0.7,0,1.1c0,0.2-0.4,0.5-0.7,0.7l-1.3,0.7c0.5,0.4,0.9,0.9,1.5,1.3c0.4,0.4,0.7,0.9,1.1,1.3
		c0.4,0.4,0.5,0.9,0.7,1.5c0.2,0.5,0.4,1.1,0.5,1.8c0.2,0.9,0.2,1.6,0,2.4c-0.2,0.7-0.4,1.5-0.7,2c-0.4,0.5-0.9,1.1-1.5,1.5
		c-0.5,0.4-1.3,0.7-2.2,0.9c-0.5,0-0.9,0-1.5,0c-0.5,0-1.1-0.2-1.5-0.5c-0.4-0.4-0.9-0.7-1.5-1.3c-0.5-0.5-0.9-1.3-1.5-2
		c-0.4-0.9-0.9-1.8-1.3-2.9c-0.4-1.1-0.7-2.4-1.1-3.8l-1.1,0.2c-1.3,0.2-2.2,0.7-2.7,1.3c-0.5,0.5-0.7,1.5-0.5,2.5
		c0.2,0.7,0.4,1.5,0.5,1.8c0.2,0.4,0.5,0.9,0.9,1.3c0.2,0.4,0.5,0.7,0.7,0.9c0.2,0.2,0.4,0.5,0.4,0.9c0,0.4,0,0.5-0.2,0.9
		c-0.2,0.2-0.4,0.5-0.5,0.7L22,562.4z"/>
	<path class="st0" d="M16.4,528.7c-0.4-0.4-0.9-0.7-1.3-1.1c-0.4-0.4-0.7-0.9-1.1-1.3c-0.4-0.5-0.5-0.9-0.7-1.5
		c-0.2-0.5-0.4-1.1-0.4-1.8c-0.2-1.1,0-2,0.2-2.9c0.2-0.9,0.7-1.6,1.3-2.2c0.5-0.5,1.3-1.1,2.2-1.5c0.9-0.4,1.8-0.5,2.9-0.7
		l12.4-1.5l0.5,4.7L20,520.5c-1.1,0.2-2,0.5-2.7,1.1c-0.5,0.5-0.9,1.5-0.7,2.5c0.2,0.7,0.4,1.5,0.7,2.2c0.4,0.7,1.1,1.3,1.6,1.8
		l14-1.5l0.5,4.7L14,533.6l0.2-3.1c0-0.5,0.2-1.1,0.7-1.3L16.4,528.7z"/>
	<path class="st0" d="M16.2,490c-0.5,0.5-1.1,1.1-1.3,1.8c-0.2,0.7-0.4,1.3-0.4,2c0,0.7,0.2,1.3,0.5,1.8c0.4,0.5,0.7,1.1,1.3,1.5
		c0.5,0.4,1.3,0.7,2,0.9c0.7,0.2,1.8,0.2,2.9,0.2s2.2-0.2,2.9-0.4c0.7-0.2,1.5-0.5,2-0.9c0.5-0.4,0.7-0.7,1.1-1.3
		c0.2-0.5,0.2-1.1,0.2-1.6c0-0.9-0.2-1.8-0.7-2.5c-0.5-0.7-1.1-1.3-1.8-1.8L16.2,490z M2.2,485.8l28.4-1.1v2.7
		c0,0.5-0.2,1.1-0.7,1.3l-1.8,0.5c0.9,0.7,1.6,1.6,2.4,2.7c0.5,0.9,0.9,2.2,0.9,3.5c0,1.1-0.2,2-0.5,2.9s-1.1,1.6-1.8,2.4
		s-1.8,1.3-3.1,1.6c-1.3,0.4-2.5,0.5-4.2,0.7c-1.5,0-2.7,0-4-0.4c-1.3-0.4-2.4-0.9-3.3-1.6s-1.6-1.6-2.2-2.5
		c-0.5-0.9-0.9-2.2-0.9-3.5c0-1.1,0.2-2,0.4-2.7c0.4-0.7,0.7-1.5,1.3-2.2l-10.4,0.4L2.2,485.8z"/>
	<path class="st0" d="M10.9,466.5l19.5,0.4v4.7l-19.5-0.4V466.5z M5.3,465.8c0.4,0,0.7,0,1.1,0.2c0.4,0.2,0.7,0.4,0.9,0.7
		c0.2,0.2,0.5,0.5,0.5,0.9C8,468,8,468.4,8,468.7c0,0.4-0.2,0.7-0.2,1.1c-0.2,0.4-0.4,0.7-0.7,0.9c-0.4,0.2-0.5,0.5-0.9,0.7
		c-0.4,0.2-0.7,0.2-1.1,0.2c-0.4,0-0.9,0-1.3-0.2c-0.4-0.2-0.7-0.4-0.9-0.7c-0.2-0.2-0.5-0.5-0.5-0.9c-0.2-0.4-0.2-0.7-0.2-1.1
		c0-0.4,0-0.9,0.2-1.1c0.2-0.4,0.4-0.7,0.7-0.9s0.5-0.5,0.9-0.7C4.4,466,4.9,465.8,5.3,465.8z"/>
	<path class="st0" d="M14,447.5c-0.4-0.4-0.7-0.9-1.1-1.3c-0.4-0.5-0.5-0.9-0.7-1.5c-0.2-0.5-0.4-1.1-0.4-1.6
		c-0.2-0.5-0.2-1.1,0-1.8c0-1.1,0.4-2,0.7-2.7s0.9-1.5,1.6-2c0.7-0.5,1.5-0.9,2.4-1.1c0.9-0.2,2-0.4,3.1-0.2l12.4,0.9l-0.4,4.7
		L19.3,440c-1.1,0-2.2,0.2-2.9,0.5c-0.7,0.4-1.1,1.3-1.1,2.4c0,0.9,0,1.6,0.4,2.4s0.7,1.5,1.5,2.2l14,0.9l-0.4,4.7l-19.5-1.5
		l0.2-2.9c0-0.5,0.4-0.9,0.9-1.1L14,447.5z"/>
	<path class="st0" d="M24.2,414.9c0-0.5,0-1.1,0-1.6c-0.2-0.4-0.2-0.9-0.5-1.1c-0.2-0.4-0.5-0.5-0.9-0.7s-0.7-0.4-1.3-0.4
		c-0.9-0.2-1.8,0-2.4,0.5c-0.7,0.5-1.1,1.3-1.3,2.5c-0.2,1.3,0,2,0.5,2.7s1.1,1.1,2.2,1.1c0.4,0,0.9,0,1.3,0c0.4,0,0.7-0.2,1.1-0.5
		c0.4-0.2,0.5-0.5,0.7-0.9C24,416,24.2,415.5,24.2,414.9z M36,411.3c-0.4,0-0.7,0-0.9,0.2c-0.2,0.2-0.5,0.5-0.7,0.9
		c-0.2,0.4-0.4,0.9-0.5,1.3c-0.2,0.4-0.2,1.1-0.4,1.6c-0.2,0.5-0.2,1.1-0.4,1.8c-0.2,0.5-0.2,1.3-0.4,1.8c0.2,0.5,0.5,1.1,0.9,1.5
		c0.4,0.4,0.7,0.5,1.3,0.7c0.4,0,0.7,0,0.9-0.2c0.4-0.2,0.5-0.4,0.9-0.7c0.4-0.4,0.5-0.9,0.7-1.5s0.4-1.3,0.5-2.2
		c0.2-0.9,0.2-1.6,0.2-2.2c0-0.5-0.2-1.1-0.4-1.6c-0.2-0.4-0.4-0.7-0.7-1.1C36.7,411.5,36.4,411.3,36,411.3z M17.1,403.8l1.6,0.2
		c0.5,0,0.9,0.4,0.9,1.1v1.8c0.7-0.2,1.5-0.2,2.2,0c0.9,0.2,1.8,0.4,2.5,0.9c0.7,0.5,1.3,1.1,1.8,1.8c0.5,0.7,0.7,1.6,0.9,2.5
		s0.2,2,0,3.1c0,0.4-0.2,0.7-0.2,1.1c-0.2,0.4-0.2,0.7-0.4,1.1c0.2,0.7,0.7,1.1,1.1,1.1s0.7,0,0.9-0.4c0.2-0.4,0.4-0.7,0.5-1.5
		c0.2-0.7,0.4-1.3,0.4-2c0.2-0.7,0.2-1.5,0.4-2.4c0.2-0.7,0.4-1.6,0.7-2.2c0.2-0.7,0.5-1.5,1.1-1.8c0.5-0.4,0.9-0.9,1.6-1.3
		s1.5-0.4,2.4-0.2c0.9,0.2,1.6,0.4,2.4,0.9c0.7,0.5,1.5,1.3,1.8,2.2c0.5,0.9,0.9,2,1.1,3.1c0.2,1.3,0.2,2.5,0,4
		c-0.2,1.5-0.5,2.7-0.9,3.8c-0.4,1.1-0.9,1.8-1.5,2.5c-0.5,0.7-1.1,1.1-1.8,1.5c-0.7,0.2-1.3,0.4-2,0.2c-0.9-0.2-1.6-0.5-2.2-1.1
		c-0.5-0.7-0.9-1.5-1.1-2.5c-0.4,0.5-0.7,0.9-1.3,1.1c-0.5,0.2-1.1,0.4-1.8,0.2c-0.4,0-0.5-0.2-0.9-0.2c-0.4-0.2-0.5-0.4-0.9-0.5
		c-0.2-0.2-0.5-0.5-0.7-0.9c-0.2-0.4-0.4-0.7-0.5-1.3c-0.7,0.9-1.5,1.6-2.4,2c-0.9,0.4-2,0.5-3.3,0.4c-0.9-0.2-1.8-0.4-2.5-0.9
		c-0.7-0.5-1.3-1.1-1.8-1.8c-0.4-0.7-0.7-1.6-0.9-2.5c-0.2-0.9-0.2-2,0-3.1c0.2-0.9,0.4-1.6,0.5-2.4c0.2-0.7,0.5-1.3,1.1-1.8
		L17.1,403.8z"/>
</g>
</svg>
