<?xml version="1.0" encoding="utf-8"?>
<!-- Generator: Adobe Illustrator 27.9.0, SVG Export Plug-In . SVG Version: 6.00 Build 0)  -->
<svg version="1.1" id="Layer_1" xmlns="http://www.w3.org/2000/svg" xmlns:xlink="http://www.w3.org/1999/xlink" x="0px" y="0px"
	 viewBox="0 0 940 940" style="enable-background:new 0 0 940 940;" xml:space="preserve">
<style type="text/css">
	.st0{fill:#FFFFFF;}
</style>
<g id="Development">
	<path class="st0" d="M785.28,135.93c-0.68,0.87-1.46,1.56-2.32,2.07c-0.86,0.5-1.77,0.81-2.71,0.93c-0.94,0.11-1.9,0.03-2.87-0.26
		c-0.97-0.29-1.91-0.79-2.82-1.5l-4.54-3.56l9.33-11.93l4.54,3.56c0.91,0.71,1.62,1.5,2.13,2.38c0.51,0.87,0.83,1.78,0.94,2.72
		c0.12,0.94,0.04,1.88-0.24,2.84C786.45,134.13,785.97,135.05,785.28,135.93z M783,134.14c0.51-0.65,0.88-1.31,1.11-1.96
		c0.24-0.66,0.33-1.29,0.28-1.91c-0.04-0.62-0.22-1.2-0.54-1.76c-0.31-0.55-0.76-1.06-1.34-1.51l-2.32-1.81l-6.57,8.4l2.32,1.81
		c0.58,0.46,1.18,0.77,1.79,0.94c0.62,0.17,1.23,0.21,1.83,0.1c0.61-0.1,1.21-0.35,1.78-0.73C781.94,135.32,782.49,134.8,783,134.14
		z"/>
	<path class="st0" d="M795.48,145.89c0.22-0.25,0.39-0.52,0.51-0.81c0.13-0.29,0.19-0.58,0.2-0.87c0-0.29-0.06-0.58-0.2-0.87
		c-0.13-0.29-0.34-0.56-0.63-0.81c-0.56-0.49-1.15-0.72-1.76-0.68c-0.6,0.04-1.2,0.32-1.8,0.83L795.48,145.89z M790.73,143.83
		c-0.33,0.44-0.57,0.87-0.72,1.28c-0.14,0.4-0.21,0.78-0.19,1.15c0.02,0.36,0.12,0.7,0.29,1.03c0.18,0.32,0.43,0.62,0.75,0.9
		c0.32,0.27,0.62,0.47,0.91,0.6c0.3,0.13,0.57,0.22,0.81,0.28c0.25,0.06,0.47,0.11,0.66,0.15c0.2,0.04,0.35,0.11,0.48,0.22
		c0.16,0.14,0.23,0.31,0.21,0.5l-0.06,1.2c-0.44,0.07-0.86,0.07-1.28,0.01c-0.42-0.06-0.82-0.17-1.2-0.32
		c-0.38-0.15-0.74-0.34-1.08-0.56c-0.34-0.22-0.65-0.45-0.93-0.7c-0.56-0.49-1.01-1.04-1.33-1.64c-0.32-0.61-0.5-1.25-0.55-1.93
		c-0.04-0.68,0.07-1.38,0.33-2.1c0.27-0.72,0.71-1.44,1.32-2.15c0.48-0.55,1.02-1,1.62-1.33c0.6-0.33,1.23-0.54,1.87-0.61
		c0.65-0.07,1.31,0,1.97,0.2c0.67,0.21,1.31,0.58,1.91,1.1c0.51,0.44,0.91,0.94,1.2,1.47c0.29,0.54,0.45,1.1,0.49,1.69
		c0.04,0.58-0.05,1.18-0.27,1.79c-0.21,0.61-0.58,1.21-1.08,1.79c-0.26,0.3-0.46,0.47-0.62,0.52c-0.15,0.05-0.31-0.01-0.49-0.17
		L790.73,143.83z"/>
	<path class="st0" d="M811.74,153.74l-10.46,4.92l-1.71-1.6l4.24-10.75l1.56,1.46c0.14,0.13,0.23,0.28,0.26,0.43
		c0.03,0.16,0.02,0.3-0.05,0.43l-2.41,5.61c-0.15,0.32-0.3,0.63-0.46,0.92c-0.16,0.29-0.32,0.58-0.5,0.85
		c0.27-0.19,0.55-0.37,0.83-0.55c0.28-0.18,0.58-0.35,0.89-0.51l5.47-2.74c0.13-0.07,0.27-0.09,0.43-0.07
		c0.15,0.02,0.29,0.09,0.42,0.21L811.74,153.74z"/>
	<path class="st0" d="M815.91,165.31c0.24-0.24,0.43-0.49,0.57-0.77c0.15-0.28,0.24-0.56,0.26-0.85c0.03-0.29-0.02-0.59-0.14-0.88
		c-0.11-0.3-0.29-0.58-0.56-0.86c-0.52-0.53-1.09-0.8-1.7-0.81c-0.6,0-1.22,0.23-1.86,0.69L815.91,165.31z M811.33,162.89
		c-0.36,0.42-0.63,0.82-0.82,1.22c-0.18,0.39-0.27,0.77-0.28,1.13c-0.01,0.36,0.06,0.71,0.21,1.05c0.16,0.34,0.38,0.65,0.68,0.95
		s0.58,0.52,0.86,0.66c0.29,0.15,0.55,0.26,0.79,0.34c0.25,0.08,0.46,0.15,0.65,0.2c0.19,0.06,0.34,0.14,0.46,0.25
		c0.15,0.15,0.21,0.32,0.17,0.51l-0.15,1.19c-0.44,0.03-0.87,0-1.28-0.09c-0.41-0.1-0.8-0.23-1.17-0.41
		c-0.36-0.18-0.71-0.39-1.03-0.64c-0.32-0.24-0.61-0.5-0.88-0.77c-0.52-0.53-0.93-1.11-1.2-1.74c-0.27-0.63-0.4-1.29-0.39-1.97
		c0.01-0.68,0.18-1.37,0.49-2.06c0.32-0.7,0.82-1.38,1.49-2.04c0.52-0.52,1.09-0.91,1.72-1.2c0.63-0.29,1.27-0.44,1.91-0.46
		c0.66-0.02,1.31,0.1,1.95,0.35c0.65,0.26,1.26,0.68,1.82,1.25c0.48,0.48,0.84,1,1.09,1.56c0.25,0.56,0.37,1.13,0.36,1.72
		c0,0.58-0.14,1.17-0.41,1.76c-0.26,0.59-0.67,1.16-1.22,1.7c-0.28,0.27-0.5,0.43-0.65,0.47c-0.15,0.03-0.31-0.03-0.48-0.2
		L811.33,162.89z"/>
	<path class="st0" d="M830.4,167.63l-11.45,10.54l-1.75-1.9l11.45-10.54L830.4,167.63z"/>
	<path class="st0" d="M834.96,179.8c0.52,0.61,0.88,1.24,1.11,1.9c0.23,0.67,0.31,1.33,0.25,1.99c-0.06,0.66-0.27,1.31-0.63,1.95
		c-0.36,0.63-0.86,1.23-1.5,1.77c-0.65,0.55-1.32,0.95-2,1.2c-0.68,0.25-1.36,0.35-2.03,0.31c-0.67-0.04-1.31-0.23-1.93-0.56
		c-0.62-0.33-1.18-0.79-1.7-1.4c-0.52-0.61-0.89-1.25-1.12-1.92c-0.23-0.67-0.31-1.34-0.25-2c0.07-0.66,0.28-1.31,0.63-1.95
		c0.36-0.63,0.86-1.23,1.51-1.78c0.64-0.55,1.31-0.95,1.99-1.2c0.69-0.25,1.36-0.35,2.02-0.3c0.66,0.05,1.31,0.24,1.93,0.57
		C833.87,178.71,834.44,179.19,834.96,179.8z M828.04,185.68c0.58,0.68,1.23,0.99,1.97,0.93c0.74-0.06,1.55-0.46,2.43-1.21
		c0.88-0.75,1.42-1.49,1.6-2.21c0.19-0.72-0.01-1.42-0.59-2.1c-0.59-0.69-1.26-1.01-2.01-0.94c-0.74,0.06-1.55,0.47-2.43,1.21
		c-0.88,0.75-1.41,1.48-1.59,2.2C827.24,184.28,827.45,184.98,828.04,185.68z"/>
	<path class="st0" d="M838.18,195.73c-0.1,0.45-0.11,0.85-0.02,1.21c0.1,0.37,0.27,0.71,0.51,1.03c0.24,0.31,0.51,0.55,0.82,0.71
		c0.31,0.16,0.65,0.23,1.02,0.22c0.37-0.01,0.78-0.1,1.21-0.28c0.44-0.19,0.9-0.47,1.4-0.85c0.5-0.38,0.89-0.75,1.17-1.09
		c0.29-0.35,0.48-0.68,0.59-0.99c0.1-0.32,0.12-0.62,0.05-0.91c-0.06-0.29-0.2-0.57-0.41-0.84c-0.33-0.43-0.7-0.72-1.11-0.88
		c-0.41-0.16-0.88-0.25-1.41-0.27L838.18,195.73z M843.25,191.67c0.66,0.05,1.28,0.2,1.87,0.45c0.58,0.26,1.11,0.68,1.56,1.28
		c0.36,0.47,0.59,0.96,0.68,1.49c0.1,0.54,0.08,1.09-0.08,1.65c-0.15,0.56-0.44,1.13-0.87,1.69c-0.42,0.57-0.98,1.12-1.67,1.65
		c-0.64,0.49-1.29,0.86-1.97,1.1c-0.67,0.25-1.33,0.36-1.98,0.34c-0.64-0.01-1.25-0.15-1.83-0.43c-0.57-0.28-1.06-0.7-1.49-1.26
		c-0.37-0.48-0.61-0.94-0.72-1.39c-0.11-0.45-0.14-0.91-0.08-1.38l-3.49,2.68l-1.58-2.05l11.31-8.68l0.96,1.25
		c0.2,0.27,0.21,0.54,0.03,0.81L843.25,191.67z"/>
	<path class="st0" d="M843.31,207.34l8.81-6.16l0.91,1.3c0.19,0.27,0.19,0.54-0.01,0.81l-0.56,0.59c0.28,0.03,0.55,0.08,0.81,0.15
		c0.26,0.07,0.51,0.17,0.75,0.28c0.24,0.12,0.46,0.27,0.67,0.45c0.22,0.18,0.42,0.4,0.6,0.66c0.39,0.56,0.55,1.12,0.5,1.68
		c-0.05,0.57-0.26,1.12-0.63,1.64c0.39-0.07,0.76-0.07,1.11-0.01c0.36,0.06,0.69,0.16,0.99,0.32c0.3,0.15,0.58,0.35,0.84,0.58
		c0.26,0.24,0.49,0.49,0.68,0.78c0.34,0.49,0.57,0.97,0.68,1.45c0.12,0.48,0.12,0.95,0.01,1.41c-0.11,0.46-0.32,0.9-0.64,1.32
		c-0.32,0.43-0.74,0.82-1.27,1.2l-5.61,3.92l-1.48-2.12l5.6-3.92c0.56-0.39,0.9-0.81,1-1.25c0.11-0.45,0.01-0.91-0.33-1.38
		c-0.15-0.22-0.33-0.39-0.54-0.53c-0.2-0.13-0.43-0.22-0.67-0.26c-0.23-0.04-0.48-0.03-0.75,0.04c-0.27,0.07-0.54,0.2-0.81,0.39
		l-5.61,3.92l-1.49-2.13l5.61-3.92c0.59-0.41,0.93-0.83,1.04-1.26c0.1-0.42,0-0.86-0.32-1.32c-0.22-0.31-0.5-0.54-0.84-0.7
		c-0.33-0.16-0.71-0.26-1.13-0.31l-6.45,4.51L843.31,207.34z"/>
	<path class="st0" d="M863.72,226.11c0.28-0.18,0.52-0.39,0.71-0.64c0.2-0.24,0.35-0.5,0.43-0.78c0.08-0.28,0.1-0.58,0.05-0.89
		c-0.04-0.31-0.17-0.63-0.38-0.95c-0.41-0.63-0.91-1.01-1.5-1.14c-0.59-0.13-1.24-0.03-1.96,0.3L863.72,226.11z M859.72,222.82
		c-0.44,0.34-0.79,0.68-1.04,1.03c-0.25,0.34-0.42,0.7-0.51,1.05c-0.08,0.35-0.08,0.71-0.01,1.07c0.08,0.36,0.24,0.72,0.47,1.07
		c0.23,0.35,0.46,0.63,0.71,0.83c0.25,0.21,0.48,0.37,0.71,0.49c0.23,0.13,0.42,0.24,0.6,0.32c0.18,0.09,0.31,0.21,0.4,0.34
		c0.12,0.18,0.14,0.36,0.06,0.54l-0.39,1.14c-0.44-0.06-0.85-0.17-1.24-0.35c-0.38-0.18-0.74-0.39-1.07-0.64
		c-0.32-0.25-0.61-0.53-0.88-0.84c-0.26-0.3-0.5-0.61-0.7-0.93c-0.41-0.63-0.68-1.28-0.83-1.95c-0.14-0.68-0.13-1.34,0.01-2
		c0.15-0.66,0.45-1.3,0.9-1.92c0.45-0.62,1.08-1.19,1.87-1.7c0.62-0.4,1.26-0.67,1.93-0.82c0.67-0.15,1.33-0.18,1.97-0.06
		c0.65,0.11,1.26,0.36,1.84,0.74c0.58,0.39,1.09,0.92,1.53,1.59c0.37,0.57,0.62,1.15,0.75,1.75c0.13,0.6,0.13,1.18,0,1.76
		c-0.12,0.57-0.37,1.12-0.76,1.64c-0.38,0.53-0.89,1-1.54,1.42c-0.33,0.21-0.57,0.32-0.74,0.33c-0.16,0-0.3-0.1-0.43-0.3
		L859.72,222.82z"/>
	<path class="st0" d="M869.36,232.58c0.3,0.07,0.58,0.17,0.86,0.28c0.29,0.11,0.55,0.25,0.8,0.41c0.25,0.16,0.49,0.36,0.71,0.59
		c0.22,0.22,0.43,0.49,0.62,0.8c0.3,0.5,0.48,1,0.54,1.5c0.07,0.49,0.02,0.96-0.14,1.4c-0.15,0.45-0.4,0.86-0.75,1.26
		c-0.34,0.39-0.77,0.74-1.29,1.05l-5.87,3.52l-1.33-2.22l5.87-3.52c0.56-0.34,0.92-0.73,1.07-1.17c0.16-0.44,0.08-0.93-0.24-1.46
		c-0.23-0.38-0.53-0.69-0.91-0.92c-0.37-0.23-0.8-0.41-1.28-0.53l-6.67,4l-1.33-2.22l9.22-5.52l0.81,1.36
		c0.17,0.29,0.15,0.56-0.06,0.81L869.36,232.58z"/>
	<path class="st0" d="M869.47,252.01c-0.45-0.82-0.56-1.58-0.34-2.27c0.23-0.69,0.75-1.26,1.57-1.7l5.27-2.87l-0.53-0.97
		c-0.07-0.12-0.08-0.25-0.05-0.38c0.03-0.13,0.13-0.24,0.29-0.32l0.9-0.49l1.08,1.38l2.84-0.93c0.14-0.04,0.27-0.03,0.38,0.02
		s0.21,0.14,0.28,0.28l0.64,1.18l-2.97,1.62l1.37,2.52l-1.62,0.88l-1.37-2.52l-5.11,2.79c-0.29,0.16-0.49,0.36-0.57,0.59
		c-0.09,0.24-0.06,0.48,0.08,0.73c0.08,0.14,0.16,0.25,0.24,0.32c0.09,0.08,0.17,0.14,0.25,0.19c0.08,0.05,0.15,0.1,0.21,0.14
		c0.07,0.03,0.12,0.08,0.14,0.14c0.04,0.07,0.05,0.13,0.03,0.2c-0.01,0.06-0.03,0.13-0.07,0.22l-0.73,1.28
		c-0.46-0.18-0.87-0.45-1.25-0.8C870.04,252.88,869.73,252.47,869.47,252.01z"/>
</g>
</svg>
