<?xml version="1.0" encoding="utf-8"?>
<!-- Generator: Adobe Illustrator 27.9.0, SVG Export Plug-In . SVG Version: 6.00 Build 0)  -->
<svg version="1.1" id="Layer_1" xmlns="http://www.w3.org/2000/svg" xmlns:xlink="http://www.w3.org/1999/xlink" x="0px" y="0px"
	 viewBox="0 0 940 940" style="enable-background:new 0 0 940 940;" xml:space="preserve">
<style type="text/css">
	.st0{fill:#FFFFFF;}
</style>
<g id="Data_Analysis">
	<path class="st0" d="M48.09,268.65c1.02,0.44,1.88,1.02,2.59,1.72c0.71,0.71,1.23,1.5,1.58,2.39c0.35,0.88,0.51,1.83,0.47,2.84
		c-0.03,1.01-0.28,2.05-0.74,3.1L49.7,284l-13.9-6.02l2.29-5.3c0.46-1.06,1.05-1.94,1.77-2.66c0.71-0.72,1.51-1.25,2.39-1.6
		c0.87-0.35,1.81-0.51,2.81-0.48C46.07,267.97,47.08,268.21,48.09,268.65z M46.95,271.3c-0.76-0.33-1.49-0.52-2.18-0.58
		c-0.69-0.06-1.33,0.01-1.92,0.21c-0.59,0.19-1.11,0.52-1.57,0.96c-0.46,0.44-0.83,1-1.13,1.68l-1.17,2.7l9.78,4.24l1.17-2.7
		c0.29-0.68,0.45-1.34,0.45-1.97c0.01-0.64-0.11-1.24-0.36-1.8c-0.26-0.57-0.64-1.08-1.16-1.54
		C48.35,272.03,47.71,271.63,46.95,271.3z"/>
	<path class="st0" d="M56.42,258.27c-0.3,0.69-0.52,1.28-0.66,1.78c-0.14,0.5-0.22,0.92-0.22,1.26c0,0.34,0.05,0.61,0.17,0.82
		c0.12,0.21,0.28,0.36,0.48,0.46c0.41,0.2,0.76,0.23,1.05,0.08c0.3-0.16,0.54-0.43,0.73-0.82c0.24-0.48,0.35-0.93,0.35-1.36
		c0-0.44-0.1-0.91-0.28-1.41L56.42,258.27z M49.61,261.52c-0.47-1.61-0.31-3.19,0.46-4.75c0.28-0.56,0.62-1.02,1.03-1.37
		c0.4-0.35,0.84-0.6,1.33-0.75c0.48-0.15,0.98-0.18,1.52-0.11c0.54,0.06,1.08,0.23,1.62,0.5l6.08,3.01l-0.52,1.05
		c-0.11,0.22-0.22,0.37-0.34,0.46c-0.13,0.09-0.31,0.11-0.54,0.08l-0.8-0.14c0.1,0.35,0.17,0.69,0.23,1
		c0.05,0.31,0.07,0.62,0.06,0.93c-0.01,0.31-0.06,0.62-0.15,0.93c-0.08,0.31-0.2,0.64-0.37,0.99c-0.2,0.41-0.44,0.76-0.72,1.05
		c-0.28,0.29-0.6,0.5-0.94,0.65c-0.34,0.14-0.71,0.2-1.1,0.18c-0.39-0.02-0.81-0.14-1.24-0.36c-0.24-0.12-0.47-0.28-0.66-0.48
		c-0.2-0.2-0.37-0.45-0.5-0.74c-0.13-0.3-0.21-0.64-0.26-1.03c-0.05-0.39-0.04-0.83,0.03-1.33c0.07-0.5,0.2-1.06,0.4-1.67
		c0.19-0.62,0.45-1.29,0.8-2.04l-0.56-0.28c-0.64-0.32-1.19-0.42-1.63-0.29c-0.45,0.12-0.8,0.44-1.06,0.96
		c-0.19,0.38-0.3,0.71-0.33,1c-0.03,0.29-0.04,0.55-0.02,0.8c0.01,0.24,0.03,0.46,0.04,0.66c0.01,0.19-0.03,0.38-0.12,0.57
		c-0.08,0.16-0.19,0.28-0.33,0.35c-0.14,0.07-0.29,0.11-0.43,0.12L49.61,261.52z"/>
	<path class="st0" d="M66.92,248.43c-0.45,0.82-1.02,1.33-1.72,1.52c-0.7,0.18-1.46,0.05-2.28-0.39l-5.27-2.87l-0.53,0.97
		c-0.07,0.12-0.16,0.21-0.29,0.25c-0.13,0.04-0.27,0.02-0.43-0.07l-0.9-0.49l0.58-1.65l-2.32-1.88c-0.11-0.1-0.17-0.21-0.19-0.33
		c-0.02-0.12,0.01-0.25,0.08-0.39l0.64-1.18l2.97,1.62l1.37-2.52l1.62,0.88l-1.37,2.52L64,247.2c0.29,0.16,0.56,0.21,0.81,0.16
		c0.25-0.06,0.44-0.21,0.57-0.46c0.08-0.14,0.12-0.27,0.14-0.37c0.02-0.12,0.02-0.22,0.02-0.31c0-0.09,0-0.18,0-0.25
		c-0.01-0.08,0-0.14,0.03-0.2c0.04-0.07,0.09-0.11,0.15-0.14c0.05-0.03,0.13-0.05,0.22-0.06l1.47-0.08c0.1,0.48,0.1,0.98,0.01,1.48
		C67.35,247.49,67.17,247.97,66.92,248.43z"/>
	<path class="st0" d="M69.88,233.7c-0.35,0.66-0.62,1.23-0.79,1.72c-0.18,0.48-0.29,0.9-0.32,1.23c-0.03,0.34,0,0.62,0.1,0.83
		c0.1,0.21,0.25,0.38,0.45,0.5c0.39,0.23,0.74,0.28,1.04,0.16c0.31-0.13,0.57-0.39,0.79-0.76c0.27-0.46,0.42-0.9,0.46-1.32
		c0.03-0.44-0.03-0.91-0.17-1.43L69.88,233.7z M62.85,236.41c-0.34-1.64-0.07-3.21,0.82-4.7c0.32-0.54,0.7-0.97,1.13-1.29
		c0.43-0.32,0.89-0.54,1.38-0.64c0.49-0.11,0.99-0.11,1.52,0c0.53,0.1,1.06,0.31,1.58,0.62l5.83,3.47l-0.6,1.01
		c-0.12,0.21-0.25,0.35-0.38,0.43c-0.13,0.08-0.32,0.09-0.55,0.04l-0.78-0.2c0.07,0.36,0.12,0.7,0.15,1.02
		c0.02,0.32,0.02,0.62-0.02,0.93c-0.03,0.3-0.11,0.61-0.22,0.92c-0.1,0.31-0.25,0.62-0.45,0.95c-0.23,0.39-0.5,0.72-0.8,0.99
		c-0.3,0.27-0.63,0.46-0.99,0.57c-0.35,0.12-0.72,0.15-1.12,0.09c-0.39-0.05-0.79-0.2-1.21-0.45c-0.23-0.14-0.44-0.32-0.62-0.53
		c-0.19-0.22-0.33-0.47-0.44-0.77c-0.1-0.3-0.16-0.65-0.18-1.05c-0.02-0.39,0.02-0.83,0.13-1.32c0.11-0.5,0.28-1.04,0.52-1.64
		c0.23-0.6,0.55-1.26,0.95-1.97l-0.54-0.32c-0.62-0.37-1.15-0.51-1.6-0.42c-0.46,0.09-0.83,0.38-1.13,0.88
		c-0.21,0.36-0.35,0.69-0.41,0.97c-0.06,0.28-0.08,0.55-0.08,0.79c0,0.24-0.01,0.46-0.02,0.66c0,0.19-0.06,0.38-0.16,0.56
		c-0.09,0.16-0.21,0.26-0.35,0.33c-0.15,0.06-0.3,0.09-0.44,0.09L62.85,236.41z"/>
	<path class="st0" d="M84.35,209.49l-5.18-1.38c-0.24-0.05-0.51-0.13-0.81-0.23c-0.31-0.1-0.64-0.21-0.98-0.33
		c0.24,0.28,0.46,0.55,0.66,0.81c0.2,0.26,0.36,0.49,0.5,0.69l3.06,4.38L84.35,209.49z M91.88,208.7l-1.25,1.78
		c-0.14,0.2-0.3,0.33-0.49,0.39c-0.19,0.05-0.38,0.06-0.58,0.02l-3.18-0.85l-3.6,5.14l1.88,2.7c0.1,0.14,0.16,0.31,0.17,0.52
		s-0.04,0.41-0.18,0.6l-1.26,1.8l-8.98-13.57l1.65-2.35L91.88,208.7z"/>
	<path class="st0" d="M89.33,196.48c-0.04-0.3-0.06-0.6-0.05-0.9c0-0.31,0.03-0.61,0.1-0.89c0.06-0.3,0.16-0.59,0.29-0.87
		c0.13-0.29,0.3-0.58,0.53-0.86c0.36-0.46,0.76-0.81,1.2-1.05c0.43-0.24,0.88-0.36,1.36-0.38c0.47-0.02,0.95,0.06,1.44,0.24
		c0.49,0.18,0.97,0.45,1.45,0.82l5.4,4.2l-1.59,2.04l-5.4-4.2c-0.52-0.4-1.01-0.59-1.48-0.58c-0.47,0.01-0.89,0.26-1.27,0.75
		c-0.27,0.35-0.45,0.75-0.53,1.18c-0.08,0.43-0.09,0.89-0.03,1.38l6.14,4.77l-1.59,2.04l-8.48-6.59l0.97-1.25
		c0.21-0.26,0.46-0.34,0.78-0.23L89.33,196.48z"/>
	<path class="st0" d="M105.7,184c-0.46,0.59-0.81,1.11-1.07,1.56c-0.26,0.45-0.44,0.83-0.52,1.16c-0.09,0.33-0.1,0.61-0.04,0.84
		c0.06,0.23,0.18,0.42,0.36,0.57c0.35,0.29,0.68,0.4,1,0.33c0.33-0.08,0.63-0.29,0.91-0.62c0.34-0.4,0.57-0.81,0.67-1.23
		c0.1-0.42,0.13-0.9,0.07-1.44L105.7,184z M98.3,185.5c-0.06-1.67,0.47-3.17,1.6-4.5c0.41-0.48,0.85-0.84,1.33-1.08
		c0.48-0.25,0.97-0.38,1.47-0.4c0.5-0.03,1,0.06,1.5,0.26c0.51,0.19,0.99,0.49,1.45,0.88l5.17,4.4l-0.76,0.89
		c-0.16,0.19-0.31,0.31-0.45,0.36c-0.14,0.05-0.33,0.03-0.55-0.05l-0.74-0.33c0.01,0.37,0,0.71-0.02,1.03
		c-0.03,0.31-0.09,0.62-0.17,0.91c-0.09,0.29-0.21,0.58-0.37,0.87c-0.15,0.28-0.35,0.57-0.6,0.87c-0.29,0.35-0.61,0.63-0.95,0.84
		c-0.34,0.21-0.7,0.34-1.07,0.4c-0.37,0.05-0.74,0.02-1.11-0.1c-0.38-0.12-0.75-0.33-1.11-0.65c-0.21-0.18-0.38-0.39-0.53-0.63
		c-0.15-0.25-0.25-0.52-0.3-0.84c-0.05-0.32-0.05-0.67,0-1.06c0.05-0.39,0.16-0.82,0.35-1.28c0.19-0.47,0.45-0.98,0.79-1.53
		c0.33-0.55,0.76-1.15,1.27-1.78l-0.48-0.41c-0.55-0.47-1.05-0.69-1.51-0.68c-0.47,0.01-0.89,0.23-1.26,0.67
		c-0.27,0.32-0.46,0.62-0.57,0.89c-0.1,0.27-0.17,0.53-0.21,0.77c-0.05,0.24-0.09,0.45-0.13,0.65c-0.03,0.19-0.12,0.37-0.26,0.53
		c-0.12,0.14-0.25,0.23-0.4,0.26c-0.16,0.03-0.31,0.04-0.45,0.01L98.3,185.5z"/>
	<path class="st0" d="M106.03,167.11l11.49,10.5l-1.74,1.91l-11.49-10.5L106.03,167.11z"/>
	<path class="st0" d="M121.36,158.09l5.69,13.77c0.08,0.18,0.1,0.35,0.08,0.5c-0.01,0.15-0.11,0.32-0.28,0.5l-1.35,1.38l-1.67-4.46
		l-10.14-3.85l1.59-1.62c0.14-0.14,0.29-0.22,0.43-0.23c0.15-0.02,0.29,0,0.42,0.05l5.58,2.27c0.19,0.08,0.37,0.16,0.54,0.26
		c0.17,0.09,0.35,0.19,0.52,0.29c-0.1-0.18-0.19-0.36-0.28-0.54c-0.1-0.18-0.18-0.37-0.26-0.55l-2.46-5.43
		c-0.06-0.14-0.08-0.28-0.06-0.44c0.03-0.16,0.1-0.29,0.21-0.41L121.36,158.09z"/>
	<path class="st0" d="M132.07,150.77c0.03,0.13,0.03,0.24,0.01,0.33c-0.03,0.08-0.08,0.17-0.17,0.25c-0.09,0.09-0.21,0.15-0.37,0.2
		c-0.15,0.04-0.32,0.1-0.52,0.17c-0.2,0.06-0.41,0.15-0.64,0.27c-0.22,0.11-0.45,0.28-0.69,0.5c-0.37,0.35-0.59,0.7-0.66,1.06
		c-0.06,0.35,0.03,0.66,0.27,0.91c0.16,0.17,0.34,0.26,0.56,0.28c0.22,0.01,0.46-0.03,0.71-0.11c0.26-0.09,0.54-0.2,0.84-0.34
		c0.29-0.15,0.59-0.29,0.9-0.43c0.32-0.14,0.64-0.27,0.97-0.38c0.32-0.11,0.65-0.17,0.98-0.18c0.33-0.01,0.66,0.04,0.97,0.16
		c0.32,0.12,0.63,0.34,0.93,0.65c0.35,0.38,0.61,0.79,0.78,1.24c0.16,0.44,0.22,0.9,0.18,1.38c-0.05,0.48-0.21,0.97-0.48,1.47
		c-0.27,0.49-0.65,0.98-1.16,1.45c-0.27,0.25-0.56,0.48-0.87,0.67c-0.3,0.19-0.61,0.36-0.93,0.5c-0.32,0.13-0.63,0.24-0.94,0.31
		c-0.31,0.07-0.6,0.11-0.89,0.11l-0.24-1.13c-0.03-0.14-0.02-0.27,0.01-0.38c0.03-0.12,0.11-0.23,0.23-0.34
		c0.12-0.11,0.26-0.18,0.42-0.21c0.17-0.03,0.36-0.08,0.57-0.13c0.21-0.05,0.44-0.13,0.68-0.24c0.25-0.11,0.52-0.3,0.8-0.57
		c0.22-0.21,0.39-0.42,0.5-0.61c0.11-0.21,0.18-0.4,0.2-0.59c0.03-0.19,0.01-0.36-0.05-0.51c-0.06-0.16-0.15-0.31-0.26-0.43
		c-0.17-0.18-0.37-0.28-0.59-0.29c-0.22-0.02-0.46,0.02-0.72,0.1c-0.26,0.08-0.54,0.2-0.83,0.35c-0.3,0.14-0.6,0.29-0.93,0.44
		c-0.32,0.14-0.64,0.27-0.97,0.38c-0.33,0.1-0.67,0.16-1.01,0.16c-0.34,0-0.67-0.07-1.02-0.21c-0.34-0.14-0.67-0.39-0.99-0.73
		c-0.3-0.32-0.52-0.69-0.67-1.1c-0.14-0.41-0.2-0.84-0.15-1.28c0.04-0.45,0.19-0.92,0.44-1.39c0.25-0.48,0.61-0.95,1.1-1.4
		c0.54-0.51,1.11-0.88,1.72-1.12c0.61-0.24,1.2-0.35,1.77-0.34L132.07,150.77z"/>
	<path class="st0" d="M138.33,142.34l7.09,8.07l-1.95,1.71l-7.09-8.07L138.33,142.34z M136.53,139.75c0.15,0.17,0.25,0.36,0.31,0.56
		c0.06,0.21,0.08,0.42,0.06,0.63c-0.01,0.21-0.07,0.41-0.16,0.61c-0.1,0.2-0.23,0.37-0.4,0.52c-0.17,0.15-0.36,0.26-0.56,0.33
		c-0.21,0.06-0.41,0.08-0.62,0.07c-0.21-0.01-0.41-0.06-0.61-0.15c-0.19-0.09-0.36-0.22-0.51-0.39c-0.15-0.17-0.26-0.36-0.33-0.57
		c-0.07-0.21-0.09-0.42-0.08-0.63c0.01-0.21,0.07-0.41,0.16-0.6c0.09-0.2,0.22-0.38,0.39-0.52c0.17-0.15,0.37-0.26,0.58-0.33
		c0.21-0.07,0.41-0.1,0.62-0.09c0.21,0.01,0.42,0.06,0.62,0.15C136.2,139.45,136.38,139.58,136.53,139.75z"/>
	<path class="st0" d="M150.83,134.56c0.02,0.13,0.01,0.24-0.02,0.33c-0.03,0.08-0.1,0.16-0.19,0.23c-0.1,0.08-0.23,0.14-0.38,0.18
		c-0.15,0.03-0.33,0.08-0.53,0.13c-0.2,0.05-0.42,0.12-0.65,0.23c-0.23,0.1-0.47,0.25-0.72,0.46c-0.39,0.32-0.64,0.66-0.73,1.01
		c-0.08,0.35-0.02,0.66,0.21,0.93c0.15,0.18,0.33,0.28,0.54,0.31c0.22,0.02,0.46,0,0.72-0.06c0.27-0.07,0.56-0.16,0.86-0.29
		c0.3-0.13,0.61-0.25,0.93-0.37c0.32-0.12,0.65-0.23,0.99-0.31c0.33-0.09,0.66-0.13,0.99-0.11c0.33,0.01,0.65,0.08,0.96,0.23
		c0.31,0.14,0.61,0.38,0.88,0.71c0.33,0.4,0.56,0.83,0.69,1.29c0.13,0.45,0.16,0.91,0.09,1.39c-0.08,0.47-0.27,0.95-0.57,1.43
		c-0.3,0.47-0.72,0.93-1.26,1.37c-0.29,0.23-0.59,0.44-0.91,0.61c-0.31,0.17-0.63,0.32-0.96,0.43c-0.32,0.11-0.64,0.19-0.96,0.25
		c-0.31,0.05-0.61,0.07-0.89,0.05l-0.16-1.14c-0.02-0.14,0-0.27,0.04-0.38c0.04-0.12,0.12-0.22,0.25-0.33
		c0.12-0.1,0.27-0.16,0.43-0.18c0.17-0.02,0.36-0.05,0.57-0.09c0.21-0.04,0.44-0.1,0.7-0.19c0.26-0.09,0.54-0.26,0.84-0.51
		c0.24-0.19,0.42-0.39,0.54-0.58c0.12-0.2,0.2-0.39,0.24-0.57c0.04-0.18,0.03-0.36-0.02-0.52c-0.05-0.17-0.12-0.32-0.23-0.45
		c-0.16-0.19-0.35-0.3-0.57-0.33c-0.22-0.03-0.46-0.01-0.73,0.05c-0.26,0.06-0.55,0.16-0.86,0.29c-0.3,0.12-0.62,0.25-0.95,0.37
		c-0.32,0.12-0.66,0.23-1,0.32c-0.34,0.08-0.68,0.11-1.02,0.09c-0.34-0.02-0.67-0.12-1-0.28c-0.33-0.17-0.64-0.43-0.94-0.8
		c-0.28-0.34-0.48-0.72-0.59-1.14c-0.12-0.42-0.14-0.85-0.07-1.29c0.07-0.45,0.25-0.9,0.53-1.35c0.28-0.46,0.68-0.91,1.19-1.33
		c0.57-0.47,1.17-0.8,1.8-1c0.62-0.2,1.22-0.27,1.78-0.22L150.83,134.56z"/>
</g>
</svg>
