<?xml version="1.0" encoding="utf-8"?>
<!-- Generator: Adobe Illustrator 27.9.0, SVG Export Plug-In . SVG Version: 6.00 Build 0)  -->
<svg version="1.1" id="Layer_1" xmlns="http://www.w3.org/2000/svg" xmlns:xlink="http://www.w3.org/1999/xlink" x="0px" y="0px"
	 viewBox="0 0 940 940" style="enable-background:new 0 0 940 940;" xml:space="preserve">
<style type="text/css">
	.st0{fill:#FFFFFF;}
</style>
<g id="Data_Analysis">
	<path class="st0" d="M42.5,291.5c1.8,0.8,3.3,1.9,4.6,3.2c1.2,1.3,2.2,2.7,2.8,4.3c0.6,1.6,0.9,3.3,0.8,5.1
		c-0.1,1.8-0.6,3.7-1.4,5.5l-4.3,9.4l-24.7-11.2l4.3-9.4c0.9-1.9,1.9-3.4,3.2-4.7c1.3-1.3,2.7-2.2,4.3-2.8c1.6-0.6,3.3-0.9,5-0.8
		C38.9,290.2,40.7,290.7,42.5,291.5z M40.3,296.2c-1.3-0.6-2.6-1-3.9-1.1c-1.2-0.1-2.4,0-3.4,0.3c-1.1,0.3-2,0.9-2.8,1.7
		c-0.8,0.8-1.5,1.8-2.1,3l-2.2,4.8l17.4,7.9l2.2-4.8c0.5-1.2,0.8-2.4,0.9-3.5c0-1.1-0.2-2.2-0.6-3.2c-0.4-1-1.1-2-2-2.8
		C42.8,297.5,41.7,296.8,40.3,296.2z"/>
	<path class="st0" d="M57.7,273.2c-0.6,1.2-1,2.3-1.2,3.2c-0.3,0.9-0.4,1.6-0.4,2.2s0.1,1.1,0.3,1.5c0.2,0.4,0.5,0.7,0.8,0.8
		c0.7,0.4,1.4,0.4,1.9,0.2c0.5-0.3,1-0.8,1.3-1.4c0.4-0.9,0.7-1.7,0.7-2.4c0-0.8-0.2-1.6-0.5-2.5L57.7,273.2z M45.4,278.8
		c-0.8-2.9-0.5-5.7,1-8.5c0.5-1,1.1-1.8,1.9-2.4c0.7-0.6,1.5-1,2.4-1.3c0.9-0.3,1.8-0.3,2.7-0.1c1,0.1,1.9,0.4,2.9,0.9l10.8,5.6
		l-1,1.9c-0.2,0.4-0.4,0.7-0.6,0.8c-0.2,0.2-0.6,0.2-1,0.1l-1.4-0.3c0.2,0.6,0.3,1.2,0.4,1.8c0.1,0.6,0.1,1.1,0.1,1.7
		c0,0.6-0.1,1.1-0.3,1.7c-0.2,0.6-0.4,1.1-0.7,1.8c-0.4,0.7-0.8,1.3-1.3,1.9c-0.5,0.5-1.1,0.9-1.7,1.1c-0.6,0.2-1.3,0.3-2,0.3
		c-0.7,0-1.4-0.3-2.2-0.7c-0.4-0.2-0.8-0.5-1.2-0.9c-0.4-0.4-0.6-0.8-0.9-1.3c-0.2-0.5-0.4-1.2-0.4-1.9c-0.1-0.7,0-1.5,0.1-2.4
		c0.1-0.9,0.4-1.9,0.8-3c0.4-1.1,0.8-2.3,1.5-3.6l-1-0.5c-1.1-0.6-2.1-0.8-2.9-0.6c-0.8,0.2-1.4,0.8-1.9,1.7
		c-0.4,0.7-0.6,1.3-0.6,1.8c-0.1,0.5-0.1,1-0.1,1.4c0,0.4,0,0.8,0.1,1.2c0,0.3-0.1,0.7-0.2,1c-0.1,0.3-0.3,0.5-0.6,0.6
		c-0.3,0.1-0.5,0.2-0.8,0.2L45.4,278.8z"/>
	<path class="st0" d="M76.8,255.9c-0.8,1.5-1.9,2.3-3.1,2.7c-1.3,0.3-2.6,0-4.1-0.8l-9.3-5.3l-1,1.7c-0.1,0.2-0.3,0.4-0.5,0.4
		c-0.2,0.1-0.5,0-0.8-0.1l-1.6-0.9l1.1-2.9l-4.1-3.4c-0.2-0.2-0.3-0.4-0.3-0.6c0-0.2,0-0.4,0.2-0.7l1.2-2.1l5.3,3l2.5-4.5l2.9,1.6
		l-2.5,4.5l9.1,5.1c0.5,0.3,1,0.4,1.4,0.3c0.4-0.1,0.8-0.4,1-0.8c0.1-0.2,0.2-0.5,0.3-0.7c0-0.2,0-0.4,0-0.6c0-0.2,0-0.3,0-0.4
		c0-0.1,0-0.3,0.1-0.4c0.1-0.1,0.2-0.2,0.3-0.2c0.1-0.1,0.2-0.1,0.4-0.1l2.6-0.1c0.2,0.9,0.1,1.8,0,2.6
		C77.6,254.2,77.2,255.1,76.8,255.9z"/>
	<path class="st0" d="M82.5,229.6c-0.6,1.2-1.1,2.2-1.5,3.1c-0.3,0.9-0.5,1.6-0.6,2.2c-0.1,0.6,0,1.1,0.2,1.5
		c0.2,0.4,0.4,0.7,0.8,0.9c0.7,0.4,1.3,0.5,1.9,0.3c0.6-0.2,1-0.7,1.4-1.3c0.5-0.8,0.8-1.6,0.9-2.3c0.1-0.8,0-1.6-0.3-2.6
		L82.5,229.6z M69.9,234.2c-0.6-2.9,0-5.7,1.6-8.4c0.6-1,1.3-1.7,2.1-2.3c0.8-0.6,1.6-0.9,2.5-1.1c0.9-0.2,1.8-0.2,2.7,0
		c0.9,0.2,1.9,0.6,2.8,1.2l10.3,6.4l-1.1,1.8c-0.2,0.4-0.5,0.6-0.7,0.8c-0.2,0.1-0.6,0.2-1,0.1l-1.4-0.4c0.1,0.6,0.2,1.3,0.2,1.8
		c0,0.6,0,1.1-0.1,1.7c-0.1,0.5-0.2,1.1-0.4,1.6c-0.2,0.6-0.5,1.1-0.8,1.7c-0.4,0.7-0.9,1.3-1.5,1.7s-1.1,0.8-1.8,1
		c-0.6,0.2-1.3,0.2-2,0.1c-0.7-0.1-1.4-0.4-2.2-0.8c-0.4-0.3-0.8-0.6-1.1-1c-0.3-0.4-0.6-0.9-0.8-1.4c-0.2-0.5-0.3-1.2-0.3-1.9
		c0-0.7,0.1-1.5,0.3-2.4c0.2-0.9,0.5-1.9,1-2.9c0.4-1.1,1-2.2,1.8-3.5l-1-0.6c-1.1-0.7-2-0.9-2.8-0.8c-0.8,0.1-1.5,0.7-2,1.5
		c-0.4,0.6-0.6,1.2-0.8,1.7c-0.1,0.5-0.2,1-0.2,1.4c0,0.4,0,0.8-0.1,1.2c0,0.3-0.1,0.7-0.3,1c-0.2,0.3-0.4,0.5-0.6,0.6
		c-0.3,0.1-0.5,0.2-0.8,0.1L69.9,234.2z"/>
	<path class="st0" d="M109.2,186.8l-9.2-2.6c-0.4-0.1-0.9-0.2-1.4-0.4c-0.6-0.2-1.1-0.4-1.7-0.6c0.4,0.5,0.8,1,1.2,1.5
		c0.3,0.5,0.6,0.9,0.9,1.3l5.3,7.9L109.2,186.8z M122.7,185.6l-2.3,3.1c-0.3,0.4-0.5,0.6-0.9,0.7c-0.3,0.1-0.7,0.1-1,0l-5.7-1.6
		l-6.6,9.1l3.3,4.9c0.2,0.3,0.3,0.6,0.3,0.9c0,0.4-0.1,0.7-0.3,1.1l-2.3,3.2l-15.6-24.6l3-4.2L122.7,185.6z"/>
	<path class="st0" d="M118.5,163.6c-0.1-0.5-0.1-1.1-0.1-1.6c0-0.6,0.1-1.1,0.2-1.6c0.1-0.5,0.3-1.1,0.5-1.5c0.2-0.5,0.6-1,1-1.5
		c0.7-0.8,1.4-1.4,2.2-1.8c0.8-0.4,1.6-0.6,2.4-0.6c0.8,0,1.7,0.1,2.6,0.5c0.9,0.3,1.7,0.8,2.6,1.5l9.5,7.7l-2.9,3.6l-9.5-7.7
		c-0.9-0.7-1.8-1.1-2.6-1.1c-0.8,0-1.6,0.4-2.3,1.3c-0.5,0.6-0.8,1.3-1,2.1c-0.2,0.8-0.2,1.6-0.1,2.5l10.8,8.7l-2.9,3.6l-15-12.1
		l1.8-2.2c0.4-0.5,0.8-0.6,1.4-0.4L118.5,163.6z"/>
	<path class="st0" d="M148.2,141.8c-0.8,1-1.5,2-2,2.8c-0.5,0.8-0.8,1.5-1,2.1c-0.2,0.6-0.2,1.1-0.1,1.5s0.3,0.8,0.6,1
		c0.6,0.5,1.2,0.7,1.8,0.6c0.6-0.1,1.1-0.5,1.6-1.1c0.6-0.7,1-1.4,1.2-2.2c0.2-0.7,0.3-1.6,0.2-2.6L148.2,141.8z M134.9,144.3
		c-0.1-3,0.9-5.7,3-8c0.7-0.8,1.5-1.5,2.4-1.9c0.9-0.4,1.7-0.6,2.6-0.7c0.9,0,1.8,0.1,2.7,0.5c0.9,0.4,1.8,0.9,2.6,1.6l9.1,8
		l-1.4,1.6c-0.3,0.3-0.6,0.5-0.8,0.6s-0.6,0-1-0.1l-1.3-0.6c0,0.7,0,1.3-0.1,1.8c-0.1,0.6-0.2,1.1-0.3,1.6c-0.2,0.5-0.4,1-0.7,1.5
		c-0.3,0.5-0.6,1-1.1,1.5c-0.5,0.6-1.1,1.1-1.7,1.5c-0.6,0.4-1.3,0.6-1.9,0.7c-0.7,0.1-1.3,0-2-0.2c-0.7-0.2-1.3-0.6-2-1.2
		c-0.4-0.3-0.7-0.7-0.9-1.1c-0.3-0.5-0.4-0.9-0.5-1.5c-0.1-0.6-0.1-1.2,0-1.9c0.1-0.7,0.3-1.5,0.7-2.3c0.4-0.8,0.8-1.7,1.5-2.7
		c0.6-1,1.4-2,2.3-3.1l-0.8-0.7c-1-0.9-1.9-1.3-2.7-1.3c-0.8,0-1.6,0.4-2.3,1.2c-0.5,0.6-0.8,1.1-1,1.6c-0.2,0.5-0.3,0.9-0.4,1.4
		c-0.1,0.4-0.2,0.8-0.3,1.2c-0.1,0.3-0.2,0.7-0.5,0.9c-0.2,0.2-0.5,0.4-0.7,0.5c-0.3,0-0.6,0.1-0.8,0L134.9,144.3z"/>
	<path class="st0" d="M149.3,111.6l20.2,19.1l-3.2,3.4L146.1,115L149.3,111.6z"/>
	<path class="st0" d="M177,96l9.8,24.8c0.1,0.3,0.2,0.6,0.1,0.9c0,0.3-0.2,0.6-0.5,0.9l-2.5,2.4l-2.8-8l-18-7.2l2.9-2.8
		c0.3-0.2,0.5-0.4,0.8-0.4c0.3,0,0.5,0,0.7,0.1l9.9,4.2c0.3,0.1,0.7,0.3,1,0.5c0.3,0.2,0.6,0.4,0.9,0.5c-0.2-0.3-0.3-0.7-0.5-1
		c-0.2-0.3-0.3-0.7-0.4-1l-4.2-9.8c-0.1-0.3-0.1-0.5-0.1-0.8c0.1-0.3,0.2-0.5,0.4-0.7L177,96z"/>
	<path class="st0" d="M196.4,83.2c0,0.2,0,0.4,0,0.6c-0.1,0.1-0.1,0.3-0.3,0.4c-0.2,0.2-0.4,0.3-0.7,0.3c-0.3,0.1-0.6,0.2-0.9,0.3
		c-0.4,0.1-0.7,0.3-1.2,0.5c-0.4,0.2-0.8,0.5-1.3,0.9c-0.7,0.6-1.1,1.2-1.2,1.9c-0.1,0.6,0,1.2,0.5,1.6c0.3,0.3,0.6,0.5,1,0.5
		c0.4,0,0.8,0,1.3-0.2c0.5-0.2,1-0.3,1.5-0.6c0.5-0.3,1.1-0.5,1.6-0.7c0.6-0.2,1.2-0.5,1.7-0.6c0.6-0.2,1.2-0.3,1.8-0.3
		c0.6,0,1.2,0.1,1.7,0.3c0.6,0.2,1.1,0.6,1.6,1.2c0.6,0.7,1.1,1.4,1.4,2.2c0.3,0.8,0.4,1.6,0.3,2.5c-0.1,0.9-0.4,1.7-0.9,2.6
		c-0.5,0.9-1.2,1.7-2.1,2.6c-0.5,0.4-1,0.8-1.6,1.2c-0.5,0.3-1.1,0.6-1.7,0.9c-0.6,0.2-1.1,0.4-1.7,0.5c-0.6,0.1-1.1,0.2-1.6,0.2
		l-0.4-2c0-0.3,0-0.5,0-0.7c0.1-0.2,0.2-0.4,0.4-0.6c0.2-0.2,0.5-0.3,0.8-0.4c0.3,0,0.6-0.1,1-0.2c0.4-0.1,0.8-0.2,1.2-0.4
		c0.5-0.2,0.9-0.5,1.4-1c0.4-0.4,0.7-0.7,0.9-1.1c0.2-0.4,0.3-0.7,0.4-1c0.1-0.3,0-0.6-0.1-0.9c-0.1-0.3-0.3-0.6-0.5-0.8
		c-0.3-0.3-0.7-0.5-1-0.5c-0.4,0-0.8,0-1.3,0.2c-0.5,0.1-1,0.3-1.5,0.6c-0.5,0.2-1.1,0.5-1.7,0.8c-0.6,0.2-1.2,0.5-1.7,0.6
		c-0.6,0.2-1.2,0.3-1.8,0.3s-1.2-0.1-1.8-0.4c-0.6-0.3-1.2-0.7-1.7-1.3c-0.5-0.6-0.9-1.3-1.2-2c-0.2-0.7-0.3-1.5-0.2-2.3
		c0.1-0.8,0.4-1.6,0.8-2.5c0.5-0.9,1.1-1.7,2-2.5c1-0.9,2-1.5,3.1-2c1.1-0.4,2.2-0.6,3.2-0.6L196.4,83.2z"/>
	<path class="st0" d="M207.9,68.3L220.3,83l-3.5,3l-12.4-14.7L207.9,68.3z M204.7,63.6c0.3,0.3,0.4,0.7,0.5,1
		c0.1,0.4,0.1,0.8,0.1,1.1c0,0.4-0.1,0.7-0.3,1.1c-0.2,0.4-0.4,0.7-0.7,0.9c-0.3,0.3-0.7,0.5-1,0.6c-0.4,0.1-0.7,0.1-1.1,0.1
		c-0.4,0-0.7-0.1-1.1-0.3c-0.3-0.2-0.6-0.4-0.9-0.7c-0.3-0.3-0.5-0.7-0.6-1c-0.1-0.4-0.1-0.8-0.1-1.1s0.1-0.7,0.3-1.1
		c0.2-0.4,0.4-0.7,0.7-0.9c0.3-0.3,0.7-0.5,1-0.6c0.4-0.1,0.7-0.2,1.1-0.1c0.4,0,0.7,0.1,1.1,0.3C204.1,63.1,204.4,63.3,204.7,63.6z
		"/>
	<path class="st0" d="M230.5,54.8c0,0.2,0,0.4,0,0.6c-0.1,0.1-0.2,0.3-0.3,0.4c-0.2,0.1-0.4,0.2-0.7,0.3c-0.3,0-0.6,0.1-1,0.2
		c-0.4,0.1-0.8,0.2-1.2,0.4c-0.4,0.2-0.8,0.4-1.3,0.8c-0.7,0.6-1.2,1.2-1.3,1.8c-0.2,0.6-0.1,1.2,0.3,1.7c0.3,0.3,0.6,0.5,1,0.6
		c0.4,0,0.8,0,1.3-0.1c0.5-0.1,1-0.3,1.5-0.5c0.5-0.2,1.1-0.4,1.7-0.6c0.6-0.2,1.2-0.4,1.8-0.5c0.6-0.2,1.2-0.2,1.8-0.2
		c0.6,0,1.2,0.2,1.7,0.4c0.6,0.3,1.1,0.7,1.6,1.3c0.6,0.7,1,1.5,1.2,2.3c0.2,0.8,0.3,1.6,0.1,2.5c-0.2,0.8-0.5,1.7-1.1,2.5
		c-0.6,0.8-1.3,1.6-2.3,2.4c-0.5,0.4-1.1,0.8-1.6,1.1c-0.6,0.3-1.1,0.6-1.7,0.7c-0.6,0.2-1.2,0.3-1.7,0.4c-0.6,0.1-1.1,0.1-1.6,0.1
		l-0.3-2c0-0.3,0-0.5,0.1-0.7c0.1-0.2,0.2-0.4,0.5-0.6c0.2-0.2,0.5-0.3,0.8-0.3c0.3,0,0.6-0.1,1-0.1c0.4-0.1,0.8-0.2,1.3-0.3
		s1-0.4,1.5-0.9c0.4-0.3,0.8-0.7,1-1c0.2-0.4,0.4-0.7,0.4-1c0.1-0.3,0.1-0.6,0-0.9c-0.1-0.3-0.2-0.6-0.4-0.8c-0.3-0.3-0.6-0.5-1-0.6
		c-0.4-0.1-0.8,0-1.3,0.1c-0.5,0.1-1,0.3-1.5,0.5c-0.5,0.2-1.1,0.4-1.7,0.6c-0.6,0.2-1.2,0.4-1.8,0.5c-0.6,0.1-1.2,0.2-1.8,0.1
		c-0.6,0-1.2-0.2-1.8-0.5c-0.6-0.3-1.1-0.8-1.7-1.5c-0.5-0.6-0.8-1.3-1-2.1c-0.2-0.8-0.2-1.5-0.1-2.3c0.1-0.8,0.5-1.6,1-2.4
		c0.5-0.8,1.2-1.6,2.2-2.3c1-0.8,2.1-1.4,3.3-1.7c1.1-0.3,2.2-0.4,3.2-0.3L230.5,54.8z"/>
</g>
</svg>
