<?xml version="1.0" encoding="utf-8"?>
<!-- Generator: Adobe Illustrator 27.9.0, SVG Export Plug-In . SVG Version: 6.00 Build 0)  -->
<svg version="1.1" id="Layer_1" xmlns="http://www.w3.org/2000/svg" xmlns:xlink="http://www.w3.org/1999/xlink" x="0px" y="0px"
	 viewBox="0 0 940 940" style="enable-background:new 0 0 940 940;" xml:space="preserve">
<style type="text/css">
	.st0{fill:#FFFFFF;}
</style>
<g id="UI_UX">
	<path class="st0" d="M433.54,16.69c0.54-0.05,1.02-0.19,1.42-0.41c0.41-0.22,0.75-0.51,1.01-0.86c0.26-0.35,0.45-0.77,0.56-1.25
		c0.12-0.48,0.15-1.01,0.09-1.59l-0.85-9.03l2.8-0.26l0.85,9.03c0.08,0.9,0.02,1.74-0.2,2.53c-0.21,0.78-0.57,1.48-1.06,2.09
		c-0.48,0.6-1.1,1.09-1.84,1.48c-0.74,0.38-1.6,0.61-2.56,0.7c-0.97,0.09-1.86,0.02-2.66-0.21c-0.8-0.24-1.5-0.61-2.09-1.11
		c-0.59-0.51-1.06-1.12-1.43-1.85c-0.36-0.74-0.58-1.56-0.66-2.45l-0.85-9.03l2.8-0.26l0.85,9.02c0.05,0.58,0.18,1.09,0.38,1.54
		c0.2,0.45,0.47,0.83,0.79,1.14c0.33,0.3,0.72,0.52,1.16,0.66C432.5,16.7,432.99,16.74,433.54,16.69z"/>
	<path class="st0" d="M447.7,17.9l-2.83,0.08l-0.41-15.14l2.83-0.08L447.7,17.9z"/>
	<path class="st0" d="M459.6,10.27c-0.57,0.34-1,0.73-1.28,1.18c-0.27,0.44-0.42,0.93-0.44,1.45c-0.02,0.38,0.04,0.73,0.16,1.04
		c0.12,0.31,0.29,0.58,0.5,0.81c0.22,0.22,0.48,0.39,0.77,0.52c0.3,0.12,0.62,0.19,0.97,0.21c0.61,0.03,1.18-0.05,1.7-0.21
		c0.52-0.17,0.99-0.42,1.41-0.75L459.6,10.27z M469.39,17.77l-2.53-0.11c-0.27-0.01-0.48-0.05-0.64-0.12
		c-0.16-0.07-0.32-0.21-0.5-0.42l-1-1.12c-0.69,0.52-1.45,0.91-2.28,1.18c-0.84,0.27-1.73,0.39-2.69,0.35
		c-0.58-0.02-1.15-0.15-1.7-0.36c-0.55-0.23-1.04-0.54-1.46-0.93c-0.42-0.4-0.76-0.86-1.01-1.4c-0.24-0.55-0.35-1.16-0.32-1.83
		c0.02-0.47,0.11-0.92,0.29-1.33c0.17-0.42,0.4-0.8,0.69-1.16c0.29-0.35,0.62-0.66,1.01-0.93c0.39-0.28,0.81-0.51,1.27-0.7
		c-0.35-0.54-0.61-1.06-0.75-1.56c-0.15-0.51-0.21-1.01-0.19-1.51c0.02-0.52,0.14-1.01,0.34-1.47c0.21-0.47,0.51-0.87,0.89-1.2
		c0.38-0.33,0.84-0.59,1.37-0.77c0.54-0.19,1.14-0.27,1.81-0.24c0.61,0.03,1.16,0.14,1.63,0.35c0.48,0.21,0.89,0.48,1.21,0.81
		c0.34,0.33,0.59,0.7,0.77,1.11c0.19,0.41,0.29,0.84,0.3,1.27l-1.66,0.28c-0.31,0.05-0.53-0.09-0.65-0.43
		c-0.06-0.18-0.13-0.36-0.23-0.52c-0.09-0.17-0.2-0.32-0.34-0.44c-0.13-0.13-0.29-0.24-0.48-0.31c-0.19-0.08-0.4-0.13-0.64-0.14
		c-0.29-0.01-0.56,0.03-0.79,0.12c-0.23,0.09-0.44,0.22-0.6,0.38c-0.16,0.16-0.29,0.35-0.38,0.58c-0.09,0.22-0.14,0.46-0.16,0.71
		c-0.01,0.21,0,0.41,0.04,0.61c0.03,0.2,0.1,0.4,0.19,0.59c0.09,0.2,0.21,0.41,0.35,0.62c0.15,0.21,0.34,0.44,0.56,0.68l3.84,4.34
		c0.25-0.43,0.45-0.89,0.61-1.37c0.16-0.48,0.27-0.97,0.33-1.47c0.03-0.16,0.09-0.29,0.18-0.38c0.09-0.09,0.22-0.14,0.38-0.13
		l1.61,0.07c-0.05,0.92-0.21,1.79-0.51,2.62c-0.29,0.83-0.69,1.58-1.21,2.27L469.39,17.77z"/>
	<path class="st0" d="M482.14,14.68c0.54,0.05,1.03,0.01,1.48-0.13c0.45-0.14,0.83-0.36,1.16-0.65c0.32-0.3,0.58-0.67,0.78-1.12
		c0.21-0.45,0.34-0.96,0.39-1.54l0.88-9.03l2.8,0.27l-0.88,9.03c-0.09,0.9-0.31,1.71-0.68,2.45c-0.36,0.73-0.84,1.35-1.43,1.85
		c-0.59,0.5-1.28,0.86-2.09,1.1c-0.8,0.23-1.68,0.3-2.65,0.2c-0.97-0.1-1.83-0.33-2.57-0.71c-0.74-0.39-1.36-0.88-1.84-1.49
		c-0.48-0.61-0.83-1.31-1.05-2.09c-0.21-0.79-0.27-1.64-0.18-2.53l0.88-9.03l2.8,0.27l-0.88,9.02c-0.06,0.58-0.03,1.11,0.08,1.59
		c0.11,0.48,0.3,0.9,0.56,1.26c0.27,0.36,0.6,0.64,1.01,0.87C481.12,14.49,481.6,14.63,482.14,14.68z"/>
	<path class="st0" d="M503.49,19.92l-2.77-0.43c-0.19-0.03-0.34-0.1-0.44-0.22c-0.1-0.11-0.17-0.24-0.22-0.37l-2.58-6.28
		c-0.08,0.16-0.17,0.3-0.27,0.41l-4.14,4.79c-0.1,0.1-0.21,0.2-0.34,0.29c-0.12,0.08-0.26,0.11-0.44,0.08l-2.6-0.4l6.16-6.93
		l-3.65-8l2.77,0.43c0.19,0.03,0.33,0.08,0.4,0.15c0.08,0.06,0.15,0.16,0.21,0.29l2.56,6.01c0.1-0.16,0.21-0.32,0.33-0.48l3.89-4.43
		c0.1-0.12,0.19-0.2,0.29-0.25c0.1-0.05,0.22-0.06,0.36-0.04l2.66,0.41l-5.92,6.41L503.49,19.92z"/>
</g>
</svg>
