<?xml version="1.0" encoding="utf-8"?>
<!-- Generator: Adobe Illustrator 27.9.0, SVG Export Plug-In . SVG Version: 6.00 Build 0)  -->
<svg version="1.1" id="Layer_1" xmlns="http://www.w3.org/2000/svg" xmlns:xlink="http://www.w3.org/1999/xlink" x="0px" y="0px"
	 viewBox="0 0 940 940" style="enable-background:new 0 0 940 940;" xml:space="preserve">
<style type="text/css">
	.st0{fill:#FFFFFF;}
</style>
<g id="Development">
	<path class="st0" d="M733.4,87.4c-1.1,1.4-2.3,2.6-3.6,3.4c-1.3,0.8-2.8,1.4-4.3,1.7c-1.5,0.2-3.1,0.2-4.6-0.2
		c-1.5-0.4-3.1-1.1-4.6-2.2l-7.5-5.5l14.3-19.7l7.5,5.5c1.5,1.1,2.7,2.3,3.5,3.7c0.9,1.3,1.4,2.8,1.7,4.3c0.2,1.5,0.1,3-0.2,4.5
		C735.2,84.5,734.5,85.9,733.4,87.4z M729.7,84.6c0.8-1.1,1.3-2.1,1.6-3.2c0.3-1,0.4-2,0.3-3c-0.1-1-0.5-1.9-0.9-2.8
		c-0.6-0.9-1.2-1.7-2.2-2.3l-3.8-2.8l-10.1,13.9l3.8,2.8c1,0.7,1.9,1.1,2.9,1.5c1,0.2,2,0.2,2.9,0.1c1-0.2,2-0.7,2.8-1.2
		C728.1,86.7,728.9,85.8,729.7,84.6z"/>
	<path class="st0" d="M750.4,102.9c0.4-0.4,0.6-0.9,0.8-1.4c0.2-0.5,0.3-0.9,0.3-1.4c0-0.5-0.2-0.9-0.4-1.4c-0.2-0.5-0.6-0.9-1-1.3
		c-1-0.7-1.9-1-2.9-1c-1,0.1-2,0.6-2.9,1.4L750.4,102.9z M742.7,99.8c-0.5,0.7-0.9,1.5-1.1,2.1c-0.2,0.6-0.3,1.2-0.2,1.8
		c0,0.6,0.2,1.1,0.5,1.7c0.3,0.5,0.7,0.9,1.2,1.4c0.5,0.5,1.1,0.7,1.5,0.9c0.5,0.2,0.9,0.3,1.3,0.4c0.4,0.1,0.7,0.1,1,0.2
		c0.3,0.1,0.6,0.1,0.8,0.3c0.2,0.2,0.3,0.5,0.4,0.8l0,1.9c-0.7,0.2-1.4,0.1-2.1,0.1c-0.7,0-1.3-0.2-1.9-0.4
		c-0.6-0.2-1.2-0.5-1.8-0.9c-0.5-0.4-1.1-0.7-1.5-1.1c-1-0.7-1.6-1.7-2.2-2.5c-0.6-1-0.9-1.9-1-3s0-2.2,0.4-3.3
		c0.4-1.1,1.1-2.4,2-3.5c0.7-0.9,1.6-1.6,2.5-2.2c1-0.6,1.9-1,3-1.1c1-0.2,2.1-0.1,3.1,0.2c1.1,0.3,2.2,0.8,3.1,1.6
		c0.9,0.6,1.5,1.5,2,2.3c0.5,0.9,0.7,1.7,0.9,2.7c0.1,0.9,0,1.9-0.4,2.9c-0.3,1-0.8,2-1.7,2.9c-0.4,0.5-0.7,0.8-0.9,0.9
		c-0.2,0.1-0.5,0-0.8-0.2L742.7,99.8z"/>
	<path class="st0" d="M776.9,114.6l-16.6,8.5l-2.8-2.5l6.3-17.5l2.6,2.3c0.2,0.2,0.3,0.5,0.5,0.7c0,0.3,0,0.5,0,0.7l-3.6,9.1
		c-0.3,0.5-0.4,1-0.7,1.5c-0.3,0.5-0.5,0.9-0.8,1.4c0.4-0.3,0.8-0.7,1.3-0.9c0.5-0.3,1-0.6,1.4-0.8l8.6-4.7c0.2-0.1,0.4-0.1,0.7-0.2
		c0.2,0,0.5,0.2,0.7,0.3L776.9,114.6z"/>
	<path class="st0" d="M784.3,133c0.4-0.4,0.6-0.9,0.9-1.3c0.3-0.4,0.3-0.9,0.4-1.3c0.1-0.5-0.1-0.9-0.3-1.4c-0.2-0.5-0.5-1-0.9-1.3
		c-0.9-0.8-1.8-1.3-2.8-1.2c-1,0.1-2,0.5-2.9,1.2L784.3,133z M776.8,129.4c-0.5,0.6-1,1.4-1.2,2c-0.2,0.6-0.4,1.2-0.3,1.8
		c0,0.6,0.1,1.1,0.4,1.7c0.2,0.6,0.7,1,1.1,1.5c0.5,0.5,1,0.8,1.4,1c0.5,0.3,0.9,0.4,1.2,0.5c0.4,0.1,0.7,0.2,1,0.3
		c0.3,0.1,0.5,0.3,0.7,0.3c0.2,0.3,0.3,0.5,0.3,0.8l-0.1,1.9c-0.7,0.1-1.4,0-2,0c-0.7-0.1-1.3-0.3-1.9-0.6c-0.6-0.2-1.2-0.6-1.7-1
		c-0.5-0.4-1-0.8-1.5-1.2c-0.9-0.8-1.6-1.8-2-2.7c-0.5-1-0.7-2.1-0.8-3.1c0-1.1,0.2-2.2,0.7-3.4c0.5-1.1,1.2-2.3,2.3-3.4
		c0.8-0.9,1.7-1.5,2.7-2c1.1-0.5,2-0.8,3-0.9c1.1-0.1,2.1,0.1,3.1,0.4c1,0.4,2.1,1,3,2c0.8,0.7,1.4,1.6,1.8,2.5
		c0.5,0.9,0.6,1.8,0.6,2.8c0.1,0.9-0.1,1.9-0.6,2.9s-1,1.9-1.9,2.8c-0.5,0.4-0.7,0.8-1,0.8c-0.2,0-0.5-0.1-0.8-0.3L776.8,129.4z"/>
	<path class="st0" d="M807.7,136l-17.8,17.5l-3-3l17.8-17.5L807.7,136z"/>
	<path class="st0" d="M815.7,155.3c0.9,0.9,1.5,2,1.9,3c0.4,1.1,0.6,2.2,0.5,3.2c-0.1,1-0.3,2.1-0.9,3.2c-0.5,1-1.3,2-2.4,2.9
		s-2.1,1.6-3.1,2.1s-2.2,0.7-3.3,0.6c-1.1,0-2.1-0.3-3.2-0.8c-1-0.5-1.9-1.2-2.8-2.2c-0.9-0.9-1.5-2-1.9-3.1s-0.6-2.2-0.5-3.2
		c0.1-1.1,0.4-2.1,0.9-3.2c0.5-1,1.3-2,2.4-2.9c1-0.9,2.1-1.6,3.1-2.1c1.1-0.4,2.2-0.7,3.3-0.6c1.1,0,2.1,0.3,3.2,0.8
		C813.9,153.6,814.9,154.3,815.7,155.3z M804.9,165.1c1,1,2,1.5,3.2,1.4s2.4-0.8,3.8-2.1c1.4-1.3,2.2-2.5,2.4-3.6
		c0.3-1.1-0.1-2.3-1.1-3.3c-1-1.1-2-1.5-3.3-1.4c-1.2,0.1-2.4,0.8-3.8,2.1c-1.4,1.2-2.2,2.5-2.4,3.6
		C803.5,162.9,803.9,164.1,804.9,165.1z"/>
	<path class="st0" d="M821.8,180.8c-0.1,0.7-0.1,1.4,0.1,1.9c0.1,0.6,0.5,1.2,0.8,1.6c0.4,0.5,0.9,0.8,1.4,1.1
		c0.5,0.3,1,0.3,1.6,0.3c0.6,0,1.3-0.2,2-0.6c0.7-0.4,1.4-0.8,2.2-1.5c0.7-0.7,1.4-1.2,1.9-1.9c0.5-0.5,0.7-1.2,0.9-1.6
		c0.2-0.5,0.1-1,0.1-1.5c-0.1-0.5-0.4-0.9-0.7-1.3c-0.6-0.7-1.2-1.1-1.8-1.4c-0.6-0.2-1.4-0.4-2.2-0.3L821.8,180.8z M829.6,174
		c1.1,0,2,0.2,3.1,0.6c0.9,0.4,1.8,1.1,2.6,2c0.6,0.8,1,1.5,1.2,2.3c0.2,0.9,0.1,1.8-0.1,2.6c-0.2,0.9-0.6,1.9-1.3,2.7
		c-0.6,1-1.6,1.8-2.6,2.7c-1,0.8-2,1.5-3.2,1.9c-1.1,0.4-2.2,0.7-3.2,0.7c-1,0-2-0.1-3-0.6c-0.9-0.4-1.7-1.1-2.5-1.9
		c-0.7-0.7-1-1.5-1.2-2.2c-0.2-0.7-0.3-1.5-0.2-2.2l-5.4,4.5l-2.7-3.2l17.8-14.5l1.6,2c0.3,0.4,0.4,0.9,0.1,1.3L829.6,174z"/>
	<path class="st0" d="M830.6,199.2l13.8-10.4l1.6,2.1c0.3,0.4,0.4,0.9,0,1.3l-0.8,1c0.4,0.1,0.9,0.1,1.3,0.2
		c0.4,0.1,0.8,0.2,1.2,0.4c0.4,0.2,0.7,0.4,1.1,0.7s0.7,0.6,1,1c0.7,0.8,0.9,1.7,0.9,2.6c0,0.9-0.3,1.8-0.9,2.7
		c0.6-0.1,1.2-0.2,1.8,0c0.6,0.1,1.1,0.2,1.6,0.5c0.5,0.3,0.9,0.5,1.4,0.9c0.4,0.4,0.8,0.7,1.1,1.2c0.6,0.8,0.9,1.5,1.2,2.3
		c0.3,0.8,0.2,1.5,0.1,2.3c-0.1,0.7-0.5,1.4-0.9,2.2c-0.4,0.7-1.2,1.4-1.9,2l-8.8,6.6l-2.5-3.3l8.8-6.6c0.8-0.7,1.4-1.3,1.5-2
		s0-1.5-0.6-2.2c-0.2-0.4-0.6-0.7-0.9-0.8c-0.3-0.2-0.7-0.3-1.1-0.4c-0.4-0.1-0.8,0-1.2,0.1c-0.4,0.1-0.9,0.4-1.2,0.7l-8.8,6.6
		l-2.5-3.3l8.8-6.6c0.9-0.7,1.5-1.4,1.6-2c0.1-0.7,0-1.4-0.6-2.1c-0.3-0.5-0.9-0.8-1.4-1.1c-0.5-0.3-1.1-0.4-1.8-0.4l-10.1,7.6
		L830.6,199.2z"/>
	<path class="st0" d="M864.4,228.2c0.5-0.3,0.8-0.7,1.1-1.1c0.3-0.4,0.5-0.8,0.7-1.3c0.2-0.4,0.1-0.9,0.1-1.4c0-0.5-0.3-1-0.6-1.6
		c-0.7-0.9-1.5-1.6-2.5-1.8c-0.9-0.2-2,0.1-3.2,0.6L864.4,228.2z M857.8,223.1c-0.7,0.6-1.2,1.1-1.7,1.7c-0.4,0.5-0.6,1.2-0.8,1.7
		c-0.1,0.6-0.1,1.1,0,1.7c0.1,0.6,0.4,1.2,0.8,1.7c0.3,0.6,0.8,0.9,1.2,1.3c0.4,0.4,0.7,0.5,1.2,0.7c0.4,0.2,0.7,0.3,0.9,0.5
		c0.3,0.2,0.5,0.4,0.6,0.5c0.2,0.3,0.2,0.6,0.2,0.9l-0.5,1.9c-0.7,0-1.4-0.2-2.1-0.5c-0.6-0.2-1.3-0.6-1.8-1s-1-0.8-1.4-1.3
		c-0.4-0.5-0.9-0.9-1.2-1.4c-0.7-0.9-1.2-2-1.5-3.1c-0.3-1.1-0.3-2.2-0.1-3.2s0.6-2.2,1.3-3.1c0.7-1,1.6-1.9,2.9-2.8
		c0.9-0.7,2-1.2,3.1-1.5c1.1-0.3,2.2-0.4,3.2-0.2c1,0.1,2.1,0.5,3,1.1c1,0.6,1.8,1.5,2.5,2.5c0.6,0.9,1.1,1.8,1.3,2.8
		s0.3,1.9,0.1,2.8c-0.1,0.9-0.5,1.9-1.2,2.7c-0.6,0.9-1.4,1.6-2.4,2.4c-0.5,0.3-0.9,0.6-1.2,0.6c-0.3,0-0.5-0.2-0.7-0.4L857.8,223.1
		z"/>
	<path class="st0" d="M873.8,238.3c0.5,0.1,0.9,0.2,1.4,0.4c0.5,0.2,0.9,0.3,1.4,0.6c0.4,0.3,0.8,0.5,1.2,0.9c0.3,0.4,0.8,0.7,1,1.2
		c0.5,0.8,0.8,1.5,0.9,2.4c0.2,0.8,0.1,1.5-0.1,2.2c-0.2,0.7-0.6,1.5-1.1,2.1s-1.2,1.2-2.1,1.8l-9.2,6l-2.3-3.5l9.2-6
		c0.9-0.6,1.4-1.2,1.6-1.9c0.2-0.7,0.1-1.5-0.5-2.4c-0.3-0.6-0.9-1.1-1.5-1.5c-0.6-0.3-1.4-0.6-2.1-0.8l-10.5,6.8l-2.3-3.5l14.6-9.3
		l1.4,2.1c0.3,0.5,0.3,0.9-0.1,1.3L873.8,238.3z"/>
	<path class="st0" d="M875.1,269.5c-0.8-1.3-1-2.5-0.7-3.7s1.1-2.1,2.5-2.8l8.3-4.9l-0.9-1.5c-0.1-0.2-0.1-0.4-0.1-0.6
		c0-0.2,0.2-0.4,0.5-0.5l1.4-0.8l1.8,2.2l4.5-1.7c0.2-0.1,0.4,0,0.6,0.1c0.2,0.1,0.3,0.2,0.4,0.5l1.1,1.8l-4.7,2.8l2.3,4l-2.6,1.5
		l-2.3-4l-8,4.8c-0.5,0.2-0.8,0.6-0.9,1c-0.2,0.4,0,0.8,0.2,1.2c0.1,0.2,0.2,0.4,0.4,0.5c0.1,0.1,0.3,0.2,0.4,0.3
		c0.1,0.1,0.2,0.2,0.3,0.2c0.1,0.1,0.2,0.1,0.2,0.2c0.1,0.1,0.1,0.2,0,0.3c0,0.1-0.1,0.2-0.1,0.3l-1.1,2.1c-0.7-0.2-1.5-0.7-2-1.2
		C876,270.9,875.6,270.3,875.1,269.5z"/>
</g>
</svg>
