<?xml version="1.0" encoding="utf-8"?>
<!-- Generator: Adobe Illustrator 27.9.0, SVG Export Plug-In . SVG Version: 6.00 Build 0)  -->
<svg version="1.1" id="Layer_1" xmlns="http://www.w3.org/2000/svg" xmlns:xlink="http://www.w3.org/1999/xlink" x="0px" y="0px"
	 viewBox="0 0 940 940" style="enable-background:new 0 0 940 940;" xml:space="preserve">
<style type="text/css">
	.st0{fill:#FFFFFF;}
</style>
<g id="Digital_Marketing">
	<path class="st0" d="M912.6,361.6c-1.6,0.4-3.1,0.5-4.6,0.3s-2.8-0.6-4-1.3c-1.2-0.7-2.2-1.7-3.1-2.9c-0.9-1.2-1.5-2.6-2-4.3
		l-2.1-8.2l21.5-5.6l2.1,8.2c0.4,1.6,0.5,3.2,0.4,4.7c-0.2,1.5-0.6,2.8-1.3,4s-1.6,2.2-2.8,3.1C915.6,360.6,914.2,361.2,912.6,361.6
		z M911.5,357.5c1.2-0.3,2.2-0.7,3.1-1.3c0.9-0.5,1.5-1.2,2-2s0.8-1.6,0.9-2.5c0.1-0.9,0.1-1.9-0.2-3l-1.1-4.2l-15.2,4l1.1,4.2
		c0.3,1.1,0.7,2,1.3,2.7s1.3,1.3,2.1,1.8c0.8,0.4,1.7,0.7,2.7,0.7C909.3,357.9,910.4,357.8,911.5,357.5z"/>
	<path class="st0" d="M919.7,372.1l-15.5,3.2l-0.8-3.7l15.5-3.2L919.7,372.1z M924.3,371.7c-0.3,0.1-0.6,0.1-0.9,0s-0.6-0.2-0.9-0.4
		c-0.3-0.2-0.5-0.4-0.7-0.6c-0.2-0.3-0.3-0.6-0.4-0.9c-0.1-0.3-0.1-0.6,0-1c0.1-0.3,0.2-0.6,0.4-0.8c0.2-0.3,0.4-0.5,0.6-0.7
		c0.2-0.2,0.5-0.3,0.9-0.4c0.3-0.1,0.7-0.1,1,0s0.6,0.2,0.9,0.3s0.5,0.4,0.7,0.6c0.2,0.3,0.3,0.6,0.4,0.9c0.1,0.3,0.1,0.7,0,1
		s-0.2,0.6-0.3,0.9c-0.2,0.3-0.4,0.5-0.6,0.7C924.9,371.4,924.6,371.6,924.3,371.7z"/>
	<path class="st0" d="M917,388.6c0.1,0.5,0.2,0.9,0.4,1.2c0.2,0.3,0.4,0.6,0.7,0.8s0.6,0.3,0.9,0.4c0.3,0.1,0.7,0.1,1.1,0
		c0.8-0.1,1.3-0.5,1.7-1s0.5-1.3,0.3-2.2c-0.2-0.9-0.5-1.6-1-2s-1.2-0.5-1.9-0.4c-0.4,0.1-0.7,0.2-1,0.3c-0.3,0.2-0.5,0.4-0.7,0.7
		c-0.2,0.3-0.3,0.6-0.4,1C916.9,387.7,916.9,388.2,917,388.6z M908.8,394.3c0.3,0,0.5-0.2,0.7-0.4s0.3-0.5,0.3-0.8
		c0.1-0.3,0.1-0.7,0.1-1.1s-0.1-0.9-0.1-1.4s-0.1-1-0.2-1.5c-0.1-0.5-0.1-1-0.1-1.5c-0.3-0.4-0.6-0.7-1-0.9
		c-0.4-0.2-0.7-0.3-1.2-0.2c-0.3,0-0.5,0.1-0.7,0.3c-0.2,0.2-0.4,0.4-0.5,0.8c-0.1,0.3-0.2,0.8-0.2,1.2c0,0.5,0,1.1,0.1,1.8
		c0.1,0.7,0.3,1.3,0.5,1.8s0.4,0.9,0.7,1.2c0.2,0.3,0.5,0.5,0.8,0.6C908.2,394.4,908.5,394.4,908.8,394.3z M925.2,395.4l-1.4,0.2
		c-0.4,0.1-0.8-0.1-1-0.7l-0.5-1.3c-0.5,0.3-1.1,0.5-1.7,0.6c-0.8,0.1-1.5,0.1-2.2-0.1s-1.3-0.5-1.8-1s-1-1.1-1.3-1.8
		c-0.4-0.7-0.6-1.5-0.7-2.3c0-0.3-0.1-0.6-0.1-0.9s0-0.6,0-0.9c-0.4-0.4-0.7-0.6-1.1-0.6c-0.3,0-0.5,0.2-0.6,0.5s-0.1,0.7-0.1,1.2
		s0.1,1,0.2,1.6c0.1,0.6,0.2,1.2,0.2,1.9c0.1,0.6,0.1,1.3,0,1.9c0,0.6-0.1,1.2-0.3,1.7s-0.5,1-0.9,1.3c-0.4,0.4-1,0.6-1.7,0.7
		s-1.4,0.1-2.1-0.2c-0.7-0.2-1.4-0.6-2-1.2s-1.2-1.3-1.6-2.2c-0.5-0.9-0.8-1.9-1-3.1s-0.2-2.2-0.2-3.1c0.1-0.9,0.3-1.7,0.5-2.3
		c0.3-0.6,0.6-1.1,1.1-1.5s0.9-0.6,1.5-0.7c0.7-0.1,1.4,0,1.9,0.3c0.6,0.4,1.1,0.9,1.5,1.6c0.1-0.5,0.4-0.8,0.7-1.1
		c0.3-0.3,0.8-0.5,1.3-0.6c0.2,0,0.5,0,0.7,0c0.3,0,0.5,0.1,0.8,0.3s0.5,0.3,0.8,0.5s0.5,0.5,0.7,0.8c0.3-0.9,0.8-1.6,1.4-2.2
		c0.6-0.6,1.4-0.9,2.4-1.1c0.8-0.1,1.5-0.1,2.2,0.1s1.3,0.6,1.8,1c0.5,0.5,1,1.1,1.3,1.8c0.4,0.7,0.6,1.5,0.8,2.4
		c0.1,0.7,0.2,1.3,0.1,1.9c0,0.6-0.1,1.2-0.3,1.7L925.2,395.4z"/>
	<path class="st0" d="M927,408l-15.7,2l-0.5-3.8l15.7-2L927,408z M931.7,408c-0.3,0-0.6,0-0.9-0.1c-0.3-0.1-0.6-0.2-0.8-0.4
		c-0.2-0.2-0.4-0.4-0.6-0.7c-0.2-0.3-0.3-0.6-0.3-0.9s0-0.6,0.1-1c0.1-0.3,0.2-0.6,0.4-0.8c0.2-0.2,0.4-0.4,0.7-0.6s0.6-0.3,0.9-0.3
		c0.3,0,0.7,0,1,0.1s0.6,0.2,0.8,0.4s0.4,0.4,0.6,0.7c0.2,0.3,0.3,0.6,0.3,0.9s0,0.7-0.1,1s-0.2,0.6-0.4,0.8
		c-0.2,0.3-0.4,0.5-0.7,0.6C932.3,407.8,932,407.9,931.7,408z"/>
	<path class="st0" d="M913.9,424.4c-0.1-1.4,0.2-2.5,0.9-3.3s1.7-1.3,3.1-1.4l8.8-0.8l-0.2-1.6c0-0.2,0-0.4,0.1-0.5
		c0.1-0.2,0.3-0.3,0.6-0.3l1.5-0.1l0.6,2.5l4.4,0.4c0.2,0,0.4,0.1,0.5,0.2s0.2,0.3,0.2,0.5l0.2,2l-5,0.5l0.4,4.2l-2.7,0.2l-0.4-4.2
		l-8.5,0.8c-0.5,0-0.9,0.2-1.1,0.5s-0.4,0.6-0.3,1c0,0.2,0.1,0.4,0.1,0.6c0.1,0.2,0.1,0.3,0.2,0.4c0.1,0.1,0.1,0.2,0.2,0.3
		c0.1,0.1,0.1,0.2,0.1,0.3c0,0.1,0,0.2-0.1,0.3c0,0.1-0.1,0.2-0.2,0.3l-1.7,1.3c-0.5-0.5-0.9-1.1-1.2-1.8
		C914.2,425.9,914,425.2,913.9,424.4z"/>
	<path class="st0" d="M922.7,445.1c-0.1-1.1-0.3-2-0.4-2.7s-0.4-1.3-0.6-1.8c-0.2-0.4-0.5-0.7-0.8-0.9c-0.3-0.2-0.6-0.3-1-0.2
		c-0.7,0-1.1,0.3-1.4,0.7c-0.3,0.4-0.4,0.9-0.3,1.6c0,0.8,0.2,1.4,0.5,2s0.8,1.1,1.4,1.6L922.7,445.1z M929.1,436
		c1.8,1.7,2.7,3.9,2.8,6.4c0,0.9-0.1,1.7-0.3,2.5c-0.3,0.7-0.6,1.4-1.2,1.9c-0.5,0.5-1.1,0.9-1.9,1.2c-0.7,0.3-1.5,0.5-2.4,0.5
		l-10,0.5l-0.1-1.7c0-0.4,0-0.6,0.1-0.8c0.1-0.2,0.3-0.4,0.6-0.5l1.1-0.4c-0.4-0.4-0.7-0.7-1-1.1s-0.5-0.7-0.7-1.1s-0.4-0.8-0.5-1.3
		s-0.2-1-0.2-1.5c0-0.7,0-1.3,0.2-1.9s0.4-1.1,0.7-1.5s0.8-0.8,1.3-1s1.1-0.4,1.8-0.4c0.4,0,0.8,0,1.2,0.1s0.8,0.3,1.2,0.6
		c0.4,0.3,0.7,0.7,1.1,1.1c0.3,0.5,0.7,1,0.9,1.7c0.3,0.7,0.5,1.5,0.7,2.4s0.3,2,0.4,3.2h0.9c1.1,0,1.8-0.3,2.3-0.8s0.7-1.1,0.7-2
		c0-0.6-0.1-1.1-0.3-1.5s-0.3-0.7-0.5-1s-0.4-0.6-0.5-0.8c-0.2-0.2-0.2-0.5-0.3-0.8c0-0.3,0-0.5,0.2-0.7c0.1-0.2,0.3-0.4,0.5-0.5
		L929.1,436z"/>
	<path class="st0" d="M939.4,463.2l-22.9,0.1v-3.8l22.9-0.1V463.2z"/>
	<path class="st0" d="M936.9,505.9l-22.2-0.9l0.1-3.6l14.4,0.6c0.6,0,1.2,0.1,1.9,0.2l-12.4-7.2c-0.6-0.3-0.9-0.8-0.8-1.5v-0.6
		c0-0.7,0.3-1.1,1-1.4l12.9-6.3c-0.3,0-0.7,0-1,0s-0.6,0-0.9,0l-14.4-0.6l0.1-3.6l22.2,0.9l-0.1,3.1c0,0.2,0,0.3,0,0.5
		c0,0.1,0,0.3-0.1,0.4c0,0.1-0.1,0.2-0.2,0.3c-0.1,0.1-0.2,0.2-0.4,0.3l-12.6,6.2c-0.3,0.2-0.7,0.3-1,0.4c-0.4,0.1-0.7,0.3-1.1,0.4
		c0.4,0.2,0.7,0.3,1.1,0.5c0.4,0.2,0.7,0.3,1,0.5l12,7.1c0.1,0.1,0.3,0.2,0.4,0.3c0.1,0.1,0.1,0.2,0.2,0.3c0,0.1,0.1,0.2,0.1,0.4
		c0,0.1,0,0.3,0,0.5L936.9,505.9z"/>
	<path class="st0" d="M921.2,522.7c0-1.1,0-2-0.1-2.8s-0.2-1.4-0.4-1.8c-0.2-0.5-0.4-0.8-0.7-1s-0.6-0.3-0.9-0.4
		c-0.7-0.1-1.2,0.1-1.5,0.5s-0.5,0.9-0.6,1.5c-0.1,0.8,0,1.5,0.3,2c0.2,0.6,0.6,1.2,1.2,1.8L921.2,522.7z M928.7,514.5
		c1.5,1.9,2.2,4.2,2,6.7c-0.1,0.9-0.3,1.7-0.6,2.4s-0.8,1.3-1.4,1.7c-0.6,0.5-1.2,0.8-2,1s-1.6,0.3-2.5,0.2l-9.9-0.8l0.1-1.7
		c0-0.4,0.1-0.6,0.2-0.8c0.1-0.2,0.4-0.3,0.7-0.4l1.2-0.3c-0.3-0.4-0.6-0.8-0.9-1.2c-0.2-0.4-0.4-0.8-0.6-1.2
		c-0.1-0.4-0.3-0.9-0.3-1.4c-0.1-0.5-0.1-1,0-1.5c0.1-0.7,0.2-1.3,0.4-1.8s0.5-1,0.9-1.4s0.9-0.7,1.4-0.8c0.5-0.2,1.2-0.3,1.9-0.2
		c0.4,0,0.8,0.1,1.2,0.3s0.8,0.4,1.1,0.7s0.6,0.7,0.9,1.3c0.3,0.5,0.5,1.1,0.7,1.8s0.3,1.6,0.4,2.5c0.1,0.9,0.1,2,0,3.2l0.9,0.1
		c1.1,0.1,1.9-0.1,2.4-0.5s0.8-1,0.9-1.9c0-0.6,0-1.1-0.1-1.6c-0.1-0.4-0.3-0.8-0.4-1.1c-0.1-0.3-0.3-0.6-0.4-0.9
		c-0.1-0.3-0.2-0.5-0.2-0.9c0-0.3,0.1-0.5,0.2-0.7c0.2-0.2,0.3-0.3,0.5-0.4L928.7,514.5z"/>
	<path class="st0" d="M926.4,538.5c0.9,0.6,1.5,1.3,2,2s0.6,1.6,0.5,2.5c-0.1,0.7-0.3,1.3-0.7,1.7l-2.8-0.6
		c-0.2-0.1-0.3-0.2-0.4-0.3c-0.1-0.1-0.1-0.2-0.1-0.4c0-0.1,0.1-0.4,0.2-0.7c0.1-0.3,0.1-0.6,0.2-0.9c0-0.4,0-0.8-0.1-1.1
		s-0.2-0.7-0.4-1s-0.4-0.5-0.8-0.8c-0.3-0.2-0.7-0.5-1.1-0.7l-9.7-1.1l0.4-3.8l15.7,1.8l-0.3,2.2c0,0.4-0.1,0.6-0.3,0.8
		c-0.1,0.1-0.4,0.2-0.8,0.2L926.4,538.5z"/>
	<path class="st0" d="M932.9,557.1l-12.9-2l-0.1,0.7c0,0.3,0,0.5,0,0.6c0,0.2,0.2,0.3,0.3,0.5l4.2,4.6c0.2,0.2,0.3,0.4,0.4,0.6
		c0.1,0.2,0.1,0.5,0,0.8l-0.5,3.4l-5.1-5.7c-0.4-0.4-0.7-0.8-0.9-1.3c-0.2,0.2-0.4,0.4-0.6,0.5c-0.2,0.1-0.5,0.3-0.7,0.4l-8.4,4
		l0.5-3.4c0-0.3,0.1-0.5,0.3-0.7c0.1-0.2,0.3-0.4,0.6-0.5l6.5-3.1c0.2-0.1,0.4-0.2,0.5-0.4c0.1-0.1,0.2-0.4,0.2-0.7l0.1-0.9
		l-7.1-1.1l0.6-3.8l22.6,3.5L932.9,557.1z"/>
	<path class="st0" d="M906.4,577.6c0.3-1.4,0.8-2.3,1.7-2.9c0.9-0.6,2-0.7,3.4-0.5l8.7,1.6l0.3-1.6c0-0.2,0.1-0.4,0.3-0.5
		s0.4-0.1,0.6-0.1l1.5,0.3l-0.1,2.6l4.1,1.6c0.2,0.1,0.3,0.2,0.4,0.4c0.1,0.2,0.1,0.4,0.1,0.6L927,581l-4.9-0.9l-0.8,4.1l-2.7-0.5
		l0.8-4.1L911,578c-0.5-0.1-0.9,0-1.2,0.1c-0.3,0.2-0.5,0.5-0.6,0.9c0,0.2-0.1,0.4,0,0.6c0,0.2,0.1,0.3,0.1,0.4
		c0,0.1,0.1,0.2,0.1,0.4c0,0.1,0.1,0.2,0,0.3c0,0.1-0.1,0.2-0.1,0.3c-0.1,0.1-0.2,0.1-0.3,0.2l-2,0.8c-0.4-0.6-0.6-1.3-0.7-2.1
		C906.3,579.2,906.3,578.4,906.4,577.6z"/>
	<path class="st0" d="M919.3,594.7l-15.4-3.4l0.8-3.7l15.4,3.4L919.3,594.7z M923.6,596.3c-0.3-0.1-0.6-0.2-0.9-0.4
		c-0.3-0.2-0.5-0.4-0.6-0.7s-0.3-0.5-0.3-0.9c-0.1-0.3,0-0.6,0-1s0.2-0.6,0.4-0.9c0.2-0.3,0.4-0.5,0.7-0.6c0.3-0.2,0.5-0.3,0.9-0.3
		s0.6,0,0.9,0c0.3,0.1,0.6,0.2,0.9,0.4c0.3,0.2,0.5,0.4,0.6,0.7c0.2,0.2,0.3,0.5,0.3,0.9c0.1,0.3,0.1,0.6,0,1
		c-0.1,0.3-0.2,0.6-0.4,0.9c-0.2,0.3-0.4,0.5-0.7,0.6c-0.3,0.2-0.5,0.3-0.9,0.4C924.3,596.3,924,596.3,923.6,596.3z"/>
	<path class="st0" d="M913.9,605.6c0.2,0.4,0.5,0.8,0.6,1.2c0.2,0.4,0.3,0.8,0.4,1.2c0.1,0.4,0.2,0.9,0.2,1.3c0,0.5,0,1-0.2,1.5
		c-0.2,0.8-0.5,1.6-0.9,2.1c-0.4,0.6-1,1-1.6,1.4s-1.3,0.5-2.1,0.6s-1.6,0-2.4-0.2l-9.8-2.2l0.8-3.7l9.8,2.2
		c0.9,0.2,1.7,0.2,2.3-0.2c0.6-0.3,1-0.9,1.2-1.8c0.1-0.6,0.1-1.3,0-1.9c-0.2-0.6-0.4-1.2-0.8-1.9l-11.2-2.5l0.8-3.7l15.4,3.4
		l-0.5,2.3c-0.1,0.5-0.4,0.8-0.9,0.8L913.9,605.6z"/>
	<path class="st0" d="M902,625.9c-0.1,0.5-0.1,0.9-0.1,1.2c0.1,0.4,0.2,0.7,0.3,1c0.2,0.3,0.4,0.5,0.7,0.7s0.6,0.3,1,0.4
		c0.8,0.2,1.4,0.1,2-0.3c0.6-0.4,0.9-1,1.1-1.9c0.2-0.9,0.1-1.6-0.2-2.2c-0.3-0.5-0.9-0.9-1.7-1.1c-0.4-0.1-0.7-0.1-1-0.1
		s-0.6,0.2-0.9,0.3c-0.3,0.2-0.5,0.4-0.7,0.7C902.2,625.1,902.1,625.5,902,625.9z M892.3,628.2c0.3,0.1,0.6,0,0.8-0.1
		s0.4-0.4,0.6-0.6s0.3-0.6,0.5-1c0.1-0.4,0.3-0.8,0.4-1.3c0.1-0.5,0.3-0.9,0.4-1.4c0.1-0.5,0.3-1,0.4-1.4c-0.1-0.5-0.3-0.9-0.6-1.2
		s-0.6-0.5-1-0.6c-0.3-0.1-0.5-0.1-0.8,0s-0.5,0.3-0.8,0.5c-0.2,0.3-0.5,0.6-0.7,1.1c-0.2,0.4-0.4,1-0.5,1.7
		c-0.2,0.7-0.2,1.3-0.2,1.8s0,1,0.2,1.3c0.1,0.4,0.3,0.7,0.5,0.9C891.7,628,892,628.1,892.3,628.2z M907,635.3l-1.4-0.3
		c-0.4-0.1-0.6-0.4-0.6-1l0.1-1.4c-0.6,0.1-1.2,0.1-1.8-0.1c-0.8-0.2-1.4-0.5-2-0.9c-0.5-0.4-1-1-1.3-1.6s-0.5-1.3-0.6-2.1
		s0-1.6,0.2-2.5c0.1-0.3,0.1-0.6,0.2-0.9c0.1-0.3,0.2-0.5,0.3-0.8c-0.2-0.5-0.5-0.9-0.8-0.9c-0.3-0.1-0.6,0-0.8,0.3
		s-0.4,0.6-0.6,1.1c-0.2,0.5-0.3,1-0.5,1.6c-0.1,0.6-0.3,1.2-0.5,1.8s-0.4,1.2-0.7,1.8s-0.6,1.1-0.9,1.5c-0.4,0.4-0.8,0.7-1.4,0.9
		c-0.5,0.2-1.2,0.2-1.9,0s-1.3-0.5-1.9-1c-0.6-0.5-1-1.1-1.4-1.8s-0.6-1.6-0.7-2.6c-0.1-1,0-2.1,0.2-3.3c0.3-1.2,0.6-2.1,1-3
		c0.4-0.8,0.9-1.5,1.4-1.9c0.5-0.5,1-0.8,1.6-1s1.1-0.2,1.6-0.1c0.7,0.2,1.3,0.5,1.7,1c0.4,0.6,0.7,1.2,0.8,2.1
		c0.3-0.4,0.7-0.6,1.1-0.8c0.4-0.2,0.9-0.2,1.5-0.1c0.2,0.1,0.5,0.1,0.7,0.3c0.2,0.1,0.4,0.3,0.6,0.5c0.2,0.2,0.4,0.5,0.5,0.8
		c0.2,0.3,0.3,0.6,0.4,1c0.6-0.7,1.3-1.2,2.1-1.5s1.7-0.3,2.6-0.1c0.8,0.2,1.4,0.5,2,0.9c0.5,0.5,1,1,1.3,1.6s0.5,1.4,0.6,2.2
		s0,1.6-0.2,2.5c-0.1,0.7-0.4,1.3-0.6,1.8c-0.3,0.5-0.6,1-0.9,1.5L907,635.3z"/>
</g>
</svg>
