<?xml version="1.0" encoding="utf-8"?>
<!-- Generator: Adobe Illustrator 27.9.0, SVG Export Plug-In . SVG Version: 6.00 Build 0)  -->
<svg version="1.1" id="Layer_1" xmlns="http://www.w3.org/2000/svg" xmlns:xlink="http://www.w3.org/1999/xlink" x="0px" y="0px"
	 viewBox="0 0 96 34" style="enable-background:new 0 0 96 34;" xml:space="preserve">
<style type="text/css">
	.st0{fill:#FFFFFF;}
</style>
<path class="st0" d="M10.88,24.47c0.62-0.06,1.17-0.21,1.63-0.47c0.47-0.25,0.86-0.58,1.16-0.99c0.3-0.41,0.51-0.88,0.64-1.43
	c0.13-0.55,0.17-1.16,0.11-1.82L13.44,9.41l3.21-0.3l0.97,10.35c0.1,1.03,0.02,2-0.23,2.9c-0.24,0.9-0.65,1.7-1.21,2.39
	c-0.55,0.69-1.26,1.25-2.11,1.69c-0.85,0.43-1.83,0.7-2.94,0.81c-1.12,0.1-2.13,0.02-3.05-0.24c-0.92-0.28-1.72-0.7-2.4-1.27
	c-0.67-0.58-1.22-1.29-1.63-2.12C3.65,22.77,3.4,21.83,3.3,20.8L2.33,10.46l3.21-0.3l0.97,10.33c0.06,0.66,0.21,1.25,0.43,1.77
	c0.23,0.52,0.54,0.95,0.91,1.3c0.38,0.34,0.82,0.59,1.32,0.76C9.69,24.47,10.26,24.53,10.88,24.47z"/>
<path class="st0" d="M27.11,25.85l-3.24,0.09L23.4,8.59l3.24-0.09L27.11,25.85z"/>
<path class="st0" d="M40.75,17.11c-0.66,0.39-1.14,0.84-1.46,1.36c-0.31,0.51-0.48,1.06-0.5,1.66c-0.02,0.44,0.04,0.84,0.18,1.2
	c0.14,0.36,0.33,0.67,0.57,0.92c0.25,0.25,0.55,0.45,0.89,0.6c0.35,0.14,0.72,0.22,1.11,0.24c0.7,0.03,1.35-0.05,1.94-0.24
	c0.59-0.2,1.13-0.49,1.62-0.86L40.75,17.11z M51.96,25.7l-2.9-0.12c-0.3-0.01-0.55-0.06-0.74-0.14c-0.18-0.08-0.37-0.24-0.57-0.48
	l-1.15-1.28c-0.79,0.59-1.66,1.04-2.61,1.36c-0.96,0.31-1.98,0.45-3.08,0.4c-0.66-0.03-1.31-0.17-1.95-0.42
	c-0.63-0.26-1.19-0.61-1.67-1.07c-0.49-0.45-0.87-0.99-1.16-1.61c-0.28-0.63-0.4-1.33-0.37-2.09c0.02-0.54,0.13-1.05,0.33-1.52
	c0.2-0.48,0.46-0.92,0.79-1.32c0.33-0.4,0.72-0.76,1.16-1.07c0.45-0.32,0.93-0.59,1.45-0.8c-0.41-0.62-0.69-1.21-0.86-1.79
	c-0.17-0.58-0.24-1.16-0.22-1.73c0.02-0.6,0.16-1.16,0.39-1.69c0.25-0.53,0.59-0.99,1.02-1.38c0.43-0.38,0.96-0.68,1.57-0.88
	c0.62-0.21,1.31-0.31,2.08-0.27c0.7,0.03,1.33,0.16,1.87,0.4c0.55,0.24,1.01,0.55,1.39,0.92c0.38,0.38,0.68,0.8,0.88,1.27
	c0.21,0.47,0.33,0.96,0.35,1.46l-1.9,0.32c-0.35,0.06-0.6-0.11-0.75-0.49c-0.06-0.21-0.15-0.41-0.26-0.6
	c-0.1-0.2-0.23-0.37-0.39-0.51c-0.15-0.15-0.34-0.27-0.55-0.36c-0.21-0.1-0.46-0.15-0.74-0.16c-0.34-0.01-0.64,0.03-0.91,0.14
	c-0.27,0.1-0.5,0.25-0.69,0.44c-0.18,0.18-0.33,0.41-0.44,0.67c-0.11,0.25-0.17,0.52-0.18,0.81c-0.01,0.24,0,0.47,0.04,0.7
	c0.04,0.23,0.11,0.45,0.21,0.68c0.1,0.23,0.24,0.47,0.4,0.71c0.17,0.24,0.39,0.5,0.64,0.78l4.41,4.98c0.28-0.49,0.52-1.02,0.7-1.57
	c0.18-0.55,0.31-1.12,0.38-1.69c0.03-0.18,0.1-0.33,0.21-0.44c0.11-0.11,0.25-0.16,0.44-0.15l1.85,0.08c-0.05,1.05-0.25,2.06-0.58,3
	c-0.34,0.95-0.8,1.81-1.38,2.6L51.96,25.7z"/>
<path class="st0" d="M66.58,22.16c0.62,0.06,1.18,0.01,1.69-0.15c0.51-0.16,0.96-0.41,1.33-0.75c0.37-0.34,0.67-0.77,0.9-1.29
	c0.24-0.52,0.39-1.1,0.45-1.76l1.01-10.34l3.21,0.31l-1.01,10.34c-0.1,1.03-0.36,1.96-0.78,2.81c-0.41,0.84-0.96,1.54-1.64,2.12
	c-0.67,0.57-1.47,0.99-2.39,1.26c-0.92,0.26-1.93,0.34-3.04,0.23c-1.11-0.11-2.1-0.38-2.95-0.82c-0.85-0.44-1.55-1.01-2.11-1.7
	c-0.55-0.7-0.95-1.5-1.2-2.4c-0.24-0.91-0.31-1.88-0.21-2.9l1.01-10.34l3.21,0.31l-1.01,10.33c-0.06,0.66-0.04,1.27,0.09,1.82
	c0.13,0.55,0.34,1.03,0.64,1.45c0.31,0.41,0.69,0.74,1.16,0.99C65.41,21.94,65.95,22.1,66.58,22.16z"/>
<path class="st0" d="M91.03,28.17l-3.18-0.49c-0.22-0.03-0.39-0.12-0.51-0.25c-0.11-0.13-0.19-0.27-0.25-0.43l-2.96-7.2
	c-0.09,0.19-0.2,0.35-0.3,0.48l-4.75,5.48c-0.12,0.12-0.25,0.23-0.39,0.33c-0.14,0.09-0.3,0.12-0.5,0.09l-2.98-0.46l7.06-7.94
	L78.1,8.61l3.18,0.49c0.22,0.03,0.37,0.09,0.46,0.17c0.09,0.07,0.17,0.18,0.24,0.33l2.93,6.89c0.11-0.19,0.24-0.37,0.38-0.55
	l4.45-5.08c0.11-0.14,0.22-0.23,0.34-0.29s0.25-0.07,0.41-0.05l3.05,0.47l-6.78,7.34L91.03,28.17z"/>
</svg>
