<?xml version="1.0" encoding="utf-8"?>
<!-- Generator: Adobe Illustrator 27.9.0, SVG Export Plug-In . SVG Version: 6.00 Build 0)  -->
<svg version="1.1" id="Layer_1" xmlns="http://www.w3.org/2000/svg" xmlns:xlink="http://www.w3.org/1999/xlink" x="0px" y="0px"
	 viewBox="0 0 45 45" style="enable-background:new 0 0 45 45;" xml:space="preserve">
<style type="text/css">
	.st0{opacity:0.25;fill:none;stroke:#FFFFFF;stroke-width:2;enable-background:new    ;}
	.st1{fill:#FFFFFF;}
</style>
<g id="Facebook">
	<g id="facebook">
		<path id="Oval_Copy" class="st0" d="M44,22.5C44,34.4,34.4,44,22.5,44S1,34.4,1,22.5S10.6,1,22.5,1S44,10.6,44,22.5z"/>
		<path id="Shape" class="st1" d="M20.7,29.4v-6.3H18v-2.7h2.7v-1.8c0-2.4,1.5-3.6,3.6-3.6c1,0,1.9,0.1,2.2,0.1v2.5H25
			c-1.2,0-1.4,0.6-1.4,1.4v1.4h3.3L26,23.1h-2.4v6.3C23.6,29.4,20.7,29.4,20.7,29.4z"/>
	</g>
</g>
</svg>
