<svg width="34" height="35" viewBox="0 0 34 35" fill="none" xmlns="http://www.w3.org/2000/svg">
<path fill-rule="evenodd" clip-rule="evenodd" d="M17 2.625C25.2153 2.625 31.875 9.28475 31.875 17.5C31.875 25.7153 25.2153 32.375 17 32.375C8.78475 32.375 2.125 25.7153 2.125 17.5C2.125 9.28475 8.78475 2.625 17 2.625Z" fill="#FBFBFB"/>
<path fill-rule="evenodd" clip-rule="evenodd" d="M30.9374 12.2938H3.06055C5.17094 6.64623 10.6153 2.625 16.999 2.625C23.3826 2.625 28.827 6.64623 30.9374 12.2938H30.9374Z" fill="#E92B2B"/>
<path fill-rule="evenodd" clip-rule="evenodd" d="M30.9374 22.7065C28.8269 28.354 23.3825 32.3752 16.999 32.3752C10.6153 32.3752 5.17094 28.354 3.06055 22.7065H30.9374Z" fill="#1D1D1D"/>
<path d="M16.7338 14.3139L15.8843 16.0129L13.944 15.3662C13.9062 15.3536 13.8663 15.3487 13.8266 15.3518C13.7869 15.355 13.7482 15.366 13.7128 15.3844C13.6775 15.4027 13.6462 15.428 13.6208 15.4586C13.5954 15.4893 13.5764 15.5248 13.5649 15.5629L12.6877 18.487C12.6214 18.708 12.821 18.9171 13.0448 18.8611L15.5124 18.2442L15.1406 20.1036C15.3082 20.4388 15.5658 20.7207 15.8846 20.9178C16.2035 21.1148 16.5709 21.2192 16.9457 21.2192H17.0542C17.429 21.2192 17.7964 21.1148 18.1152 20.9178C18.434 20.7207 18.6917 20.4388 18.8593 20.1036L18.4874 18.2442L20.9551 18.8611C21.1789 18.9171 21.3785 18.708 21.3122 18.487L20.4349 15.5629C20.4235 15.5248 20.4045 15.4893 20.3791 15.4586C20.3537 15.428 20.3224 15.4027 20.287 15.3844C20.2517 15.366 20.213 15.355 20.1733 15.3518C20.1336 15.3487 20.0937 15.3536 20.0559 15.3662L18.1156 16.0129L17.266 14.3139C17.1564 14.0946 16.8435 14.0946 16.7338 14.3139Z" fill="#FFE70E"/>
</svg>
