<?xml version="1.0" encoding="utf-8"?>
<!-- Generator: Adobe Illustrator 27.9.0, SVG Export Plug-In . SVG Version: 6.00 Build 0)  -->
<svg version="1.1" id="Layer_1" xmlns="http://www.w3.org/2000/svg" xmlns:xlink="http://www.w3.org/1999/xlink" x="0px" y="0px"
	 viewBox="0 0 45 45" style="enable-background:new 0 0 45 45;" xml:space="preserve">
<style type="text/css">
	.st0{opacity:0.25;fill:none;stroke:#FFFFFF;stroke-width:2;enable-background:new    ;}
	.st1{fill:#FFFFFF;}
	.st2{fill-rule:evenodd;clip-rule:evenodd;fill:#FFFFFF;}
</style>
<g id="Instagram">
	<g id="insta_00000050649441621940407620000012864477974790287500_">
		<path id="Oval_Copy_x5F_3_00000132788472547043977860000013443551757309029504_" class="st0" d="M44,22.5C44,34.4,34.4,44,22.5,44
			S1,34.4,1,22.5S10.6,1,22.5,1S44,10.6,44,22.5z"/>
		<g id="_x31_6px-logo-instagram_00000055669958187936982100000013304783538957196705_">
			<path id="Oval_00000163761444800271405500000000506276677911811487_" class="st1" d="M25.9,19.9c0.4,0,0.8-0.3,0.8-0.8
				c0-0.4-0.3-0.8-0.8-0.8s-0.8,0.3-0.8,0.8C25.1,19.6,25.4,19.9,25.9,19.9z"/>
			<path id="Shape_3_00000042696615442744556670000006028876290602352789_" class="st2" d="M19.2,22.5c0,1.8,1.5,3.2,3.2,3.2
				s3.2-1.5,3.2-3.2s-1.5-3.2-3.2-3.2S19.2,20.7,19.2,22.5z M20.9,22.5c0-0.9,0.7-1.6,1.6-1.6s1.6,0.7,1.6,1.6s-0.7,1.6-1.6,1.6
				S20.9,23.4,20.9,22.5z"/>
			<path id="Shape_4_00000127731983721891381650000006638367506301610376_" class="st2" d="M19.2,29h6.5c1.7,0,3.2-1.6,3.2-3.2v-6.5
				c0-1.7-1.6-3.2-3.2-3.2h-6.5c-1.7,0-3.2,1.6-3.2,3.2v6.5C16,27.4,17.6,29,19.2,29z M17.6,19.2c0-0.8,0.9-1.6,1.6-1.6h6.5
				c0.8,0,1.6,0.9,1.6,1.6v6.5c0,0.8-0.9,1.6-1.6,1.6h-6.5c-0.8,0-1.6-0.9-1.6-1.6V19.2z"/>
		</g>
	</g>
</g>
</svg>
