<?xml version="1.0" encoding="utf-8"?>
<!-- Generator: Adobe Illustrator 27.9.0, SVG Export Plug-In . SVG Version: 6.00 Build 0)  -->
<svg version="1.1" id="Layer_1" xmlns="http://www.w3.org/2000/svg" xmlns:xlink="http://www.w3.org/1999/xlink" x="0px" y="0px"
	 viewBox="0 0 45 45" style="enable-background:new 0 0 45 45;" xml:space="preserve">
<style type="text/css">
	.st0{opacity:0.25;fill:none;stroke:#FFFFFF;stroke-width:2.25;enable-background:new    ;}
	.st1{fill:#FFFFFF;}
</style>
<g id="linkedin">
	<path id="Oval_Copy_x5F_4" class="st0" d="M43.9,22.5c0,11.8-9.6,21.4-21.4,21.4S1.1,34.3,1.1,22.5S10.7,1.1,22.5,1.1
		S43.9,10.7,43.9,22.5z"/>
	<g id="Linkedin_icon">
		<g id="linkedin_2">
			<path id="Oval_2" class="st1" d="M17.7,19.4c0.9,0,1.7-0.8,1.7-1.7S18.6,16,17.7,16S16,16.8,16,17.7S16.8,19.4,17.7,19.4z"/>
			<path id="Shape_5" class="st1" d="M19.1,20.5h-2.8c-0.2,0-0.3,0.1-0.3,0.3v8.4c0,0.2,0.1,0.3,0.3,0.3h2.8c0.2,0,0.3-0.1,0.3-0.3
				v-8.4C19.4,20.6,19.2,20.5,19.1,20.5z"/>
			<path id="Shape_6" class="st1" d="M27.5,20.1c-1.2-0.4-2.7-0.1-3.6,0.6c0-0.1-0.1-0.2-0.3-0.2h-2.8c-0.2,0-0.3,0.1-0.3,0.3v8.4
				c0,0.2,0.1,0.3,0.3,0.3h2.8c0.2,0,0.3-0.1,0.3-0.3v-6.1c0.5-0.4,1-0.5,1.5-0.3c0.5,0.2,0.7,0.7,0.7,1.3v5.1
				c0,0.2,0.1,0.3,0.3,0.3h2.8c0.2,0,0.3-0.1,0.3-0.3v-5.6C29.5,21.3,28.4,20.4,27.5,20.1z"/>
		</g>
	</g>
</g>
</svg>
