<svg width="145" height="24" viewBox="0 0 145 24" fill="none" xmlns="http://www.w3.org/2000/svg">
<path d="M43.8157 11.9714H39.804L41.7092 15.8245H44.1006C43.9157 16.27 43.8472 16.492 42.9159 17.4347C41.4448 18.9249 39.6725 19.6483 37.6153 19.6483C35.5566 19.6483 33.7528 18.929 32.2859 17.4347C30.8203 15.939 30.1149 14.0997 30.1149 12.0007C30.1149 9.90166 30.8203 8.09032 32.2859 6.596C33.7802 5.07235 35.269 4.32519 37.3276 4.32519C38.2823 4.32519 38.9 4.32519 40.0601 4.38384L38.1535 0.512569C37.9755 0.50419 37.7961 0.5 37.6153 0.5C34.4856 0.5 31.8353 1.65077 29.6643 3.89225C27.4646 6.13513 26.3374 8.83748 26.3374 11.9993C26.3374 15.1904 27.4646 17.8649 29.6643 20.1077C31.864 22.3506 34.4856 23.5 37.6153 23.5C40.745 23.5 43.3679 22.3492 45.5662 20.1077C46.1127 19.5645 46.5921 18.9933 47.0057 18.3914L43.8157 11.9714Z" fill="#F3F3F3"/>
<path d="M19.2302 3.89225C21.4572 6.13513 22.5858 8.83748 22.5858 11.9993C22.5858 15.1904 21.4586 17.8928 19.2302 20.1077C17.0305 22.3506 14.4089 23.5 11.2792 23.5C8.14953 23.5 5.52661 22.3492 3.3283 20.1077C1.12724 17.8649 0 15.1918 0 11.9993C0 8.83748 1.12724 6.13374 3.32693 3.89225C5.49785 1.65077 8.14816 0.5 11.2792 0.5C14.4103 0.5 17.0305 1.65077 19.2302 3.89225ZM5.94984 6.5946C4.4843 8.09032 3.77892 9.90027 3.77892 11.9993C3.77892 14.0983 4.4843 15.9376 5.94984 17.4333C7.41676 18.929 9.22061 19.6469 11.2792 19.6469C13.3378 19.6469 15.1143 18.9277 16.5798 17.4333C18.0742 15.9097 18.7795 14.0983 18.7795 11.9993C18.7795 9.90027 18.0468 8.08892 16.5798 6.5946C15.1129 5.09888 13.3365 4.35172 11.2792 4.35172C9.22198 4.35172 7.44415 5.07095 5.94984 6.5946Z" fill="#5050FF"/>
<path d="M45.0771 0.5H53.3719C55.4305 0.5 57.2069 1.24716 58.6725 2.74288C60.1394 4.26653 60.8722 6.04994 60.8722 8.14758C60.8722 9.75782 60.4489 11.1949 59.5463 12.4881C58.6725 13.7813 57.837 14.9712 56.5111 15.5172L60.8708 23.4986H56.5563L50.701 11.97L53.3705 11.9993C54.3854 11.9993 55.2593 11.625 55.9934 10.8779C56.7549 10.1307 57.1207 9.21036 57.1207 8.14618C57.1207 7.11133 56.7536 6.21893 55.9934 5.47176C55.2606 4.7246 54.3868 4.35032 53.3705 4.35032H46.9865" fill="#F3F3F3"/>
<path d="M85.2016 20.0421L75.6318 0.5L64.3525 23.5H68.5259L70.4435 19.6469L72.3048 15.8524L75.6318 9.09585L80.8639 19.6762H80.8475L82.7088 23.5H86.911L85.2016 20.0421Z" fill="#F3F3F3"/>
<path d="M101.468 0.5L99.6063 4.32379L94.3906 14.9042L91.0623 8.14758L89.2023 4.35312L87.2847 0.5H83.1113L94.3906 23.5L103.78 4.32379L105.668 0.5H101.468Z" fill="#F3F3F3"/>
<path d="M114.377 23.5H110.627V0.5H114.377V23.5Z" fill="#F3F3F3"/>
<path d="M145 23.5H141.25V0.5H145V23.5Z" fill="#F3F3F3"/>
<path d="M122.258 4.37662H125.99V23.476H129.768V4.37662H129.525H137.439L137.499 0.523499H129.525H118.013L118.113 4.37662H122.025H122.258Z" fill="#F3F3F3"/>
</svg>
