<?xml version="1.0" encoding="utf-8"?>
<!-- Generator: Adobe Illustrator 27.9.0, SVG Export Plug-In . SVG Version: 6.00 Build 0)  -->
<svg version="1.1" id="Layer_1" xmlns="http://www.w3.org/2000/svg" xmlns:xlink="http://www.w3.org/1999/xlink" x="0px" y="0px"
	 viewBox="0 0 657 155" style="enable-background:new 0 0 657 155;" xml:space="preserve">
<style type="text/css">
	.st0{fill:none;stroke:#2E2E2E;}
	.st1{fill:#FFFFFF;filter:url(#Adobe_OpacityMaskFilter);}
	.st2{mask:url(#path-3-inside-1_105_1171_00000076586943976548298430000014168501672844505524_);fill:#2E2E2E;}
</style>
<path class="st0" d="M271.3,25.6c-7.4-0.4-11.5-0.4-17.7-0.4h0c-14.1,0-24.4,5.1-34.6,15.5c-10.1,10.2-14.9,22.5-14.9,36.8
	c0,14.3,4.8,26.8,14.9,37h0c10.1,10.2,22.4,15.1,36.6,15.1c14.1,0,26.3-4.9,36.4-15.1c3.2-3.2,4.9-5.2,6-6.8c1-1.5,1.5-2.6,2-3.9
	c0-0.1,0.1-0.2,0.2-0.4l0.3-0.7h-0.8h-15.9l-12.4-25h26.1l21.4,42.7c-2.8,3.9-5.9,7.7-9.5,11.3l0,0c-14.8,15-32.5,22.7-53.7,22.7
	c-21.1,0-38.8-7.7-53.7-22.7c-14.9-15-22.5-32.9-22.5-54.3c0-21.2,7.6-39.3,22.5-54.3l0,0c14.7-15,32.5-22.7,53.7-22.7
	c1.1,0,2.2,0,3.3,0.1L271.3,25.6z"/>
<path class="st0" d="M130.3,23.2L130.3,23.2c15,15,22.7,33.1,22.7,54.3c0,21.4-7.6,39.5-22.6,54.3l0,0c-14.9,15-32.5,22.7-53.7,22.7
	c-21.1,0-38.8-7.7-53.7-22.7h0C8.1,116.8,0.5,98.9,0.5,77.5c0-21.2,7.6-39.3,22.5-54.3l0,0C37.6,8.2,55.5,0.5,76.6,0.5
	C97.8,0.5,115.4,8.2,130.3,23.2z M40.1,40.7L40.1,40.7C30,50.9,25.2,63.2,25.2,77.5c0,14.3,4.8,26.8,14.9,37h0
	c10.1,10.2,22.4,15.1,36.6,15.1c14.1,0,26.3-4.9,36.4-15.1c10.2-10.4,15.1-22.7,15.1-37c0-14.3-5-26.6-15.1-36.8
	c-10.1-10.2-22.3-15.3-36.4-15.3C62.5,25.5,50.3,30.4,40.1,40.7z"/>
<defs>
	<filter id="Adobe_OpacityMaskFilter" filterUnits="userSpaceOnUse" x="306.2" y="-1" width="109" height="157">
		<feColorMatrix  type="matrix" values="1 0 0 0 0  0 1 0 0 0  0 0 1 0 0  0 0 0 1 0"/>
	</filter>
</defs>
<mask maskUnits="userSpaceOnUse" x="306.2" y="-1" width="109" height="157" id="path-3-inside-1_105_1171_00000076586943976548298430000014168501672844505524_">
	<path class="st1" d="M306.2,0h56.3c14,0,26.1,5,36,15.1c10,10.3,14.9,22.3,14.9,36.4c0,10.9-2.9,20.5-9,29.3
		c-5.9,8.7-11.6,16.7-20.6,20.4l29.6,53.8h-29.3l-39.8-77.7l18.1,0.2c6.9,0,12.8-2.5,17.8-7.6c5.2-5,7.7-11.2,7.7-18.4
		c0-7-2.5-13-7.7-18c-5-5-10.9-7.6-17.8-7.6h-43.4"/>
</mask>
<path class="st2" d="M398.6,15.1l0.7-0.7l0,0L398.6,15.1z M404.5,80.8l-0.8-0.6l0,0l0,0L404.5,80.8z M383.9,101.2l-0.4-0.9l-1,0.4
	l0.5,1L383.9,101.2z M413.5,155v1h1.7l-0.8-1.5L413.5,155z M384.2,155l-0.9,0.5l0.3,0.5h0.6V155z M344.4,77.3l0-1l-1.7,0l0.8,1.5
	L344.4,77.3z M362.6,77.5l0,1h0V77.5z M380.4,69.9l-0.7-0.7l0,0l0,0L380.4,69.9z M380.4,33.5l-0.7,0.7l0,0l0,0L380.4,33.5z M306.2,1
	h56.3v-2h-56.3V1z M362.6,1c13.7,0,25.5,4.9,35.3,14.8l1.4-1.4C389.1,4.1,376.8-1,362.6-1V1z M397.9,15.8
	c9.8,10.1,14.7,21.9,14.7,35.7h2c0-14.4-5.1-26.7-15.2-37.1L397.9,15.8z M412.5,51.5c0,10.7-2.8,20.1-8.8,28.7l1.6,1.2
	c6.3-8.9,9.2-18.8,9.2-29.8H412.5z M403.7,80.2c-6,8.8-11.5,16.5-20.2,20.1l0.8,1.9c9.3-3.8,15.2-12.1,21.1-20.8L403.7,80.2z
	 M383,101.7l29.6,53.8l1.8-1l-29.6-53.8L383,101.7z M413.5,154h-29.3v2h29.3V154z M385.1,154.5l-39.8-77.7l-1.8,0.9l39.8,77.7
	L385.1,154.5z M344.4,78.3l18.1,0.2l0-2l-18.1-0.2L344.4,78.3z M362.6,78.5c7.2,0,13.4-2.6,18.5-7.9l-1.4-1.4
	c-4.8,4.9-10.5,7.3-17.1,7.3V78.5z M381.1,70.7c5.4-5.2,8-11.7,8-19.1h-2c0,6.9-2.4,12.9-7.4,17.7L381.1,70.7z M389,51.5
	c0-7.2-2.6-13.5-8-18.7l-1.4,1.4c5,4.8,7.4,10.6,7.4,17.3H389z M381.1,32.8c-5.2-5.2-11.3-7.9-18.5-7.9v2c6.6,0,12.3,2.4,17.1,7.3
	L381.1,32.8z M362.6,24.9h-43.4v2h43.4V24.9z"/>
<path class="st0" d="M578.3,131.9L578.3,131.9l11.3,22.6h-27.4L550,129.7h0.1l-0.4-0.7l-35.5-71.3l-0.4-0.9l-0.4,0.9l-22.6,45.5l0,0
	l-12.6,25.6l0,0l-12.9,25.7H438L513.8,1.1L578.3,131.9z"/>
<path class="st0" d="M657,121.9l-15.8,32L565.4,0.5h27.2l12.9,25.7l0,0l12.6,25.6l0,0l22.6,45.5l0.4,0.9l0.4-0.9L657,66.4V121.9z"/>
</svg>
