<?xml version="1.0" encoding="utf-8"?>
<!-- Generator: Adobe Illustrator 27.9.0, SVG Export Plug-In . SVG Version: 6.00 Build 0)  -->
<svg version="1.1" id="Layer_1" xmlns="http://www.w3.org/2000/svg" xmlns:xlink="http://www.w3.org/1999/xlink" x="0px" y="0px"
	 viewBox="0 0 656 155" style="enable-background:new 0 0 656 155;" xml:space="preserve">
<style type="text/css">
	.st0{fill:#FFFFFF;filter:url(#Adobe_OpacityMaskFilter);}
	.st1{mask:url(#path-1-inside-1_105_1181_00000100341935620999593330000013324984667361388952_);fill:#2E2E2E;}
	.st2{fill:none;stroke:#2E2E2E;}
</style>
<defs>
	<filter id="Adobe_OpacityMaskFilter" filterUnits="userSpaceOnUse" x="0" y="-1" width="86.2" height="157">
		<feColorMatrix  type="matrix" values="1 0 0 0 0  0 1 0 0 0  0 0 1 0 0  0 0 0 1 0"/>
	</filter>
</defs>
<mask maskUnits="userSpaceOnUse" x="0" y="-1" width="86.2" height="157" id="path-1-inside-1_105_1181_00000100341935620999593330000013324984667361388952_">
	<path class="st0" d="M-22.8,0h56.3c14,0,26.1,5,36,15.1c10,10.3,14.9,22.3,14.9,36.4c0,10.9-2.9,20.5-9,29.3
		c-5.9,8.7-11.6,16.7-20.6,20.4L84.5,155H55.2L15.4,77.3l18.1,0.2c6.9,0,12.8-2.5,17.8-7.6c5.2-5,7.7-11.2,7.7-18.4
		c0-7-2.5-13-7.7-18c-5-5-10.9-7.6-17.8-7.6H-9.8"/>
</mask>
<path class="st1" d="M69.6,15.1l0.7-0.7l0,0L69.6,15.1z M75.5,80.8l-0.8-0.6l0,0l0,0L75.5,80.8z M54.9,101.2l-0.4-0.9l-1,0.4l0.5,1
	L54.9,101.2z M84.5,155v1h1.7l-0.8-1.5L84.5,155z M55.2,155l-0.9,0.5l0.3,0.5h0.6V155z M15.4,77.3l0-1l-1.7,0l0.8,1.5L15.4,77.3z
	 M33.6,77.5l0,1h0V77.5z M51.4,69.9l-0.7-0.7l0,0l0,0L51.4,69.9z M51.4,33.5l-0.7,0.7l0,0l0,0L51.4,33.5z M0,1h56.3v-2H0V1z M33.6,1
	c13.7,0,25.5,4.9,35.3,14.8l1.4-1.4C60.1,4.1,47.8-1,33.6-1V1z M68.9,15.8c9.8,10.1,14.7,21.9,14.7,35.7h2
	c0-14.4-5.1-26.7-15.2-37.1L68.9,15.8z M83.5,51.5c0,10.7-2.8,20.1-8.8,28.7l1.6,1.2c6.3-8.9,9.2-18.8,9.2-29.8H83.5z M74.7,80.2
	c-6,8.8-11.5,16.5-20.2,20.1l0.8,1.9c9.3-3.8,15.2-12.1,21.1-20.8L74.7,80.2z M54,101.7l29.6,53.8l1.8-1l-29.6-53.8L54,101.7z
	 M84.5,154H55.2v2h29.3V154z M56.1,154.5L16.3,76.8l-1.8,0.9l39.8,77.7L56.1,154.5z M15.4,78.3l18.1,0.2l0-2l-18.1-0.2L15.4,78.3z
	 M33.6,78.5c7.2,0,13.4-2.6,18.5-7.9l-1.4-1.4c-4.8,4.9-10.5,7.3-17.1,7.3V78.5z M52.1,70.7c5.4-5.2,8-11.7,8-19.1h-2
	c0,6.9-2.4,12.9-7.4,17.7L52.1,70.7z M60,51.5c0-7.2-2.6-13.5-8-18.7l-1.4,1.4c5,4.8,7.4,10.6,7.4,17.3H60z M52.1,32.8
	c-5.2-5.2-11.3-7.9-18.5-7.9v2c6.6,0,12.3,2.4,17.1,7.3L52.1,32.8z M33.6,24.9H0v2h33.6V24.9z"/>
<path class="st2" d="M249.3,131.9L249.3,131.9l11.3,22.6h-27.4L221,129.7h0.1l-0.4-0.7l-35.5-71.3l-0.4-0.9l-0.4,0.9l-22.6,45.5l0,0
	l-12.6,25.6l0,0l-12.9,25.7H109L184.8,1.1L249.3,131.9z"/>
<path class="st2" d="M388,0.5l-12.5,25v0l-63.3,128.3L236.4,0.5h27.2l12.9,25.7l0,0l12.6,25.6l0,0l22.6,45.5l0.4,0.9l0.4-0.9
	L348.1,26l0,0l12.5-25.5H388z"/>
<path class="st2" d="M447.5,154.5H423V0.5h24.5V154.5z"/>
<path class="st2" d="M655.5,154.5H631V0.5h24.5V154.5z"/>
<path class="st2" d="M527.4,26.1v-0.5h-0.5h-25.4h-1.6h-26.1l-0.7-25h77.7h53.7l-0.4,25H553h-0.5h-1.6v0.5v0.5h1.1v127.7h-24.7V26.1
	z"/>
</svg>
