<svg width="273" height="43" viewBox="0 0 273 43" fill="none" xmlns="http://www.w3.org/2000/svg">
<path d="M82.4944 21.4465H74.9412L78.5283 28.6501H83.0308C82.6827 29.483 82.5537 29.8982 80.8002 31.6606C78.0306 34.4465 74.6937 35.799 70.8204 35.799C66.9445 35.799 63.5483 34.4543 60.7865 31.6606C58.0272 28.8642 56.6991 25.4256 56.6991 21.5013C56.6991 17.577 58.0272 14.1906 60.7865 11.3969C63.5999 8.5483 66.403 7.15144 70.2789 7.15144C72.0762 7.15144 73.2393 7.15144 75.4235 7.2611L71.8338 0.0234987C71.4986 0.0078329 71.1608 0 70.8204 0C64.9279 0 59.938 2.15144 55.8507 6.34204C51.7092 10.5352 49.5869 15.5875 49.5869 21.4987C49.5869 27.4648 51.7092 32.4647 55.8507 36.658C59.9922 40.8512 64.9279 43 70.8204 43C76.7129 43 81.6512 40.8486 85.7901 36.658C86.819 35.6423 87.7216 34.5744 88.5003 33.4491L82.4944 21.4465Z" fill="#F3F3F3"/>
<path d="M36.2057 6.34204C40.3988 10.5352 42.5237 15.5875 42.5237 21.4987C42.5237 27.4648 40.4014 32.517 36.2057 36.658C32.0643 40.8512 27.1285 43 21.2361 43C15.3436 43 10.4053 40.8486 6.26638 36.658C2.12232 32.4647 0 27.4674 0 21.4987C0 15.5875 2.12232 10.5326 6.2638 6.34204C10.3511 2.15144 15.341 0 21.2361 0C27.1311 0 32.0643 2.15144 36.2057 6.34204ZM11.2021 11.3943C8.44285 14.1906 7.11479 17.5744 7.11479 21.4987C7.11479 25.423 8.44285 28.8616 11.2021 31.658C13.964 34.4543 17.3602 35.7963 21.2361 35.7963C25.1119 35.7963 28.4566 34.4517 31.2158 31.658C34.0293 28.8094 35.3573 25.423 35.3573 21.4987C35.3573 17.5744 33.9777 14.188 31.2158 11.3943C28.454 8.59791 25.1093 7.20104 21.2361 7.20104C17.3628 7.20104 14.0155 8.54569 11.2021 11.3943Z" fill="#F3F3F3"/>
<path d="M84.8694 0H100.486C104.362 0 107.707 1.39687 110.466 4.19321C113.228 7.04177 114.608 10.376 114.608 14.2976C114.608 17.3081 113.811 19.9948 112.111 22.4125C110.466 24.8303 108.893 27.0548 106.397 28.0757L114.605 42.9974H106.482L95.4578 21.4439L100.484 21.4987C102.395 21.4987 104.04 20.799 105.422 19.4021C106.856 18.0052 107.544 16.2846 107.544 14.295C107.544 12.3603 106.853 10.6919 105.422 9.29504C104.042 7.89817 102.397 7.19843 100.484 7.19843H88.4642" fill="#F3F3F3"/>
<path d="M160.414 36.5352L142.396 0L121.16 43H129.018L132.628 35.7963L136.133 28.7023L142.396 16.0705L152.247 35.8512H152.216L155.721 43H163.632L160.414 36.5352Z" fill="#F3F3F3"/>
<path d="M191.039 0L187.535 7.14882L177.715 26.9295L171.449 14.2976L167.947 7.20366L164.336 0H156.479L177.715 43L195.392 7.14882L198.948 0H191.039Z" fill="#F3F3F3"/>
<path d="M215.344 43H208.283V0H215.344V43Z" fill="#F3F3F3"/>
<path d="M273 43H265.939V0H273V43Z" fill="#F3F3F3"/>
<path d="M230.182 7.2476H237.209V42.9552H244.321V7.2476H243.865H258.765L258.878 0.0439453H243.865H222.19L222.379 7.2476H229.744H230.182Z" fill="#F3F3F3"/>
</svg>
