<svg width="436" height="436" viewBox="0 0 436 436" fill="none" xmlns="http://www.w3.org/2000/svg">
<mask id="mask0_105_882" style="mask-type:luminance" maskUnits="userSpaceOnUse" x="0" y="0" width="436" height="436">
<path d="M217.88 436C338.035 436 435.44 338.595 435.44 218.44C435.44 98.2848 338.035 0.879883 217.88 0.879883C97.7252 0.879883 0.320312 98.2848 0.320312 218.44C0.320312 338.595 97.7252 436 217.88 436Z" fill="white"/>
</mask>
<g mask="url(#mask0_105_882)">
<path d="M-0.212891 23.5005L432.816 411.847" stroke="#F7F7F7" stroke-width="0.25" stroke-miterlimit="10"/>
<path d="M332.302 -49.2104L100.994 484.465" stroke="#F7F7F7" stroke-width="0.25" stroke-miterlimit="10"/>
<path d="M217.402 -73.896L216.27 507.752" stroke="#F7F7F7" stroke-width="0.25" stroke-miterlimit="10"/>
<path d="M507.925 215.696L-73.709 218.586" stroke="#F7F7F7" stroke-width="0.25" stroke-miterlimit="10"/>
<path d="M430.793 20.2766L3.16016 414.538" stroke="#F7F7F7" stroke-width="0.25" stroke-miterlimit="10"/>
<path d="M492.35 124.934L-59.3633 309.136" stroke="#F7F7F7" stroke-width="0.25" stroke-miterlimit="10"/>
<path d="M337.231 482.027L95.8379 -47.1589" stroke="#F7F7F7" stroke-width="0.25" stroke-miterlimit="10"/>
<path d="M491.791 312.999L-57.7773 122.509" stroke="#F7F7F7" stroke-width="0.25" stroke-miterlimit="10"/>
</g>
<mask id="mask1_105_882" style="mask-type:luminance" maskUnits="userSpaceOnUse" x="0" y="0" width="436" height="436">
<path d="M217.88 436C338.035 436 435.44 338.595 435.44 218.44C435.44 98.2848 338.035 0.879883 217.88 0.879883C97.7252 0.879883 0.320312 98.2848 0.320312 218.44C0.320312 338.595 97.7252 436 217.88 436Z" fill="white"/>
</mask>
<g mask="url(#mask1_105_882)">
<path d="M333.008 101.513C365.607 133.699 382.113 172.493 382.113 217.894C382.113 263.708 365.607 302.501 333.008 334.274C300.822 366.46 262.442 382.979 216.628 382.979C170.814 382.979 132.434 366.473 100.248 334.274C68.0621 302.075 51.543 263.708 51.543 217.894C51.543 172.493 68.0488 133.699 100.248 101.513C132.021 69.3278 170.814 52.8086 216.628 52.8086C262.442 52.8086 300.822 69.3144 333.008 101.513ZM138.628 140.307C117.167 161.768 106.856 187.759 106.856 217.894C106.856 248.028 117.18 274.432 138.628 295.893C160.09 317.355 186.507 327.666 216.628 327.666C246.749 327.666 272.753 317.355 294.215 295.893C316.089 274.019 326.401 248.014 326.401 217.894C326.401 187.773 315.676 161.768 294.215 140.307C272.753 118.845 246.749 108.108 216.628 108.108C186.507 108.108 160.49 118.432 138.628 140.307Z" fill="#5050FF"/>
</g>
</svg>
