<?xml version="1.0" encoding="utf-8"?>
<!-- Generator: Adobe Illustrator 27.9.0, SVG Export Plug-In . SVG Version: 6.00 Build 0)  -->
<svg version="1.1" id="Layer_1" xmlns="http://www.w3.org/2000/svg" xmlns:xlink="http://www.w3.org/1999/xlink" x="0px" y="0px"
	 viewBox="0 0 45 45" style="enable-background:new 0 0 45 45;" xml:space="preserve">
<style type="text/css">
	.st0{opacity:0.25;fill:none;stroke:#FFFFFF;stroke-width:2;enable-background:new    ;}
	.st1{fill-rule:evenodd;clip-rule:evenodd;fill:#FFFFFF;}
</style>
<g id="Youtube">
	<g id="twitter">
		<path id="Oval_Copy_x5F_2" class="st0" d="M44,22.5C44,34.4,34.4,44,22.5,44S1,34.4,1,22.5S10.6,1,22.5,1S44,10.6,44,22.5z"/>
	</g>
	<g id="bxl-youtube_00000064354458317828280320000003446376734559346083_">
		<path id="Shape_2_00000085932941043137675930000011653771209570162572_" class="st1" d="M29.3,17.3c0.7,0.2,1.2,0.7,1.4,1.4
			C31,20,31,22.5,31,22.5s0,2.5-0.3,3.8c-0.2,0.7-0.7,1.2-1.4,1.4C28,28,23,28,23,28s-5,0-6.3-0.3c-0.7-0.2-1.2-0.7-1.4-1.4
			C15,25.1,15,22.5,15,22.5s0-2.5,0.3-3.8c0.2-0.7,0.7-1.2,1.4-1.4C18,17,23,17,23,17S28,17,29.3,17.3z M21.4,20.1l0,4.7l4.2-2.4
			L21.4,20.1z"/>
	</g>
</g>
</svg>
