<svg width="28" height="28" viewBox="0 0 28 28" fill="none" xmlns="http://www.w3.org/2000/svg">
<g id="Group">
<path id="Vector" d="M18.4001 14.0005L26.6499 5.75061C27.5614 4.83909 27.5614 3.36126 26.6499 2.45113L25.5501 1.3514C24.6383 0.439668 23.1604 0.439668 22.2504 1.3514L14.0009 9.601L5.7511 1.34965C4.83958 0.438136 3.36175 0.438136 2.45162 1.34965L1.35014 2.44953C0.438624 3.36134 0.438624 4.83916 1.35014 5.74922L9.60135 14.0004L1.35182 22.2501C0.440083 23.1618 0.440083 24.6397 1.35182 25.5498L2.45162 26.6494C3.36314 27.561 4.84096 27.561 5.7511 26.6494L14.0008 18.3997L22.2505 26.6494C23.1623 27.561 24.6401 27.561 25.5502 26.6494L26.6499 25.5496C27.5615 24.6378 27.5615 23.16 26.6499 22.25L18.4001 14.0005Z" fill="white"/>
</g>
</svg>
