<svg width="34" height="22" viewBox="0 0 34 22" fill="none" xmlns="http://www.w3.org/2000/svg">
<path d="M2.59922 0.200073C3.67922 0.200073 4.39922 0.920073 4.39922 2.00007V4.16007C4.39922 6.86007 4.39922 8.30007 4.75922 9.02007C5.11922 9.74007 5.65922 10.2801 6.37922 10.6401C7.09922 11.0001 8.53922 11.0001 11.2392 11.0001H27.0792L22.9392 6.86007C22.2192 6.14007 22.2192 5.06007 22.9392 4.34007C23.6592 3.62007 24.7392 3.62007 25.4592 4.34007L32.6592 11.5401C32.8392 11.7201 33.0192 11.9001 33.0192 12.0801C33.1992 12.2601 33.1992 12.6201 33.1992 12.8001C33.1992 12.9801 33.1992 13.3401 33.0192 13.5201C33.0192 13.7001 32.8392 13.8801 32.6592 14.0601L25.4592 21.2601C25.0992 21.6201 24.7392 21.8001 24.1992 21.8001C23.6592 21.8001 23.2992 21.6201 22.9392 21.2601C22.2192 20.5401 22.2192 19.4601 22.9392 18.7401L27.0792 14.6001H11.2392C7.99922 14.6001 6.19922 14.6001 4.75922 13.8801C3.31922 13.1601 2.23922 12.0801 1.69922 10.8201C0.799217 9.20007 0.799217 7.40007 0.799217 4.16007V2.00007C0.799217 0.920073 1.51922 0.200073 2.59922 0.200073Z" fill="#F3F3F3"/>
</svg>
