<svg width="20" height="20" viewBox="0 0 20 20" fill="none" xmlns="http://www.w3.org/2000/svg">
<g id="Frame">
<path id="Vector" d="M9.10362 3.48362C9.47045 2.74045 10.5302 2.74045 10.897 3.48362L12.3429 6.41275C12.4884 6.7076 12.7696 6.91206 13.095 6.95961L16.3299 7.43244C17.1498 7.55229 17.4766 8.56013 16.883 9.13829L14.5438 11.4167C14.3079 11.6464 14.2002 11.9775 14.2559 12.3021L14.8078 15.5196C14.9479 16.3366 14.0903 16.9595 13.3567 16.5737L10.4658 15.0534C10.1744 14.9002 9.82626 14.9002 9.53487 15.0534L6.64396 16.5737C5.91033 16.9595 5.05278 16.3366 5.1929 15.5196L5.74475 12.3021C5.80041 11.9775 5.69274 11.6464 5.45687 11.4167L3.11767 9.13829C2.52408 8.56013 2.85086 7.55229 3.67078 7.43244L6.90569 6.95961C7.23105 6.91206 7.51223 6.7076 7.65777 6.41275L9.10362 3.48362Z" fill="#FFB800"/>
</g>
</svg>
