<svg width="35" height="25" viewBox="0 0 35 25" fill="none" xmlns="http://www.w3.org/2000/svg">
<g id="bxl-youtube">
<path id="Shape" fill-rule="evenodd" clip-rule="evenodd" d="M31.1256 1.24851C32.6204 1.64417 33.7978 2.80375 34.1989 4.27335C34.9437 6.95562 34.9088 12.548 34.9088 12.548C34.9088 12.548 34.9036 18.1095 34.1815 20.79C33.7751 22.2579 32.5925 23.4158 31.0995 23.8097C28.368 24.512 17.4405 24.5 17.4405 24.5C17.4405 24.5 6.54257 24.488 3.78322 23.7515C2.28668 23.3558 1.10933 22.1963 0.708156 20.7284C-0.00697433 18.0735 2.55558e-06 12.4829 2.55558e-06 12.4829C2.55558e-06 12.4829 0.00697947 6.91965 0.727343 4.23738C1.132 2.76949 2.34249 1.58423 3.80764 1.19199C6.54083 0.488023 17.4666 0.500013 17.4666 0.500013C17.4666 0.500013 28.3942 0.512003 31.1256 1.24851ZM13.9796 7.3608L13.9709 17.6377L23.0618 12.5078L13.9796 7.3608Z" fill="white"/>
</g>
</svg>
