<svg width="190" height="190" viewBox="0 0 190 190" fill="none" xmlns="http://www.w3.org/2000/svg">
<path d="M160.673 28.9626C179.111 47.1713 188.445 69.1114 188.445 94.7827C188.445 120.695 179.111 142.624 160.673 160.603C142.464 178.811 120.765 188.145 94.8528 188.145C68.9405 188.145 47.2416 178.811 29.0329 160.603C10.8242 142.394 1.49023 120.695 1.49023 94.7827C1.49023 69.1114 10.8242 47.1713 29.0329 28.9626C47.0005 10.7539 68.9405 1.41992 94.8528 1.41992C120.765 1.41992 142.476 10.7539 160.673 28.9626ZM50.7433 50.9027C38.608 63.038 32.7757 77.745 32.7757 94.7827C32.7757 111.82 38.608 126.757 50.7433 138.892C62.8786 151.028 77.8152 156.86 94.8528 156.86C111.89 156.86 126.598 151.028 138.733 138.892C151.098 126.527 156.942 111.82 156.942 94.7827C156.942 77.745 150.868 63.038 138.733 50.9027C126.598 38.7674 111.89 32.6939 94.8528 32.6939C77.8152 32.6939 63.1197 38.5378 50.7433 50.9027Z" stroke="#5050FF" stroke-width="2" stroke-miterlimit="10"/>
</svg>
