<svg width="340" height="62" viewBox="0 0 340 62" fill="none" xmlns="http://www.w3.org/2000/svg">
<path d="M58.1469 41.8697C70.7761 34.7843 86.7551 39.1716 93.9956 51.7125L83.0991 58.0036C70.4119 65.3285 54.1857 60.8901 46.9932 48.1274L58.1469 41.8697Z" fill="#666666"/>
<path d="M53.5267 36.9025C60.7413 24.4065 76.72 20.125 89.216 27.3396L82.6844 38.6526C75.4698 51.1487 59.4912 55.4302 46.9951 48.2156L53.5267 36.9025Z" fill="#666666"/>
<path d="M46.4297 35.6916C46.4297 20.5363 58.7155 8.25049 73.8708 8.25049V21.0563C73.8708 36.2116 61.585 48.4975 46.4297 48.4975V35.6916Z" fill="#666666"/>
<path d="M39.9558 36.2138C32.7412 23.7177 37.0227 7.73902 49.5187 0.524414L56.0503 11.8375C63.2649 24.3335 58.9835 40.3122 46.4874 47.5268L39.9558 36.2138Z" fill="#666666"/>
<path d="M46.4301 33.8622C46.4301 19.7173 34.9633 8.25049 20.8184 8.25049V22.8857C20.8184 37.0307 32.2851 48.4975 46.4301 48.4975V33.8622Z" fill="#666666"/>
<path d="M40.9178 36.9025C33.7032 24.4065 17.7246 20.125 5.22852 27.3396L11.7601 38.6526C18.9747 51.1487 34.9534 55.4302 47.4494 48.2156L40.9178 36.9025Z" fill="#666666"/>
<path d="M36.2969 41.8697C23.6677 34.7843 7.68875 39.1716 0.448242 51.7125L11.3447 58.0036C24.0319 65.3285 40.2581 60.8901 47.4506 48.1274L36.2969 41.8697Z" fill="#666666"/>
<path d="M140.562 18.0984V46.4597H134.873V28.0126L127.275 46.4597H122.968L115.329 28.0126V46.4597H109.641V18.0984H116.101L125.122 39.1865L134.142 18.0984H140.562Z" fill="#666666"/>
<path d="M147.445 21.2677C146.443 21.2677 145.603 20.9562 144.926 20.3332C144.276 19.683 143.951 18.8839 143.951 17.9358C143.951 16.9878 144.276 16.2022 144.926 15.5792C145.603 14.9291 146.443 14.604 147.445 14.604C148.448 14.604 149.274 14.9291 149.924 15.5792C150.601 16.2022 150.94 16.9878 150.94 17.9358C150.94 18.8839 150.601 19.683 149.924 20.3332C149.274 20.9562 148.448 21.2677 147.445 21.2677ZM150.249 23.9494V46.4597H144.561V23.9494H150.249Z" fill="#666666"/>
<path d="M166.718 23.6244C169.4 23.6244 171.567 24.4776 173.219 26.1842C174.872 27.8637 175.698 30.2203 175.698 33.2542V46.4597H170.009V34.0262C170.009 32.2384 169.562 30.8704 168.668 29.9224C167.775 28.9472 166.556 28.4596 165.012 28.4596C163.44 28.4596 162.194 28.9472 161.273 29.9224C160.379 30.8704 159.933 32.2384 159.933 34.0262V46.4597H154.244V23.9494H159.933V26.753C160.691 25.7779 161.653 25.0194 162.817 24.4776C164.009 23.9088 165.31 23.6244 166.718 23.6244Z" fill="#666666"/>
<path d="M178.019 35.1233C178.019 32.8479 178.466 30.8298 179.36 29.0691C180.281 27.3084 181.527 25.9539 183.098 25.0059C184.669 24.0578 186.417 23.5837 188.34 23.5837C189.803 23.5837 191.198 23.9088 192.525 24.5589C193.852 25.1819 194.909 26.0217 195.694 27.0781V16.3918H201.464V46.4597H195.694V43.1278C194.99 44.2384 194.001 45.1324 192.728 45.8096C191.455 46.4868 189.979 46.8254 188.299 46.8254C186.403 46.8254 184.669 46.3378 183.098 45.3626C181.527 44.3874 180.281 43.0195 179.36 41.2588C178.466 39.4709 178.019 37.4258 178.019 35.1233ZM195.735 35.2045C195.735 33.8231 195.464 32.6447 194.922 31.6695C194.381 30.6673 193.649 29.9088 192.728 29.3941C191.807 28.8524 190.818 28.5815 189.762 28.5815C188.706 28.5815 187.73 28.8388 186.836 29.3535C185.943 29.8682 185.211 30.6267 184.642 31.6289C184.101 32.6041 183.83 33.7689 183.83 35.1233C183.83 36.4777 184.101 37.6696 184.642 38.6989C185.211 39.7012 185.943 40.4732 186.836 41.015C187.757 41.5567 188.733 41.8276 189.762 41.8276C190.818 41.8276 191.807 41.5703 192.728 41.0556C193.649 40.5138 194.381 39.7554 194.922 38.7802C195.464 37.7779 195.735 36.586 195.735 35.2045Z" fill="#666666"/>
<path d="M215.715 28.6221H211.774V46.4597H206.004V28.6221H203.444V23.9494H206.004V22.8117C206.004 20.0487 206.79 18.0171 208.361 16.7169C209.932 15.4166 212.302 14.8072 215.471 14.8884V19.683C214.09 19.6559 213.128 19.8862 212.587 20.3738C212.045 20.8614 211.774 21.7417 211.774 23.0149V23.9494H215.715V28.6221Z" fill="#666666"/>
<path d="M239.027 23.9494V46.4597H233.298V43.6154C232.566 44.5906 231.605 45.3626 230.413 45.9315C229.248 46.4732 227.975 46.7441 226.594 46.7441C224.833 46.7441 223.275 46.3784 221.921 45.647C220.566 44.8886 219.496 43.7915 218.711 42.3558C217.952 40.8931 217.573 39.1594 217.573 37.1549V23.9494H223.262V36.3423C223.262 38.1301 223.709 39.5116 224.603 40.4867C225.496 41.4348 226.715 41.9089 228.259 41.9089C229.831 41.9089 231.063 41.4348 231.957 40.4867C232.851 39.5116 233.298 38.1301 233.298 36.3423V23.9494H239.027Z" fill="#666666"/>
<path d="M248.703 16.3918V46.4597H243.014V16.3918H248.703Z" fill="#666666"/>
<path d="M265.172 23.6244C267.854 23.6244 270.021 24.4776 271.673 26.1842C273.325 27.8637 274.152 30.2203 274.152 33.2542V46.4597H268.463V34.0262C268.463 32.2384 268.016 30.8704 267.122 29.9224C266.228 28.9472 265.009 28.4596 263.465 28.4596C261.894 28.4596 260.648 28.9472 259.727 29.9224C258.833 30.8704 258.386 32.2384 258.386 34.0262V46.4597H252.698V23.9494H258.386V26.753C259.145 25.7779 260.106 25.0194 261.271 24.4776C262.463 23.9088 263.763 23.6244 265.172 23.6244Z" fill="#666666"/>
<path d="M298.861 34.717C298.861 35.5296 298.807 36.261 298.699 36.9111H282.243C282.378 38.5364 282.947 39.8095 283.949 40.7305C284.952 41.6515 286.184 42.112 287.647 42.112C289.76 42.112 291.263 41.2046 292.157 39.3897H298.293C297.643 41.5567 296.396 43.3445 294.554 44.7531C292.712 46.1346 290.451 46.8254 287.769 46.8254C285.602 46.8254 283.651 46.3513 281.918 45.4032C280.211 44.4281 278.87 43.0601 277.895 41.2994C276.947 39.5387 276.473 37.507 276.473 35.2045C276.473 32.875 276.947 30.8298 277.895 29.0691C278.843 27.3084 280.171 25.9539 281.877 25.0059C283.584 24.0578 285.548 23.5837 287.769 23.5837C289.909 23.5837 291.819 24.0442 293.498 24.9652C295.205 25.8862 296.518 27.2 297.439 28.9066C298.387 30.586 298.861 32.5228 298.861 34.717ZM292.97 33.0917C292.943 31.6289 292.414 30.4641 291.385 29.5973C290.356 28.7034 289.096 28.2564 287.606 28.2564C286.198 28.2564 285.006 28.6898 284.031 29.5567C283.083 30.3964 282.5 31.5747 282.284 33.0917H292.97Z" fill="#666666"/>
<path d="M310.002 46.8254C308.16 46.8254 306.508 46.5003 305.045 45.8502C303.582 45.173 302.418 44.2655 301.551 43.1278C300.711 41.9901 300.251 40.7305 300.169 39.349H305.898C306.007 40.2159 306.427 40.9337 307.158 41.5025C307.917 42.0714 308.851 42.3558 309.962 42.3558C311.045 42.3558 311.885 42.1391 312.481 41.7057C313.104 41.2723 313.415 40.717 313.415 40.0398C313.415 39.3084 313.036 38.7666 312.278 38.4145C311.546 38.0353 310.368 37.6289 308.743 37.1955C307.063 36.7892 305.682 36.3693 304.598 35.9359C303.542 35.5025 302.621 34.8389 301.835 33.945C301.077 33.051 300.698 31.8456 300.698 30.3287C300.698 29.0826 301.05 27.9449 301.754 26.9156C302.485 25.8862 303.515 25.0736 304.842 24.4776C306.196 23.8817 307.781 23.5837 309.596 23.5837C312.278 23.5837 314.418 24.2609 316.016 25.6153C317.614 26.9427 318.494 28.744 318.657 31.0194H313.212C313.131 30.1255 312.752 29.4212 312.075 28.9066C311.424 28.3648 310.544 28.0939 309.433 28.0939C308.404 28.0939 307.605 28.2835 307.036 28.6628C306.494 29.042 306.224 29.5702 306.224 30.2474C306.224 31.0059 306.603 31.5883 307.361 31.9946C308.12 32.3738 309.298 32.7666 310.896 33.1729C312.521 33.5793 313.862 33.9991 314.919 34.4325C315.975 34.8659 316.883 35.5432 317.641 36.4641C318.427 37.3581 318.833 38.5499 318.86 40.0398C318.86 41.34 318.494 42.5048 317.763 43.5342C317.059 44.5635 316.029 45.3762 314.675 45.9721C313.348 46.5409 311.79 46.8254 310.002 46.8254Z" fill="#666666"/>
<path d="M330.518 46.8254C328.676 46.8254 327.024 46.5003 325.561 45.8502C324.099 45.173 322.934 44.2655 322.067 43.1278C321.227 41.9901 320.767 40.7305 320.685 39.349H326.415C326.523 40.2159 326.943 40.9337 327.674 41.5025C328.433 42.0714 329.367 42.3558 330.478 42.3558C331.561 42.3558 332.401 42.1391 332.997 41.7057C333.62 41.2723 333.932 40.717 333.932 40.0398C333.932 39.3084 333.552 38.7666 332.794 38.4145C332.062 38.0353 330.884 37.6289 329.259 37.1955C327.579 36.7892 326.198 36.3693 325.114 35.9359C324.058 35.5025 323.137 34.8389 322.351 33.945C321.593 33.051 321.214 31.8456 321.214 30.3287C321.214 29.0826 321.566 27.9449 322.27 26.9156C323.001 25.8862 324.031 25.0736 325.358 24.4776C326.713 23.8817 328.297 23.5837 330.112 23.5837C332.794 23.5837 334.934 24.2609 336.532 25.6153C338.13 26.9427 339.011 28.744 339.173 31.0194H333.728C333.647 30.1255 333.268 29.4212 332.591 28.9066C331.941 28.3648 331.06 28.0939 329.95 28.0939C328.92 28.0939 328.121 28.2835 327.552 28.6628C327.01 29.042 326.74 29.5702 326.74 30.2474C326.74 31.0059 327.119 31.5883 327.877 31.9946C328.636 32.3738 329.814 32.7666 331.412 33.1729C333.038 33.5793 334.378 33.9991 335.435 34.4325C336.491 34.8659 337.399 35.5432 338.157 36.4641C338.943 37.3581 339.349 38.5499 339.376 40.0398C339.376 41.34 339.011 42.5048 338.279 43.5342C337.575 44.5635 336.546 45.3762 335.191 45.9721C333.864 46.5409 332.306 46.8254 330.518 46.8254Z" fill="#666666"/>
</svg>
