<svg width="270" height="77" viewBox="0 0 270 77" fill="none" xmlns="http://www.w3.org/2000/svg">
<path d="M88.5518 15.1396V5.88867H135.096V15.1396H117.13V69.8977H106.704V15.1396H88.5518Z" fill="#666666"/>
<path d="M163.605 61.4878L166.212 61.2074L166.398 68.7764C159.323 70.2092 153.055 70.9256 147.594 70.9256C140.706 70.9256 135.741 69.0256 132.7 65.2255C129.721 61.4255 128.232 55.3516 128.232 47.004C128.232 30.4333 134.965 22.1479 148.432 22.1479C161.464 22.1479 167.98 29.2808 167.98 43.5465L167.329 50.8352H138.471C138.533 54.6975 139.371 57.532 140.985 59.3386C142.598 61.1451 145.608 62.0484 150.014 62.0484C154.42 62.0484 158.951 61.8615 163.605 61.4878ZM158.02 42.9859C158.02 38.376 157.275 35.1677 155.786 33.3612C154.358 31.4923 151.907 30.5578 148.432 30.5578C144.957 30.5578 142.412 31.5234 140.799 33.4546C139.247 35.3858 138.44 38.5629 138.378 42.9859H158.02Z" fill="#666666"/>
<path d="M173.083 69.8977V23.1758H183.136V28.7824C188.411 25.3561 193.686 23.1446 198.961 22.1479V32.3333C193.624 33.3923 189.063 34.7628 185.277 36.4448L183.229 37.2858V69.8977H173.083Z" fill="#666666"/>
<path d="M202.063 69.8977V23.1758H212.117V28.7824C217.392 25.3561 222.667 23.1446 227.942 22.1479V32.3333C222.605 33.3923 218.043 34.7628 214.258 36.4448L212.21 37.2858V69.8977H202.063Z" fill="#666666"/>
<path d="M265.486 37.5661V58.8713C265.549 60.2418 265.89 61.2697 266.51 61.955C267.193 62.5779 268.217 62.9829 269.582 63.1698L269.303 70.9256C263.966 70.9256 259.839 69.7731 256.922 67.4682C251.958 69.7731 246.962 70.9256 241.935 70.9256C232.689 70.9256 228.065 65.9731 228.065 56.068C228.065 51.3335 229.306 47.9073 231.789 45.7892C234.333 43.6711 238.212 42.3941 243.425 41.958L255.433 40.9301V37.5661C255.433 35.0743 254.875 33.33 253.757 32.3333C252.702 31.3365 251.12 30.8382 249.01 30.8382C245.038 30.8382 240.074 31.0874 234.116 31.5857L231.137 31.7726L230.765 24.5774C237.529 22.9578 243.735 22.1479 249.382 22.1479C255.092 22.1479 259.188 23.3938 261.67 25.8857C264.214 28.3152 265.486 32.2087 265.486 37.5661ZM244.635 49.1532C240.353 49.527 238.212 51.8631 238.212 56.1615C238.212 60.4599 240.105 62.6091 243.89 62.6091C246.993 62.6091 250.282 62.1107 253.757 61.114L255.433 60.5533V48.1253L244.635 49.1532Z" fill="#666666"/>
<path fill-rule="evenodd" clip-rule="evenodd" d="M60.3918 0.524414C68.4921 0.524414 75.2503 6.27016 76.8133 13.9084C77.0366 14.9995 77.1539 16.1293 77.1539 17.2865V60.1975C77.1539 69.4549 69.6492 76.9596 60.3918 76.9596H17.4808C15.6481 76.9596 13.8841 76.6654 12.2334 76.1218C5.5461 73.9194 0.71875 67.6222 0.71875 60.1975V17.2865C0.71875 8.02906 8.22339 0.524414 17.4808 0.524414H60.3918ZM53.5932 5.88828H60.3918C65.9469 5.88828 70.5738 9.86221 71.5848 15.1223C68.3587 15.4878 64.6713 15.1491 60.7775 13.4803C57.3267 12.0014 55.0378 9.26151 53.5932 5.88828ZM37.678 5.88828H47.8658C49.5584 10.9836 52.8012 15.8976 58.6646 18.4105C63.3679 20.4262 67.8349 20.8938 71.79 20.501V25.9818C66.4199 27.6818 61.0687 28.3697 56.7869 27.1165C54.6602 26.4941 52.2199 24.8414 49.5938 22.2415C47.0036 19.6773 44.419 16.3792 41.9784 12.7742C40.4616 10.5338 39.0173 8.20015 37.678 5.88828ZM31.5176 5.88828H24.4199C24.7433 11.958 23.3132 19.3718 17.9932 26.8825C14.4686 31.8584 10.3005 34.5953 6.08262 35.8177V46.5107C8.62419 44.9672 11.6162 42.8593 15.1193 40.0131C23.3964 33.2879 29.9156 30.6121 34.8589 30.1227C39.7738 29.6361 43.2674 31.3409 44.8065 33.4957C46.4221 35.7575 47.3355 38.7888 47.6793 41.9859C48.0272 45.2217 47.8152 48.8306 46.9991 52.4124C45.3767 59.5329 41.2582 66.9447 33.8384 70.94C33.4344 71.1576 33.0266 71.3762 32.6157 71.5957H40.953C44.2138 67.4563 46.823 63.3435 47.7588 60.1202C48.8151 56.4819 49.2487 52.6247 49.6542 49.0183L49.6542 49.0176L49.6544 49.0168C49.8 47.7216 49.942 46.4584 50.1079 45.2497C50.3954 43.1549 50.7921 40.9356 51.6446 39.3353C52.0957 38.4884 52.8123 37.5456 53.9659 37.0013C55.1803 36.4284 56.4438 36.4987 57.5521 36.8681C60.6589 37.9038 64.7892 38.1183 71.79 36.3648V31.5802C66.3914 33.1014 60.5048 33.7936 55.2802 32.2644C51.9089 31.2777 48.7087 28.9131 45.8201 26.0534C42.8955 23.1581 40.0911 19.5544 37.5367 15.7813C35.3517 12.5539 33.3176 9.15483 31.5176 5.88828ZM71.79 41.8813C65.1205 43.4079 60.3246 43.3442 56.2684 42.0893C55.9686 42.7911 55.6887 44.0358 55.4219 45.9791C55.2894 46.9444 55.1664 48.042 55.0334 49.2287L55.0333 49.2296C54.6187 52.9281 54.1071 57.4922 52.91 61.6157C51.9923 64.7764 50.008 68.2484 47.6488 71.5957H53.0454C54.0406 69.1205 54.9575 66.7631 55.6774 64.7815C56.4509 62.6523 56.9357 61.121 57.0915 60.3417C57.3875 58.8618 57.9514 57.2697 59.2739 56.1408C60.6496 54.9664 62.3393 54.7144 63.9224 54.7949C65.4812 54.8742 67.3089 55.294 69.3709 55.8854C70.1206 56.1005 70.9264 56.3458 71.79 56.6183V41.8813ZM71.6156 62.1949C70.2155 61.7403 68.9836 61.3545 67.892 61.0414C65.8997 60.47 64.5636 60.1983 63.65 60.1519C63.0601 60.1219 62.8213 60.1945 62.7528 60.2251C62.7144 60.2705 62.5239 60.5302 62.3512 61.3937C62.1048 62.6259 61.4804 64.5169 60.7188 66.6131C60.1721 68.118 59.5225 69.8144 58.8195 71.5957H60.3918C66.0054 71.5957 70.6712 67.5376 71.6156 62.1949ZM21.0423 71.5957C24.5549 69.7841 28.1004 67.9377 31.2954 66.2173C36.95 63.1725 40.3744 57.3423 41.7692 51.2208C42.4617 48.1815 42.6268 45.1694 42.3462 42.5594C42.0614 39.9107 41.3404 37.8715 40.4418 36.6134C40.3047 36.4214 38.9373 35.109 35.3873 35.4605C31.8658 35.8092 26.3163 37.8267 18.5017 44.176C13.61 48.1506 9.51624 50.8739 6.08262 52.674V58.7233C6.92906 57.9487 7.88486 57.3018 8.76812 56.7498C9.66801 56.1874 10.6485 55.6342 11.6121 55.0938L11.8509 54.9599C12.7511 54.4554 13.6445 53.9546 14.5316 53.4233C16.4724 52.2609 18.2175 51.0468 19.5593 49.6342C21.8825 47.1884 25.2358 44.2691 28.3884 42.2765C29.9436 41.2934 31.6233 40.4239 33.208 40.0246C34.6952 39.6499 37.0014 39.4975 38.6083 41.3344C40.1374 43.0825 40.7712 45.7044 39.6573 49.1073C38.5994 52.3391 35.9423 56.4203 30.8064 61.7273C25.4752 67.2362 20.1438 69.9959 15.6489 70.8753C15.142 70.9745 14.6433 71.0501 14.1547 71.1027C15.2069 71.4233 16.3237 71.5957 17.4808 71.5957H21.0423ZM6.08262 30.1422C8.68138 29.0644 11.2704 27.0937 13.6161 23.782C18.248 17.243 19.3672 10.9023 19.0485 5.88828H17.4808C11.1858 5.88828 6.08262 10.9914 6.08262 17.2865V30.1422ZM62.7476 60.2275C62.735 60.2335 62.7298 60.2374 62.7304 60.2379C62.7308 60.2382 62.7337 60.237 62.7385 60.2339L62.7418 60.2317L62.7476 60.2275ZM31.2543 46.8105C28.5532 48.5178 25.5365 51.13 23.4483 53.3283C21.6057 55.2681 19.3699 56.7778 17.2878 58.0249C16.3309 58.598 15.3714 59.1357 14.482 59.6342L14.2357 59.7722C13.2611 60.3188 12.3872 60.8132 11.6108 61.2984C9.93667 62.3447 9.23677 63.048 9.01742 63.4984C8.95453 63.6275 8.94704 63.7016 8.96643 63.8143C8.99402 63.9748 9.10948 64.3454 9.5688 64.9579L9.61345 65.0174L9.65477 65.0794C9.65735 65.0829 9.71773 65.1662 9.90968 65.2836C10.1079 65.4049 10.4148 65.5422 10.8507 65.6494C11.7267 65.865 13.0018 65.9276 14.6191 65.6112C17.835 64.9821 22.2258 62.8808 26.9519 57.9972C31.8733 52.9118 33.8749 49.5304 34.5596 47.4386C34.9673 46.1932 34.8838 45.5186 34.7535 45.174C34.6882 45.1861 34.6103 45.2028 34.5184 45.226C33.7439 45.4211 32.6258 45.9436 31.2543 46.8105ZM35.042 45.1488C35.0409 45.1502 35.0249 45.1504 34.9977 45.1451C35.0296 45.1447 35.0432 45.1474 35.042 45.1488Z" fill="#666666"/>
</svg>
