<svg width="173" height="54" viewBox="0 0 173 54" fill="none" xmlns="http://www.w3.org/2000/svg">
<g id="Logo">
<g id="Icon">
<path d="M33.1413 41.63C33.407 44.8031 32.3332 48.0683 29.9159 50.507C27.4987 52.9457 24.2431 54.0482 21.0678 53.8105C20.8021 50.6375 21.8759 47.3722 24.2931 44.9336C26.7104 42.4949 29.966 41.3924 33.1413 41.63Z" fill="#666666"/>
<path d="M27.3898 37.2207C24.2209 40.6096 19.6429 42.6411 14.6449 42.4129C9.64738 42.1846 5.27409 39.7447 2.42727 36.0818C5.59617 32.693 10.1741 30.6615 15.1722 30.8897C20.1697 31.118 24.5429 33.5578 27.3898 37.2207Z" fill="#666666"/>
<path d="M0.564453 26.3147C1.22642 18.3795 5.22988 10.773 12.2034 5.76255C19.1766 0.752314 27.6626 -0.615054 35.394 1.28905C34.7321 9.22424 30.7286 16.8308 23.7551 21.8412C16.7818 26.8514 8.29588 28.2188 0.564453 26.3147Z" fill="#666666"/>
</g>
<g id="Leafe">
<path d="M129.109 16.5843V21.4164H132.008V46.6784H137.162V21.4164H143.927V16.5843H137.162V11.6398C137.162 10.2222 137.291 9.08418 137.549 8.225C137.807 7.36602 138.15 6.76475 138.58 6.42101C139.052 6.03453 139.611 5.84129 140.255 5.84129C140.77 5.84129 141.307 5.94869 141.866 6.16329C142.467 6.33516 142.982 6.78612 143.412 7.51634L146.247 3.26415C145.946 2.83457 145.517 2.42653 144.958 2.04006C144.443 1.65339 143.82 1.3312 143.09 1.07349C142.36 0.815774 141.522 0.687012 140.577 0.687012C138.773 0.687012 137.227 1.07349 135.938 1.84663C134.693 2.57685 133.726 3.69355 133.039 5.19691C132.352 6.70027 132.008 8.63303 132.008 10.9954V16.5843H129.109Z" fill="#666666"/>
<path d="M48.1689 6.73303L48.1689 46.6784H71.363V41.524H53.6452V6.73303H48.1689Z" fill="#666666"/>
<path fill-rule="evenodd" clip-rule="evenodd" d="M85.0986 47.3226C88.277 47.3226 91.026 46.6997 93.3455 45.4541C95.7078 44.1657 97.6621 42.2756 99.2084 39.7845L95.0205 37.1429C93.9467 38.9469 92.6368 40.2999 91.0905 41.2018C89.5442 42.0608 87.7616 42.4904 85.743 42.4904C83.7242 42.4904 82.0061 42.0608 80.5887 41.2018C79.1714 40.3429 78.0974 39.0972 77.3674 37.4651C76.8124 36.2247 76.4683 34.7859 76.3352 33.1484H99.6594V32.5685C99.7023 32.225 99.7238 31.9028 99.7238 31.6021C99.7238 28.4667 99.1653 25.7608 98.0486 23.4843C96.9319 21.2077 95.3211 19.4682 93.2165 18.2655C91.1548 17.02 88.6637 16.3972 85.743 16.3972C82.8223 16.3972 80.2452 17.0414 78.0116 18.33C75.8211 19.6185 74.103 21.4225 72.8573 23.742C71.6548 26.0614 71.0535 28.7673 71.0535 31.8599C71.0535 34.9095 71.6332 37.5939 72.793 39.9133C73.9956 42.2327 75.6492 44.0583 77.7539 45.3898C79.9014 46.6784 82.3498 47.3226 85.0986 47.3226ZM77.4317 25.8037C77.0201 26.6755 76.7177 27.6635 76.5245 28.7673H94.0899C93.9908 27.3558 93.6351 26.1104 93.0233 25.0305C92.336 23.742 91.3696 22.7327 90.124 22.0024C88.8785 21.2722 87.418 20.9071 85.743 20.9071C83.7671 20.9071 82.0705 21.3367 80.6532 22.1957C79.2786 23.0117 78.2048 24.2145 77.4317 25.8037Z" fill="#666666"/>
<path fill-rule="evenodd" clip-rule="evenodd" d="M120.705 30.4293C119.895 29.898 118.864 29.43 117.612 29.025C116.195 28.5096 114.412 28.2519 112.264 28.2519C108.614 28.2519 105.757 29.1324 103.696 30.8935C101.677 32.6114 100.668 34.9095 100.668 37.7873C100.668 39.8059 101.14 41.524 102.085 42.9414C103.03 44.3589 104.276 45.4541 105.822 46.2272C107.411 46.9574 109.108 47.3226 110.912 47.3226C112.544 47.3226 114.176 47.0219 115.808 46.4207C117.483 45.8192 118.879 44.8957 119.996 43.6503C120.263 43.3634 120.499 43.0595 120.705 42.7387V46.6784H125.859V25.417C125.859 23.4843 125.365 21.8521 124.377 20.5206C123.432 19.1891 122.079 18.1797 120.318 17.4925C118.6 16.7623 116.581 16.3972 114.262 16.3972C111.513 16.3972 109.151 16.8052 107.175 17.6213C105.242 18.4374 103.717 19.2534 102.6 20.0695L105.113 23.8707C105.585 23.5272 106.23 23.1191 107.046 22.6466C107.862 22.1741 108.85 21.7661 110.01 21.4225C111.212 21.079 112.544 20.9071 114.004 20.9071C114.906 20.9071 115.765 20.993 116.581 21.1648C117.397 21.3367 118.106 21.6158 118.707 22.0024C119.352 22.3889 119.846 22.9259 120.189 23.613C120.533 24.2574 120.705 25.095 120.705 26.1259V30.4293ZM106.659 34.7592C106.144 35.5323 105.886 36.4558 105.886 37.5296C105.886 38.6463 106.144 39.6126 106.659 40.4287C107.218 41.2448 107.969 41.8676 108.914 42.2972C109.902 42.6837 111.019 42.8771 112.264 42.8771C113.854 42.8771 115.271 42.5549 116.517 41.9105C117.805 41.2663 118.815 40.3642 119.545 39.2046C120.318 38.0019 120.705 36.6275 120.705 35.0812V33.9666C119.879 33.565 119.042 33.2492 118.192 33.0195C116.603 32.5472 114.906 32.3108 113.102 32.3108C111.427 32.3108 110.052 32.5256 108.979 32.9552C107.948 33.3846 107.175 33.986 106.659 34.7592Z" fill="#666666"/>
<path fill-rule="evenodd" clip-rule="evenodd" d="M166.292 45.4541C163.973 46.6997 161.224 47.3226 158.045 47.3226C155.297 47.3226 152.848 46.6784 150.701 45.3898C148.596 44.0583 146.942 42.2327 145.74 39.9133C144.58 37.5939 144 34.9095 144 31.8599C144 28.7673 144.602 26.0614 145.804 23.742C147.05 21.4225 148.768 19.6185 150.958 18.33C153.192 17.0414 155.769 16.3972 158.69 16.3972C161.611 16.3972 164.102 17.02 166.163 18.2655C168.268 19.4682 169.879 21.2077 170.995 23.4843C172.112 25.7608 172.671 28.4667 172.671 31.6021C172.671 31.9028 172.649 32.225 172.606 32.5685V33.1484H149.282C149.415 34.7859 149.759 36.2247 150.314 37.4651C151.044 39.0972 152.118 40.3429 153.536 41.2018C154.953 42.0608 156.671 42.4904 158.69 42.4904C160.708 42.4904 162.491 42.0608 164.037 41.2018C165.584 40.2999 166.894 38.9469 167.967 37.1429L172.155 39.7845C170.609 42.2756 168.655 44.1657 166.292 45.4541ZM149.471 28.7673C149.665 27.6635 149.967 26.6755 150.379 25.8037C151.152 24.2145 152.226 23.0117 153.6 22.1957C155.017 21.3367 156.714 20.9071 158.69 20.9071C160.365 20.9071 161.825 21.2722 163.071 22.0024C164.316 22.7327 165.283 23.742 165.97 25.0305C166.582 26.1104 166.938 27.3558 167.037 28.7673H149.471Z" fill="#666666"/>
</g>
</g>
</svg>
