<svg width="235" height="73" viewBox="0 0 235 73" fill="none" xmlns="http://www.w3.org/2000/svg">
<path fill-rule="evenodd" clip-rule="evenodd" d="M36.3292 72.9367C56.3253 72.9367 72.5353 56.7266 72.5353 36.7305C72.5353 16.7344 56.3253 0.524414 36.3292 0.524414C16.3331 0.524414 0.123047 16.7344 0.123047 36.7305C0.123047 56.7266 16.3331 72.9367 36.3292 72.9367ZM38.7813 17.7041C41.7708 16.3603 45.2055 16.4291 48.1387 17.8914C52.4785 20.055 52.388 26.278 47.9872 28.3144L38.2236 32.8325C37.2913 33.2639 36.2127 33.244 35.297 32.7787L26.1184 28.1145C25.1642 27.6296 23.9977 28.01 23.5128 28.9642C23.0279 29.9183 23.4084 31.0849 24.3625 31.5697L34.9914 36.9709C36.0501 37.5089 37.2971 37.5319 38.3749 37.0331L49.6149 31.8319C56.9654 28.4305 57.1165 18.0365 49.868 14.4228C45.8945 12.4419 41.2418 12.3487 37.1923 14.169L17.2214 23.146C15.8297 23.7716 14.9346 25.1554 14.9346 26.6811V33.0574C14.9346 34.5271 15.7658 35.8703 17.0811 36.5261L34.9784 45.4485C36.0673 45.9914 37.348 45.9914 38.4369 45.4485L52.8366 38.2697C53.6495 37.8644 54.6048 38.4557 54.6048 39.364C54.6048 39.8276 54.3426 40.2514 53.9277 40.4583L38.2034 48.2974C37.2615 48.767 36.1538 48.767 35.2119 48.2974L20.5397 40.9828C17.9629 39.6981 14.9346 41.5722 14.9346 44.4514V47.8903C14.9346 49.3599 15.7658 50.7032 17.0812 51.3589L34.9849 60.2847C36.0665 60.8238 37.3376 60.8277 38.4223 60.2951L52.1281 53.5661C53.0889 53.0944 53.4853 51.9332 53.0136 50.9725C52.5419 50.0117 51.3807 49.6153 50.42 50.087L38.203 56.085C37.2648 56.5457 36.1653 56.5423 35.2299 56.076L19.6626 48.3151C19.1404 48.0548 18.8104 47.5215 18.8104 46.938C18.8104 45.7949 20.0127 45.0508 21.0357 45.5609L34.9784 52.5118C36.0673 53.0547 37.348 53.0547 38.4369 52.5118L56.3341 43.5893C57.6494 42.9336 58.4807 41.5903 58.4807 40.1207V37.3882C58.4807 34.5089 55.4524 32.6349 52.8756 33.9195L38.2034 41.2342C37.2615 41.7037 36.1538 41.7037 35.2119 41.2342L20.6671 33.983C19.5294 33.4158 18.8104 32.254 18.8104 30.9828V28.8498C18.8104 27.53 19.5847 26.3331 20.7884 25.792L38.7813 17.7041Z" fill="#666666"/>
<path d="M95.1634 26.3475V34.0664H105.529V38.9625H95.1634V47.1225H106.852V52.1508H88.9883V21.3192H106.852V26.3475H95.1634Z" fill="#666666"/>
<path d="M116.875 31.2876C117.669 30.1114 118.757 29.1557 120.139 28.4206C121.55 27.6855 123.153 27.3179 124.946 27.3179C127.034 27.3179 128.916 27.8325 130.592 28.8617C132.298 29.8909 133.636 31.3611 134.606 33.2725C135.606 35.1545 136.106 37.3452 136.106 39.8446C136.106 42.3441 135.606 44.5642 134.606 46.505C133.636 48.4163 132.298 49.9013 130.592 50.9599C128.916 52.0185 127.034 52.5478 124.946 52.5478C123.123 52.5478 121.521 52.1949 120.139 51.4892C118.786 50.7541 117.698 49.8131 116.875 48.6663V52.1508H110.7V19.5107H116.875V31.2876ZM129.798 39.8446C129.798 38.3743 129.49 37.1099 128.872 36.0513C128.284 34.9633 127.49 34.14 126.49 33.5813C125.52 33.0226 124.461 32.7432 123.314 32.7432C122.197 32.7432 121.138 33.0373 120.139 33.6254C119.168 34.1841 118.374 35.0074 117.757 36.0954C117.169 37.1834 116.875 38.4626 116.875 39.9328C116.875 41.4031 117.169 42.6823 117.757 43.7703C118.374 44.8583 119.168 45.6963 120.139 46.2844C121.138 46.8431 122.197 47.1225 123.314 47.1225C124.461 47.1225 125.52 46.8284 126.49 46.2403C127.49 45.6522 128.284 44.8141 128.872 43.7261C129.49 42.6381 129.798 41.3443 129.798 39.8446Z" fill="#666666"/>
<path d="M149.679 52.5478C147.327 52.5478 145.21 52.0332 143.328 51.004C141.446 49.9454 139.961 48.4604 138.873 46.5491C137.814 44.6377 137.285 42.4323 137.285 39.9328C137.285 37.4334 137.829 35.228 138.917 33.3166C140.034 31.4053 141.549 29.935 143.46 28.9058C145.372 27.8472 147.503 27.3179 149.856 27.3179C152.208 27.3179 154.34 27.8472 156.252 28.9058C158.163 29.935 159.663 31.4053 160.751 33.3166C161.868 35.228 162.427 37.4334 162.427 39.9328C162.427 42.4323 161.853 44.6377 160.706 46.5491C159.589 48.4604 158.06 49.9454 156.119 51.004C154.208 52.0332 152.061 52.5478 149.679 52.5478ZM149.679 47.1666C150.797 47.1666 151.841 46.9019 152.811 46.3726C153.811 45.8139 154.605 44.9906 155.193 43.9026C155.781 42.8146 156.075 41.4913 156.075 39.9328C156.075 37.6098 155.458 35.8308 154.223 34.5957C153.017 33.3313 151.532 32.6991 149.768 32.6991C148.003 32.6991 146.518 33.3313 145.313 34.5957C144.137 35.8308 143.548 37.6098 143.548 39.9328C143.548 42.2559 144.122 44.0496 145.269 45.314C146.445 46.5491 147.915 47.1666 149.679 47.1666Z" fill="#666666"/>
<path d="M176.043 52.5478C173.69 52.5478 171.573 52.0332 169.691 51.004C167.809 49.9454 166.324 48.4604 165.236 46.5491C164.178 44.6377 163.648 42.4323 163.648 39.9328C163.648 37.4334 164.192 35.228 165.28 33.3166C166.398 31.4053 167.912 29.935 169.823 28.9058C171.735 27.8472 173.867 27.3179 176.219 27.3179C178.572 27.3179 180.703 27.8472 182.615 28.9058C184.526 29.935 186.026 31.4053 187.114 33.3166C188.231 35.228 188.79 37.4334 188.79 39.9328C188.79 42.4323 188.217 44.6377 187.07 46.5491C185.952 48.4604 184.423 49.9454 182.483 51.004C180.571 52.0332 178.425 52.5478 176.043 52.5478ZM176.043 47.1666C177.16 47.1666 178.204 46.9019 179.174 46.3726C180.174 45.8139 180.968 44.9906 181.556 43.9026C182.144 42.8146 182.438 41.4913 182.438 39.9328C182.438 37.6098 181.821 35.8308 180.586 34.5957C179.38 33.3313 177.895 32.6991 176.131 32.6991C174.367 32.6991 172.882 33.3313 171.676 34.5957C170.5 35.8308 169.912 37.6098 169.912 39.9328C169.912 42.2559 170.485 44.0496 171.632 45.314C172.808 46.5491 174.278 47.1666 176.043 47.1666Z" fill="#666666"/>
<path d="M206.023 52.1508L197.731 41.7413V52.1508H191.555V19.5107H197.731V38.0803L205.935 27.7149H213.962L203.2 39.9769L214.051 52.1508H206.023Z" fill="#666666"/>
<path d="M224.9 52.5478C222.901 52.5478 221.107 52.1949 219.519 51.4892C217.931 50.7541 216.667 49.769 215.726 48.5339C214.814 47.2989 214.315 45.9316 214.226 44.4319H220.446C220.563 45.3729 221.019 46.1521 221.813 46.7696C222.636 47.3871 223.651 47.6959 224.856 47.6959C226.033 47.6959 226.944 47.4606 227.591 46.9902C228.267 46.5197 228.606 45.9169 228.606 45.1817C228.606 44.3878 228.194 43.7997 227.371 43.4174C226.577 43.0057 225.297 42.5646 223.533 42.0941C221.71 41.6531 220.21 41.1973 219.034 40.7268C217.887 40.2563 216.887 39.5359 216.035 38.5655C215.211 37.5951 214.8 36.2866 214.8 34.6399C214.8 33.2872 215.182 32.0522 215.947 30.9348C216.74 29.8174 217.858 28.9352 219.299 28.2883C220.769 27.6414 222.489 27.3179 224.459 27.3179C227.371 27.3179 229.694 28.053 231.428 29.5233C233.163 30.9642 234.119 32.9196 234.296 35.3897H228.385C228.297 34.4193 227.885 33.6548 227.15 33.0961C226.444 32.508 225.489 32.2139 224.283 32.2139C223.166 32.2139 222.298 32.4197 221.681 32.8314C221.092 33.2431 220.798 33.8165 220.798 34.5516C220.798 35.375 221.21 36.0072 222.033 36.4483C222.857 36.86 224.136 37.2863 225.871 37.7274C227.635 38.1685 229.091 38.6243 230.238 39.0948C231.384 39.5653 232.369 40.3004 233.193 41.3002C234.046 42.2706 234.487 43.5644 234.516 45.1817C234.516 46.5932 234.119 47.8576 233.325 48.975C232.561 50.0924 231.443 50.9746 229.973 51.6215C228.532 52.239 226.841 52.5478 224.9 52.5478Z" fill="#666666"/>
</svg>
